<svg width="1366" height="1021" viewBox="0 0 1366 1021" fill="none" xmlns="http://www.w3.org/2000/svg">
<path opacity="0.7" d="M220.439 272.164C220.439 273.367 219.837 273.969 218.632 273.969C217.428 273.969 216.825 273.367 216.825 272.164C216.825 270.96 217.428 270.359 218.632 270.359C219.235 270.359 220.439 270.96 220.439 272.164Z" fill="white"/>
<path opacity="0.7" d="M294.521 272.164C294.521 272.766 293.918 273.367 293.316 273.367C292.714 273.367 292.111 272.766 292.111 272.164C292.111 271.562 292.714 270.961 293.316 270.961C293.918 270.359 294.521 270.961 294.521 272.164Z" fill="white"/>
<path opacity="0.7" d="M148.165 369.023C148.165 369.625 147.563 370.226 146.961 370.226C146.359 370.226 145.756 369.625 145.756 369.023C145.756 368.421 146.359 367.82 146.961 367.82C147.563 367.82 148.165 368.421 148.165 369.023Z" fill="white"/>
<path opacity="0.7" d="M982.945 295.627C982.945 296.228 982.343 296.83 981.741 296.83C981.138 296.83 980.536 296.228 980.536 295.627C980.536 295.025 981.138 294.423 981.741 294.423C982.343 294.423 982.945 295.025 982.945 295.627Z" fill="white"/>
<path opacity="0.7" d="M310.183 200.572C310.183 201.174 309.581 201.775 308.979 201.775C308.376 201.775 307.774 201.174 307.774 200.572C307.774 199.97 308.376 199.369 308.979 199.369C309.581 199.369 310.183 199.97 310.183 200.572Z" fill="white"/>
<path opacity="0.7" d="M307.772 240.88C307.772 241.481 307.17 242.083 306.568 242.083C305.965 242.083 305.363 241.481 305.363 240.88C305.363 240.278 305.965 239.676 306.568 239.676C307.17 239.676 307.772 240.278 307.772 240.88Z" fill="white"/>
<path opacity="0.7" d="M362.583 30.9175C362.583 32.1207 361.98 32.7223 360.776 32.7223C359.571 32.7223 358.969 32.1207 358.969 30.9175C358.969 29.7143 359.571 29.1127 360.776 29.1127C361.98 29.1127 362.583 30.3159 362.583 30.9175Z" fill="white"/>
<path opacity="0.7" d="M369.205 314.276C369.205 315.48 368 316.683 366.796 316.683C365.591 316.683 364.387 315.48 364.387 314.276C364.387 313.073 365.591 311.87 366.796 311.87C368.603 311.87 369.205 313.073 369.205 314.276Z" fill="white"/>
<path opacity="0.7" d="M262.604 12.87C262.604 14.0732 261.399 15.2764 260.195 15.2764C258.99 15.2764 257.786 14.0732 257.786 12.87C257.786 11.6668 258.99 10.4636 260.195 10.4636C261.399 10.4636 262.604 11.0652 262.604 12.87Z" fill="white"/>
<path opacity="0.7" d="M62.6409 212.605C62.6409 213.808 61.4363 215.011 60.2317 215.011C59.0272 215.011 57.8226 213.808 57.8226 212.605C57.8226 211.401 59.0272 210.198 60.2317 210.198C61.4363 210.198 62.6409 211.401 62.6409 212.605Z" fill="white"/>
<path opacity="0.7" d="M28.3098 402.112C28.3098 403.315 27.1052 404.518 25.9006 404.518C24.696 404.518 23.4915 403.315 23.4915 402.112C23.4915 400.909 24.696 399.706 25.9006 399.706C27.7075 399.706 28.3098 400.909 28.3098 402.112Z" fill="white"/>
<path opacity="0.7" d="M145.757 225.84C145.757 227.043 144.552 228.246 143.348 228.246C142.143 228.246 140.938 227.043 140.938 225.84C140.938 224.637 142.143 223.433 143.348 223.433C144.552 223.433 145.757 224.637 145.757 225.84Z" fill="white"/>
<path opacity="0.7" d="M92.7566 387.673C92.7566 388.876 92.1543 389.477 90.9497 389.477C89.7451 389.477 89.1428 388.876 89.1428 387.673C89.1428 386.469 89.7451 385.868 90.9497 385.868C92.1543 385.868 92.7566 386.469 92.7566 387.673Z" fill="white"/>
<path opacity="0.7" d="M124.678 147.028C124.678 148.232 124.075 148.833 122.871 148.833C121.666 148.833 121.064 148.232 121.064 147.028C121.064 145.825 121.666 145.224 122.871 145.224C124.075 145.224 124.678 146.427 124.678 147.028Z" fill="white"/>
<path opacity="0.7" d="M63.2437 1.43924C63.2437 2.04085 62.6414 2.64246 62.0391 2.64246C61.4368 2.64246 60.8345 2.04085 60.8345 1.43924C60.8345 0.837631 61.4368 0.236014 62.0391 0.236014C62.6414 -0.365597 63.2437 0.236019 63.2437 1.43924Z" fill="white"/>
<path opacity="0.7" d="M768.526 99.5013C768.526 100.103 767.923 100.705 767.321 100.705C766.719 100.705 766.116 100.103 766.116 99.5013C766.116 98.8997 766.719 98.2981 767.321 98.2981C767.923 98.2981 768.526 98.2981 768.526 99.5013Z" fill="white"/>
<path opacity="0.7" d="M218.034 77.844C218.034 78.4456 217.431 79.0473 216.829 79.0473C216.227 79.0473 215.625 78.4456 215.625 77.844C215.625 77.2424 216.227 76.6408 216.829 76.6408C217.431 76.6408 218.034 77.2424 218.034 77.844Z" fill="white"/>
<path opacity="0.7" d="M613.135 426.184C613.135 426.786 612.533 427.387 611.931 427.387C611.329 427.387 610.726 426.786 610.726 426.184C610.726 425.583 611.329 424.981 611.931 424.981C612.533 424.981 613.135 425.583 613.135 426.184Z" fill="white"/>
<path opacity="0.7" d="M271.034 150.037C271.034 150.639 270.432 151.24 269.83 151.24C269.227 151.24 268.625 150.639 268.625 150.037C268.625 149.436 269.227 148.834 269.83 148.834C270.432 148.834 271.034 149.436 271.034 150.037Z" fill="white"/>
<path opacity="0.7" d="M174.063 417.754C174.063 418.355 173.461 418.957 172.858 418.957C172.256 418.957 171.654 418.355 171.654 417.754C171.654 417.152 172.256 416.551 172.858 416.551C173.461 416.551 174.063 417.152 174.063 417.754Z" fill="white"/>
<path opacity="0.7" d="M186.712 27.9103C186.712 29.1136 185.507 30.3168 184.303 30.3168C183.098 30.3168 181.893 29.1136 181.893 27.9103C181.893 26.7071 183.098 25.5039 184.303 25.5039C185.507 25.5039 186.712 26.7071 186.712 27.9103Z" fill="white"/>
<path opacity="0.7" d="M703.477 83.8591C703.477 85.0623 702.273 86.2655 701.068 86.2655C699.864 86.2655 698.659 85.0623 698.659 83.8591C698.659 82.6559 699.864 81.4527 701.068 81.4527C702.875 81.4527 703.477 82.0543 703.477 83.8591Z" fill="white"/>
<path opacity="0.7" d="M30.1171 367.819C30.1171 369.023 29.5148 369.624 28.3102 369.624C27.1056 369.624 26.5034 369.023 26.5034 367.819C26.5034 366.616 27.1056 366.015 28.3102 366.015C29.5148 366.015 30.1171 366.616 30.1171 367.819Z" fill="white"/>
<path opacity="0.7" d="M308.979 366.016C308.979 367.82 307.172 369.625 305.365 369.625C303.558 369.625 301.751 367.82 301.751 366.016C301.751 364.211 303.558 362.406 305.365 362.406C307.172 363.007 308.979 364.211 308.979 366.016Z" fill="white"/>
<path opacity="0.7" d="M201.166 304.048C201.166 304.65 200.564 305.251 199.961 305.251C199.359 305.251 198.757 304.65 198.757 304.048C198.757 303.447 199.359 302.845 199.961 302.845C200.564 302.243 201.166 302.845 201.166 304.048Z" fill="white"/>
<path opacity="0.7" d="M275.251 404.518C275.251 405.119 274.649 405.721 274.047 405.721C273.444 405.721 272.842 405.119 272.842 404.518C272.842 403.916 273.444 403.314 274.047 403.314C274.649 403.314 275.251 403.916 275.251 404.518Z" fill="white"/>
<path opacity="0.7" d="M857.063 267.952C857.063 268.554 856.461 269.156 855.859 269.156C855.256 269.156 854.654 268.554 854.654 267.952C854.654 267.351 855.256 266.749 855.859 266.749C856.461 266.749 857.063 267.351 857.063 267.952Z" fill="white"/>
<path opacity="0.7" d="M893.201 398.502C893.201 399.103 892.599 399.705 891.997 399.705C891.394 399.705 890.792 399.103 890.792 398.502C890.792 397.9 891.394 397.298 891.997 397.298C892.599 397.298 893.201 397.9 893.201 398.502Z" fill="white"/>
<path opacity="0.7" d="M711.308 390.681C711.308 391.283 710.706 391.885 710.103 391.885C709.501 391.885 708.899 391.283 708.899 390.681C708.899 390.08 709.501 389.478 710.103 389.478C710.706 389.478 711.308 390.08 711.308 390.681Z" fill="white"/>
<path opacity="0.7" d="M964.875 338.341C964.875 338.943 964.273 339.545 963.671 339.545C963.069 339.545 962.466 338.943 962.466 338.341C962.466 337.74 963.069 337.138 963.671 337.138C964.273 336.536 964.875 337.138 964.875 338.341Z" fill="white"/>
<path opacity="0.7" d="M861.884 348.568C861.884 349.771 860.68 350.974 859.475 350.974C858.271 350.974 857.066 349.771 857.066 348.568C857.066 347.365 858.271 346.161 859.475 346.161C860.68 346.161 861.884 347.365 861.884 348.568Z" fill="white"/>
<path opacity="0.7" d="M820.924 225.84C820.924 227.043 819.72 228.246 818.515 228.246C817.311 228.246 816.106 227.043 816.106 225.84C816.106 224.637 817.311 223.433 818.515 223.433C819.72 223.433 820.924 224.637 820.924 225.84Z" fill="white"/>
<path opacity="0.7" d="M861.281 411.738C861.281 412.339 860.679 412.941 860.077 412.941C859.474 412.941 858.872 412.339 858.872 411.738C858.872 411.136 859.474 410.534 860.077 410.534C860.679 410.534 861.281 411.136 861.281 411.738Z" fill="white"/>
<path opacity="0.7" d="M893.201 77.844C893.201 78.4456 892.599 79.0473 891.997 79.0473C891.394 79.0473 890.792 78.4456 890.792 77.844C890.792 77.2424 891.394 76.6408 891.997 76.6408C892.599 76.6408 893.201 77.2424 893.201 77.844Z" fill="white"/>
<path opacity="0.7" d="M885.972 157.256C885.972 157.858 885.37 158.46 884.768 158.46C884.166 158.46 883.563 157.858 883.563 157.256C883.563 156.655 884.166 156.053 884.768 156.053C885.37 156.053 885.972 156.655 885.972 157.256Z" fill="white"/>
<path opacity="0.7" d="M823.337 48.9658C823.337 49.5674 822.735 50.169 822.133 50.169C821.53 50.169 820.928 49.5674 820.928 48.9658C820.928 48.3642 821.53 47.7626 822.133 47.7626C822.735 47.161 823.337 47.7626 823.337 48.9658Z" fill="white"/>
<path opacity="0.7" d="M861.884 27.9103C861.884 29.1136 860.68 30.3168 859.475 30.3168C858.271 30.3168 857.066 29.1136 857.066 27.9103C857.066 26.7071 858.271 25.5039 859.475 25.5039C860.68 25.5039 861.884 26.7071 861.884 27.9103Z" fill="white"/>
<path opacity="0.7" d="M760.695 208.994C760.695 210.198 759.49 211.401 758.286 211.401C757.081 211.401 755.877 210.198 755.877 208.994C755.877 207.791 757.081 206.588 758.286 206.588C759.49 206.588 760.695 207.791 760.695 208.994Z" fill="white"/>
<path opacity="0.7" d="M729.376 302.846C729.376 303.447 728.774 304.049 728.172 304.049C727.57 304.049 726.967 303.447 726.967 302.846C726.967 302.244 727.57 301.643 728.172 301.643C728.774 301.643 729.376 302.244 729.376 302.846Z" fill="white"/>
<path opacity="0.7" d="M69.2661 414.746C69.2661 415.949 68.6638 416.55 67.4592 416.55C66.2546 416.55 65.6523 415.949 65.6523 414.746C65.6523 413.542 66.2546 412.941 67.4592 412.941C68.6638 412.941 69.2661 413.542 69.2661 414.746Z" fill="white"/>
<path opacity="0.7" d="M543.873 273.367C543.873 275.171 542.066 276.976 540.259 276.976C538.452 276.976 536.645 275.171 536.645 273.367C536.645 271.562 538.452 269.757 540.259 269.757C542.066 270.358 543.873 271.562 543.873 273.367Z" fill="white"/>
<path opacity="0.7" d="M501.711 267.952C501.711 268.554 501.109 269.156 500.507 269.156C499.904 269.156 499.302 268.554 499.302 267.952C499.302 267.351 499.904 266.749 500.507 266.749C501.109 266.749 501.711 267.351 501.711 267.952Z" fill="white"/>
<path opacity="0.7" d="M427.63 124.769C427.63 125.371 427.028 125.973 426.426 125.973C425.823 125.973 425.221 125.371 425.221 124.769C425.221 124.168 425.823 123.566 426.426 123.566C427.028 122.964 427.63 123.566 427.63 124.769Z" fill="white"/>
<path opacity="0.7" d="M538.449 398.502C538.449 399.103 537.847 399.705 537.245 399.705C536.643 399.705 536.04 399.103 536.04 398.502C536.04 397.9 536.643 397.298 537.245 397.298C537.847 397.298 538.449 397.9 538.449 398.502Z" fill="white"/>
<path opacity="0.7" d="M468.585 369.023C468.585 369.625 467.983 370.226 467.381 370.226C466.778 370.226 466.176 369.625 466.176 369.023C466.176 368.421 466.778 367.82 467.381 367.82C467.983 367.82 468.585 368.421 468.585 369.023Z" fill="white"/>
<path opacity="0.7" d="M628.193 418.355C628.193 418.956 627.591 419.558 626.989 419.558C626.386 419.558 625.784 418.956 625.784 418.355C625.784 417.753 626.386 417.152 626.989 417.152C627.591 417.152 628.193 417.753 628.193 418.355Z" fill="white"/>
<path opacity="0.7" d="M436.06 340.145C436.06 340.746 435.458 341.348 434.855 341.348C434.253 341.348 433.651 340.746 433.651 340.145C433.651 339.543 434.253 338.942 434.855 338.942C435.458 338.34 436.06 338.942 436.06 340.145Z" fill="white"/>
<path opacity="0.7" d="M628.193 240.88C628.193 241.481 627.591 242.083 626.989 242.083C626.386 242.083 625.784 241.481 625.784 240.88C625.784 240.278 626.386 239.676 626.989 239.676C627.591 239.676 628.193 240.278 628.193 240.88Z" fill="white"/>
<path opacity="0.7" d="M492.677 208.994C492.677 209.596 492.074 210.197 491.472 210.197C490.87 210.197 490.267 209.596 490.267 208.994C490.267 208.393 490.87 207.791 491.472 207.791C492.074 207.791 492.677 208.393 492.677 208.994Z" fill="white"/>
<path opacity="0.7" d="M343.913 273.366C343.913 274.57 342.708 275.773 341.504 275.773C340.299 275.773 339.094 274.57 339.094 273.366C339.094 272.163 340.299 270.96 341.504 270.96C342.708 270.96 343.913 272.163 343.913 273.366Z" fill="white"/>
<path opacity="0.7" d="M368.605 240.88C368.605 242.083 367.4 243.287 366.196 243.287C364.991 243.287 363.787 242.083 363.787 240.88C363.787 239.677 364.991 238.474 366.196 238.474C367.4 238.474 368.605 239.677 368.605 240.88Z" fill="white"/>
<path opacity="0.7" d="M348.731 402.112C348.731 403.315 347.526 404.518 346.321 404.518C345.117 404.518 343.912 403.315 343.912 402.112C343.912 400.909 345.117 399.706 346.321 399.706C347.526 399.706 348.731 400.909 348.731 402.112Z" fill="white"/>
<path opacity="0.7" d="M465.571 225.84C465.571 227.043 464.367 228.246 463.162 228.246C461.958 228.246 460.753 227.043 460.753 225.84C460.753 224.637 461.958 223.433 463.162 223.433C464.367 223.433 465.571 224.637 465.571 225.84Z" fill="white"/>
<path opacity="0.7" d="M413.172 387.673C413.172 388.876 412.57 389.477 411.365 389.477C410.161 389.477 409.558 388.876 409.558 387.673C409.558 386.469 410.161 385.868 411.365 385.868C412.57 385.868 413.172 386.469 413.172 387.673Z" fill="white"/>
<path opacity="0.7" d="M588.44 318.487C588.44 320.292 586.633 322.097 584.826 322.097C583.019 322.097 581.212 320.292 581.212 318.487C581.212 316.683 583.019 314.878 584.826 314.878C587.235 314.878 588.44 316.081 588.44 318.487Z" fill="white"/>
<path opacity="0.7" d="M416.789 195.76C416.789 196.963 416.187 197.564 414.982 197.564C413.778 197.564 413.175 196.963 413.175 195.76C413.175 194.556 413.778 193.955 414.982 193.955C415.585 193.955 416.789 194.556 416.789 195.76Z" fill="white"/>
<path opacity="0.7" d="M383.664 1.43924C383.664 2.04085 383.062 2.64246 382.46 2.64246C381.858 2.64246 381.255 2.04085 381.255 1.43924C381.255 0.837631 381.858 0.236014 382.46 0.236014C383.062 -0.365597 383.664 0.236019 383.664 1.43924Z" fill="white"/>
<path opacity="0.7" d="M384.864 125.973C384.864 126.574 384.262 127.176 383.66 127.176C383.057 127.176 382.455 126.574 382.455 125.973C382.455 125.371 383.057 124.769 383.66 124.769C384.262 124.769 384.864 125.371 384.864 125.973Z" fill="white"/>
<path opacity="0.7" d="M538.449 77.844C538.449 78.4456 537.847 79.0473 537.245 79.0473C536.643 79.0473 536.04 78.4456 536.04 77.844C536.04 77.2424 536.643 76.6408 537.245 76.6408C537.847 76.6408 538.449 77.2424 538.449 77.844Z" fill="white"/>
<path opacity="0.7" d="M531.226 157.256C531.226 157.858 530.623 158.46 530.021 158.46C529.419 158.46 528.817 157.858 528.817 157.256C528.817 156.655 529.419 156.053 530.021 156.053C530.623 156.053 531.226 156.655 531.226 157.256Z" fill="white"/>
<path opacity="0.7" d="M468.585 48.9658C468.585 49.5674 467.983 50.169 467.381 50.169C466.778 50.169 466.176 49.5674 466.176 48.9658C466.176 48.3642 466.778 47.7626 467.381 47.7626C467.983 47.161 468.585 47.7626 468.585 48.9658Z" fill="white"/>
<path opacity="0.7" d="M590.251 151.24C590.916 151.24 591.455 150.702 591.455 150.037C591.455 149.373 590.916 148.834 590.251 148.834C589.585 148.834 589.046 149.373 589.046 150.037C589.046 150.702 589.585 151.24 590.251 151.24Z" fill="white"/>
<path opacity="0.7" d="M436.665 19.4869C436.665 20.0885 436.063 20.6901 435.461 20.6901C434.858 20.6901 434.256 20.0885 434.256 19.4869C434.256 18.8853 434.858 18.2837 435.461 18.2837C436.063 18.2837 436.665 18.8853 436.665 19.4869Z" fill="white"/>
<path opacity="0.7" d="M33.7309 5.65C33.7309 7.45483 31.924 9.25967 30.1171 9.25967C28.3102 9.25967 26.5034 7.45483 26.5034 5.65C26.5034 3.84517 28.3102 2.04034 30.1171 2.04034C32.5263 2.04034 33.7309 3.84517 33.7309 5.65Z" fill="white"/>
<path opacity="0.7" d="M506.532 27.9103C506.532 29.1136 505.327 30.3168 504.122 30.3168C502.918 30.3168 501.713 29.1136 501.713 27.9103C501.713 26.7071 502.918 25.5039 504.122 25.5039C505.327 25.5039 506.532 26.7071 506.532 27.9103Z" fill="white"/>
<path opacity="0.7" d="M486.052 154.849C486.052 156.052 484.847 157.256 483.643 157.256C482.438 157.256 481.234 156.052 481.234 154.849C481.234 153.646 482.438 152.443 483.643 152.443C485.45 152.443 486.052 153.646 486.052 154.849Z" fill="white"/>
<path opacity="0.7" d="M445.697 122.964C445.697 124.167 444.492 125.37 443.288 125.37C442.083 125.37 440.879 124.167 440.879 122.964C440.879 121.761 442.083 120.557 443.288 120.557C445.095 120.557 445.697 121.159 445.697 122.964Z" fill="white"/>
<path opacity="0.7" d="M348.731 82.055C348.731 83.2582 347.526 84.4614 346.321 84.4614C345.117 84.4614 343.912 83.2582 343.912 82.055C343.912 80.8518 345.117 79.6485 346.321 79.6485C347.526 79.6485 348.731 80.2502 348.731 82.055Z" fill="white"/>
<path opacity="0.7" d="M413.172 67.0141C413.172 68.2173 412.57 68.8189 411.365 68.8189C410.161 68.8189 409.558 68.2173 409.558 67.0141C409.558 65.8109 410.161 65.2093 411.365 65.2093C412.57 65.2093 413.172 66.4125 413.172 67.0141Z" fill="white"/>
<path opacity="0.7" d="M382.457 153.045C382.457 154.248 381.855 154.85 380.65 154.85C379.446 154.85 378.843 154.248 378.843 153.045C378.843 151.842 379.446 151.24 380.65 151.24C381.252 151.24 382.457 151.842 382.457 153.045Z" fill="white"/>
<path opacity="0.7" d="M490.269 112.135C490.269 113.338 489.667 113.94 488.462 113.94C487.258 113.94 486.656 113.338 486.656 112.135C486.656 110.932 487.258 110.33 488.462 110.33C489.065 110.33 490.269 110.932 490.269 112.135Z" fill="white"/>
<path opacity="0.7" d="M341.5 145.223C341.5 147.028 339.693 148.833 337.886 148.833C336.079 148.833 334.272 147.028 334.272 145.223C334.272 143.419 336.079 141.614 337.886 141.614C340.295 141.614 341.5 143.419 341.5 145.223Z" fill="white"/>
<path opacity="0.7" d="M518.575 350.974C518.575 351.576 517.973 352.178 517.37 352.178C516.768 352.178 516.166 351.576 516.166 350.974C516.166 350.373 516.768 349.771 517.37 349.771C517.973 349.771 518.575 350.373 518.575 350.974Z" fill="white"/>
<path opacity="0.7" d="M389.081 414.746C389.081 415.949 388.479 416.55 387.274 416.55C386.069 416.55 385.467 415.949 385.467 414.746C385.467 413.542 386.069 412.941 387.274 412.941C388.479 412.941 389.081 413.542 389.081 414.746Z" fill="white"/>
<path opacity="0.7" d="M571.576 54.3805C571.576 54.9821 570.973 55.5837 570.371 55.5837C569.769 55.5837 569.166 54.9821 569.166 54.3805C569.166 53.7789 569.769 53.1772 570.371 53.1772C570.973 53.1772 571.576 53.7789 571.576 54.3805Z" fill="white"/>
<path opacity="0.7" d="M557.124 202.978C557.124 204.783 555.318 206.588 553.511 206.588C551.704 206.588 549.897 204.783 549.897 202.978C549.897 201.174 551.704 199.369 553.511 199.369C555.318 199.369 557.124 201.174 557.124 202.978Z" fill="white"/>
<path opacity="0.7" d="M590.852 147.63C590.852 148.833 589.648 150.037 588.443 150.037C587.239 150.037 586.034 148.833 586.034 147.63C586.034 146.427 587.239 145.224 588.443 145.224C590.25 145.224 590.852 146.427 590.852 147.63Z" fill="white"/>
<path opacity="0.7" d="M632.408 54.3806C632.408 55.5838 631.204 56.787 629.999 56.787C628.794 56.787 627.59 55.5838 627.59 54.3806C627.59 53.1774 628.794 51.9741 629.999 51.9741C631.806 51.9741 632.408 53.1774 632.408 54.3806Z" fill="white"/>
<path opacity="0.7" d="M612.533 216.214C612.533 217.417 611.328 218.62 610.124 218.62C608.919 218.62 607.714 217.417 607.714 216.214C607.714 215.01 608.919 213.807 610.124 213.807C611.328 213.807 612.533 215.01 612.533 216.214Z" fill="white"/>
<path opacity="0.7" d="M653.489 228.246C653.489 229.449 652.887 230.051 651.682 230.051C650.478 230.051 649.875 229.449 649.875 228.246C649.875 227.043 650.478 226.441 651.682 226.441C652.285 226.441 653.489 227.644 653.489 228.246Z" fill="white"/>
<path opacity="0.7" d="M828.757 158.459C828.757 157.858 829.359 157.256 829.961 157.256C830.564 157.256 831.166 157.858 831.166 158.459C831.166 159.061 830.564 159.663 829.961 159.663C829.359 160.264 828.757 159.663 828.757 158.459Z" fill="white"/>
<path opacity="0.7" d="M792.62 27.9102C792.62 27.3086 793.222 26.707 793.824 26.707C794.427 26.707 795.029 27.3086 795.029 27.9102C795.029 28.5118 794.427 29.1134 793.824 29.1134C793.222 29.1134 792.62 29.1134 792.62 27.9102Z" fill="white"/>
<path opacity="0.7" d="M702.276 186.134C702.276 185.532 702.878 184.931 703.481 184.931C704.083 184.931 704.685 185.532 704.685 186.134C704.685 186.735 704.083 187.337 703.481 187.337C702.878 187.337 702.276 186.735 702.276 186.134Z" fill="white"/>
<path opacity="0.7" d="M717.333 37.5357C717.333 35.7309 719.139 33.9261 720.946 33.9261C722.753 33.9261 724.56 35.7309 724.56 37.5357C724.56 39.3406 722.753 41.1454 720.946 41.1454C719.139 41.1454 717.333 39.3406 717.333 37.5357Z" fill="white"/>
<path opacity="0.7" d="M823.94 78.4451C823.94 77.2419 825.145 76.0387 826.349 76.0387C827.554 76.0387 828.758 77.2419 828.758 78.4451C828.758 79.6484 827.554 80.8516 826.349 80.8516C825.145 80.8516 823.94 79.6484 823.94 78.4451Z" fill="white"/>
<path opacity="0.7" d="M799.848 269.757C799.848 269.155 800.45 268.554 801.052 268.554C801.655 268.554 802.257 269.155 802.257 269.757C802.257 270.359 801.655 270.96 801.052 270.96C800.45 270.96 799.848 270.359 799.848 269.757Z" fill="white"/>
<path opacity="0.7" d="M823.94 398.502C823.94 397.298 825.145 396.095 826.349 396.095C827.554 396.095 828.758 397.298 828.758 398.502C828.758 399.705 827.554 400.908 826.349 400.908C825.145 400.908 823.94 400.307 823.94 398.502Z" fill="white"/>
<path opacity="0.7" d="M266.819 60.9986C266.819 60.3969 267.422 59.7953 268.024 59.7953C268.626 59.7953 269.228 60.3969 269.228 60.9986C269.228 61.6002 268.626 62.2018 268.024 62.2018C267.422 62.2018 266.819 61.6002 266.819 60.9986Z" fill="white"/>
<path opacity="0.7" d="M720.345 104.314C720.345 103.111 721.549 101.908 722.754 101.908C723.958 101.908 725.163 103.111 725.163 104.314C725.163 105.518 723.958 106.721 722.754 106.721C721.549 106.721 720.345 105.518 720.345 104.314Z" fill="white"/>
<path opacity="0.7" d="M661.921 24.3C661.921 23.0968 663.125 21.8936 664.33 21.8936C665.535 21.8936 666.739 23.0968 666.739 24.3C666.739 25.5032 665.535 26.7064 664.33 26.7064C663.125 26.7064 661.921 25.5032 661.921 24.3Z" fill="white"/>
<path opacity="0.7" d="M661.921 344.959C661.921 343.755 663.125 342.552 664.33 342.552C665.535 342.552 666.739 343.755 666.739 344.959C666.739 346.162 665.535 347.365 664.33 347.365C662.523 347.365 661.921 346.162 661.921 344.959Z" fill="white"/>
<path opacity="0.7" d="M669.15 281.79C669.15 279.985 670.957 278.18 672.764 278.18C674.571 278.18 676.377 279.985 676.377 281.79C676.377 283.595 674.571 285.399 672.764 285.399C670.354 284.798 669.15 283.595 669.15 281.79Z" fill="white"/>
<path opacity="0.7" d="M1117.85 272.164C1117.85 273.367 1117.25 273.969 1116.05 273.969C1114.84 273.969 1114.24 273.367 1114.24 272.164C1114.24 270.96 1114.84 270.359 1116.05 270.359C1116.65 270.359 1117.85 270.96 1117.85 272.164Z" fill="white"/>
<path opacity="0.7" d="M1079.31 267.952C1079.31 268.554 1078.71 269.156 1078.11 269.156C1077.5 269.156 1076.9 268.554 1076.9 267.952C1076.9 267.351 1077.5 266.749 1078.11 266.749C1078.71 266.749 1079.31 267.351 1079.31 267.952Z" fill="white"/>
<path opacity="0.7" d="M1191.94 272.164C1191.94 272.766 1191.33 273.367 1190.73 273.367C1190.13 273.367 1189.53 272.766 1189.53 272.164C1189.53 271.562 1190.13 270.961 1190.73 270.961C1191.33 270.359 1191.94 270.961 1191.94 272.164Z" fill="white"/>
<path opacity="0.7" d="M1115.45 398.502C1115.45 399.103 1114.85 399.705 1114.24 399.705C1113.64 399.705 1113.04 399.103 1113.04 398.502C1113.04 397.9 1113.64 397.298 1114.24 397.298C1114.85 397.298 1115.45 397.9 1115.45 398.502Z" fill="white"/>
<path opacity="0.7" d="M168.04 88.0707C168.04 88.6723 167.438 89.2739 166.835 89.2739C166.233 89.2739 165.631 88.6723 165.631 88.0707C165.631 87.4691 166.233 86.8675 166.835 86.8675C167.438 86.2659 168.04 86.8675 168.04 88.0707Z" fill="white"/>
<path opacity="0.7" d="M1340.1 318.488C1340.1 319.09 1339.5 319.691 1338.9 319.691C1338.3 319.691 1337.69 319.09 1337.69 318.488C1337.69 317.886 1338.3 317.285 1338.9 317.285C1339.5 316.683 1340.1 317.285 1340.1 318.488Z" fill="white"/>
<path opacity="0.7" d="M1205.19 240.88C1205.19 241.481 1204.58 242.083 1203.98 242.083C1203.38 242.083 1202.78 241.481 1202.78 240.88C1202.78 240.278 1203.38 239.676 1203.98 239.676C1204.58 239.676 1205.19 240.278 1205.19 240.88Z" fill="white"/>
<path opacity="0.7" d="M1070.28 208.994C1070.28 209.596 1069.67 210.197 1069.07 210.197C1068.47 210.197 1067.87 209.596 1067.87 208.994C1067.87 208.393 1068.47 207.791 1069.07 207.791C1069.67 207.791 1070.28 208.393 1070.28 208.994Z" fill="white"/>
<path opacity="0.7" d="M1047.99 289.61C1047.99 290.814 1047.39 291.415 1046.18 291.415C1044.98 291.415 1044.38 290.814 1044.38 289.61C1044.38 288.407 1044.98 287.805 1046.18 287.805C1046.79 287.805 1047.99 288.407 1047.99 289.61Z" fill="white"/>
<path opacity="0.7" d="M7.22749 58.5921C7.22749 60.3969 5.42063 62.2017 3.61375 62.2017C1.80688 62.2017 0 60.3969 0 58.5921C0 56.7872 1.80688 54.9824 3.61375 54.9824C6.02292 55.584 7.22749 56.7872 7.22749 58.5921Z" fill="white"/>
<path opacity="0.7" d="M946.205 240.88C946.205 242.083 945.001 243.287 943.796 243.287C942.592 243.287 941.387 242.083 941.387 240.88C941.387 239.677 942.592 238.474 943.796 238.474C945.001 238.474 946.205 239.677 946.205 240.88Z" fill="white"/>
<path opacity="0.7" d="M1043.17 225.84C1043.17 227.043 1041.97 228.246 1040.76 228.246C1039.56 228.246 1038.35 227.043 1038.35 225.84C1038.35 224.637 1039.56 223.433 1040.76 223.433C1041.97 223.433 1043.17 224.637 1043.17 225.84Z" fill="white"/>
<path opacity="0.7" d="M960.659 1.43924C960.659 2.04085 960.056 2.64246 959.454 2.64246C958.852 2.64246 958.249 2.04085 958.249 1.43924C958.249 0.837631 958.852 0.236014 959.454 0.236014C960.056 -0.365597 960.659 0.236019 960.659 1.43924Z" fill="white"/>
<path opacity="0.7" d="M1211.21 56.1849C1211.21 56.7865 1210.61 57.3882 1210.01 57.3882C1209.4 57.3882 1208.8 56.7865 1208.8 56.1849C1208.8 55.5833 1209.4 54.9817 1210.01 54.9817C1210.61 54.3801 1211.21 54.9817 1211.21 56.1849Z" fill="white"/>
<path opacity="0.7" d="M1115.45 77.844C1115.45 78.4456 1114.85 79.0473 1114.24 79.0473C1113.64 79.0473 1113.04 78.4456 1113.04 77.844C1113.04 77.2424 1113.64 76.6408 1114.24 76.6408C1114.85 76.6408 1115.45 77.2424 1115.45 77.844Z" fill="white"/>
<path opacity="0.7" d="M1108.22 157.256C1108.22 157.858 1107.62 158.46 1107.02 158.46C1106.41 158.46 1105.81 157.858 1105.81 157.256C1105.81 156.655 1106.41 156.053 1107.02 156.053C1107.62 156.053 1108.22 156.655 1108.22 157.256Z" fill="white"/>
<path opacity="0.7" d="M1045.58 48.9658C1045.58 49.5674 1044.98 50.169 1044.38 50.169C1043.77 50.169 1043.17 49.5674 1043.17 48.9658C1043.17 48.3642 1043.77 47.7626 1044.38 47.7626C1044.98 47.161 1045.58 47.7626 1045.58 48.9658Z" fill="white"/>
<path opacity="0.7" d="M1168.45 150.037C1168.45 150.639 1167.85 151.24 1167.24 151.24C1166.64 151.24 1166.04 150.639 1166.04 150.037C1166.04 149.436 1166.64 148.834 1167.24 148.834C1167.85 148.834 1168.45 149.436 1168.45 150.037Z" fill="white"/>
<path opacity="0.7" d="M1013.66 19.4869C1013.66 20.0885 1013.06 20.6901 1012.45 20.6901C1011.85 20.6901 1011.25 20.0885 1011.25 19.4869C1011.25 18.8853 1011.85 18.2837 1012.45 18.2837C1013.06 18.2837 1013.66 18.8853 1013.66 19.4869Z" fill="white"/>
<path opacity="0.7" d="M1084.13 27.9103C1084.13 29.1136 1082.92 30.3168 1081.72 30.3168C1080.51 30.3168 1079.31 29.1136 1079.31 27.9103C1079.31 26.7071 1080.51 25.5039 1081.72 25.5039C1082.92 25.5039 1084.13 26.7071 1084.13 27.9103Z" fill="white"/>
<path opacity="0.7" d="M1063.65 154.849C1063.65 156.052 1062.45 157.256 1061.24 157.256C1060.04 157.256 1058.83 156.052 1058.83 154.849C1058.83 153.646 1060.04 152.443 1061.24 152.443C1062.45 152.443 1063.65 153.646 1063.65 154.849Z" fill="white"/>
<path opacity="0.7" d="M1023.3 122.964C1023.3 124.167 1022.09 125.37 1020.89 125.37C1019.68 125.37 1018.48 124.167 1018.48 122.964C1018.48 121.761 1019.68 120.557 1020.89 120.557C1022.09 120.557 1023.3 121.159 1023.3 122.964Z" fill="white"/>
<path opacity="0.7" d="M926.326 82.055C926.326 83.2582 925.121 84.4614 923.916 84.4614C922.712 84.4614 921.507 83.2582 921.507 82.055C921.507 80.8518 922.712 79.6485 923.916 79.6485C925.121 79.6485 926.326 80.2502 926.326 82.055Z" fill="white"/>
<path opacity="0.7" d="M990.172 67.0141C990.172 68.2173 989.57 68.8189 988.366 68.8189C987.161 68.8189 986.559 68.2173 986.559 67.0141C986.559 65.8109 987.161 65.2093 988.366 65.2093C989.57 65.2093 990.172 66.4125 990.172 67.0141Z" fill="white"/>
<path opacity="0.7" d="M1098.58 304.048C1098.58 304.65 1097.98 305.251 1097.38 305.251C1096.77 305.251 1096.17 304.65 1096.17 304.048C1096.17 303.447 1096.77 302.845 1097.38 302.845C1097.98 302.243 1098.58 302.845 1098.58 304.048Z" fill="white"/>
<path opacity="0.7" d="M742.025 347.967C742.025 349.17 740.821 350.373 739.616 350.373C738.412 350.373 737.207 349.17 737.207 347.967C737.207 346.764 738.412 345.56 739.616 345.56C740.821 345.56 742.025 346.162 742.025 347.967Z" fill="white"/>
<path opacity="0.7" d="M1211.21 402.111C1211.21 402.713 1210.61 403.315 1210.01 403.315C1209.4 403.315 1208.8 402.713 1208.8 402.111C1208.8 401.51 1209.4 400.908 1210.01 400.908C1210.61 400.908 1211.21 401.51 1211.21 402.111Z" fill="white"/>
<path opacity="0.7" d="M966.681 414.746C966.681 415.949 966.079 416.55 964.874 416.55C963.67 416.55 963.067 415.949 963.067 414.746C963.067 413.542 963.67 412.941 964.874 412.941C966.079 412.941 966.681 413.542 966.681 414.746Z" fill="white"/>
<path opacity="0.7" d="M1325.05 124.769C1325.05 125.371 1324.44 125.973 1323.84 125.973C1323.24 125.973 1322.64 125.371 1322.64 124.769C1322.64 124.168 1323.24 123.566 1323.84 123.566C1324.44 122.964 1325.05 123.566 1325.05 124.769Z" fill="white"/>
<path opacity="0.7" d="M1366 369.023C1366 369.625 1365.4 370.226 1364.8 370.226C1364.19 370.226 1363.59 369.625 1363.59 369.023C1363.59 368.421 1364.19 367.82 1364.8 367.82C1365.4 367.82 1366 368.421 1366 369.023Z" fill="white"/>
<path opacity="0.7" d="M1241.33 273.366C1241.33 274.57 1240.12 275.773 1238.92 275.773C1237.71 275.773 1236.51 274.57 1236.51 273.366C1236.51 272.163 1237.71 270.96 1238.92 270.96C1240.12 270.96 1241.33 272.163 1241.33 273.366Z" fill="white"/>
<path opacity="0.7" d="M1266.02 240.88C1266.02 242.083 1264.82 243.287 1263.61 243.287C1262.41 243.287 1261.2 242.083 1261.2 240.88C1261.2 239.677 1262.41 238.474 1263.61 238.474C1265.42 238.474 1266.02 239.677 1266.02 240.88Z" fill="white"/>
<path opacity="0.7" d="M1246.15 402.112C1246.15 403.315 1244.94 404.518 1243.74 404.518C1242.53 404.518 1241.33 403.315 1241.33 402.112C1241.33 400.909 1242.53 399.706 1243.74 399.706C1244.94 399.706 1246.15 400.909 1246.15 402.112Z" fill="white"/>
<path opacity="0.7" d="M1362.99 225.84C1362.99 227.043 1361.78 228.246 1360.58 228.246C1359.37 228.246 1358.17 227.043 1358.17 225.84C1358.17 224.637 1359.37 223.433 1360.58 223.433C1362.39 223.433 1362.99 224.637 1362.99 225.84Z" fill="white"/>
<path opacity="0.7" d="M1310.59 387.673C1310.59 388.876 1309.99 389.477 1308.78 389.477C1307.58 389.477 1306.97 388.876 1306.97 387.673C1306.97 386.469 1307.58 385.868 1308.78 385.868C1309.99 385.868 1310.59 386.469 1310.59 387.673Z" fill="white"/>
<path opacity="0.7" d="M1314.2 195.76C1314.2 196.963 1313.6 197.564 1312.4 197.564C1311.19 197.564 1310.59 196.963 1310.59 195.76C1310.59 194.556 1311.19 193.955 1312.4 193.955C1313.6 193.955 1314.2 194.556 1314.2 195.76Z" fill="white"/>
<path opacity="0.7" d="M1340.1 638.488C1340.1 639.09 1339.5 639.691 1338.9 639.691C1338.3 639.691 1337.69 639.09 1337.69 638.488C1337.69 637.886 1338.3 637.285 1338.9 637.285C1339.5 636.683 1340.1 637.285 1340.1 638.488Z" fill="white"/>
<path opacity="0.7" d="M1325.05 444.769C1325.05 445.371 1324.44 445.973 1323.84 445.973C1323.24 445.973 1322.64 445.371 1322.64 444.769C1322.64 444.168 1323.24 443.566 1323.84 443.566C1324.44 442.964 1325.05 443.566 1325.05 444.769Z" fill="white"/>
<path opacity="0.7" d="M1241.33 593.366C1241.33 594.57 1240.12 595.773 1238.92 595.773C1237.71 595.773 1236.51 594.57 1236.51 593.366C1236.51 592.163 1237.71 590.96 1238.92 590.96C1240.12 590.96 1241.33 592.163 1241.33 593.366Z" fill="white"/>
<path opacity="0.7" d="M1266.02 560.88C1266.02 562.083 1264.82 563.287 1263.61 563.287C1262.41 563.287 1261.2 562.083 1261.2 560.88C1261.2 559.677 1262.41 558.474 1263.61 558.474C1265.42 558.474 1266.02 559.677 1266.02 560.88Z" fill="white"/>
<path opacity="0.7" d="M1362.99 545.84C1362.99 547.043 1361.78 548.246 1360.58 548.246C1359.37 548.246 1358.17 547.043 1358.17 545.84C1358.17 544.637 1359.37 543.433 1360.58 543.433C1362.39 543.433 1362.99 544.637 1362.99 545.84Z" fill="white"/>
<path opacity="0.7" d="M1314.2 515.76C1314.2 516.963 1313.6 517.564 1312.4 517.564C1311.19 517.564 1310.59 516.963 1310.59 515.76C1310.59 514.556 1311.19 513.955 1312.4 513.955C1313.6 513.955 1314.2 514.556 1314.2 515.76Z" fill="white"/>
<path opacity="0.7" d="M1281.08 1.43924C1281.08 2.04085 1280.48 2.64246 1279.87 2.64246C1279.27 2.64246 1278.67 2.04085 1278.67 1.43924C1278.67 0.837631 1279.27 0.236014 1279.87 0.236014C1280.48 -0.365597 1281.08 0.236019 1281.08 1.43924Z" fill="white"/>
<path opacity="0.7" d="M1366 48.9658C1366 49.5674 1365.4 50.169 1364.8 50.169C1364.19 50.169 1363.59 49.5674 1363.59 48.9658C1363.59 48.3642 1364.19 47.7626 1364.8 47.7626C1365.4 47.161 1366 47.7626 1366 48.9658Z" fill="white"/>
<path opacity="0.7" d="M1334.08 19.4869C1334.08 20.0885 1333.48 20.6901 1332.88 20.6901C1332.27 20.6901 1331.67 20.0885 1331.67 19.4869C1331.67 18.8853 1332.27 18.2837 1332.88 18.2837C1333.48 18.2837 1334.08 18.8853 1334.08 19.4869Z" fill="white"/>
<path opacity="0.7" d="M593.262 370.226C593.262 372.031 591.455 373.836 589.648 373.836C587.841 373.836 586.034 372.031 586.034 370.226C586.034 368.422 587.841 366.617 589.648 366.617C592.057 367.218 593.262 368.422 593.262 370.226Z" fill="white"/>
<g opacity="0.7">
<path opacity="0.7" d="M661.321 101.306L661.924 113.94L675.174 115.143L662.526 115.744L661.321 128.98L660.117 115.744L647.469 115.143L660.117 113.94L661.321 101.306Z" fill="white"/>
<path opacity="0.7" d="M666.741 109.127L662.525 114.542L666.741 120.558L661.32 115.745L655.297 121.159L660.116 115.143L655.297 109.127L661.32 113.94L666.741 109.127Z" fill="white"/>
</g>
<g opacity="0.7">
<path opacity="0.7" d="M524.601 75.4366L525.805 88.0705L538.453 89.2737L525.805 89.8753L524.601 103.111L523.396 89.8753L510.748 89.2737L523.396 88.0705L524.601 75.4366Z" fill="white"/>
<path opacity="0.7" d="M530.02 83.2578L525.804 89.2739L530.02 94.6884L524.6 90.4771L518.577 95.29L523.997 89.2739L518.577 83.8594L524.6 88.0707L530.02 83.2578Z" fill="white"/>
</g>
<g opacity="0.7">
<path opacity="0.7" d="M611.933 407.527L612.536 415.949L621.57 417.152H612.536L611.933 426.778L611.331 417.152H602.297L611.331 415.949L611.933 407.527Z" fill="white"/>
<path opacity="0.7" d="M615.549 412.941L612.538 416.55L615.549 420.762L611.935 417.152L607.719 420.762L611.333 416.55L607.719 412.941L611.935 415.949L615.549 412.941Z" fill="white"/>
</g>
<g opacity="0.7">
<path opacity="0.7" d="M311.388 57.9901L311.99 66.4127L321.025 67.6159H312.593L311.388 77.2417L310.786 67.6159H301.751L310.786 66.4127L311.388 57.9901Z" fill="white"/>
<path opacity="0.7" d="M315.606 63.4042L312.595 67.0138L315.606 71.2251L311.39 68.217L307.174 71.2251L310.788 67.6154L307.174 63.4042L311.39 66.4122L315.606 63.4042Z" fill="white"/>
</g>
<g opacity="0.7">
<path opacity="0.7" d="M871.52 48.3638L872.122 56.7863L881.156 57.9895H872.122L871.52 67.6153L870.917 57.9895H861.883L870.917 56.7863L871.52 48.3638Z" fill="white"/>
<path opacity="0.7" d="M875.738 53.7778L872.124 57.3875L875.738 61.5987L871.522 58.5907L867.306 61.5987L870.919 57.9891L867.306 53.7778L871.522 56.7858L875.738 53.7778Z" fill="white"/>
</g>
<g opacity="0.7">
<path opacity="0.7" d="M1129.9 372.633L1131.11 384.665L1143.76 386.47H1131.11L1129.9 400.307L1128.7 386.47H1116.05L1128.7 384.665L1129.9 372.633Z" fill="white"/>
<path opacity="0.7" d="M1135.32 379.852L1131.11 385.868L1135.32 391.884L1129.9 387.071L1123.88 391.884L1129.3 385.868L1123.88 380.453L1129.9 384.665L1135.32 379.852Z" fill="white"/>
</g>
<g opacity="0.7">
<path opacity="0.7" d="M1217.24 57.9901L1217.84 66.4127L1226.87 67.6159H1217.84L1217.24 77.2417L1216.64 67.6159H1207.6L1216.64 66.4127L1217.24 57.9901Z" fill="white"/>
<path opacity="0.7" d="M1220.85 63.4042L1217.84 67.0138L1220.85 71.2251L1217.24 68.217L1213.02 71.2251L1216.64 67.6154L1213.02 63.4042L1217.24 66.4122L1220.85 63.4042Z" fill="white"/>
</g>
<g opacity="0.7">
<path opacity="0.7" d="M1025.1 258.327L1025.71 267.351L1034.74 267.953L1025.71 268.554L1025.1 277.578L1024.5 268.554L1015.47 267.953L1024.5 267.351L1025.1 258.327Z" fill="white"/>
<path opacity="0.7" d="M1028.72 263.741L1025.71 267.952L1028.72 272.163L1025.11 268.554L1020.89 272.163L1024.5 267.952L1020.89 264.343L1025.11 267.351L1028.72 263.741Z" fill="white"/>
</g>
<g opacity="0.7">
<path opacity="0.7" d="M897.417 314.277L898.019 323.301L907.053 323.902L898.019 324.504L897.417 333.528L896.815 324.504L887.78 323.902L896.815 323.301L897.417 314.277Z" fill="white"/>
<path opacity="0.7" d="M901.033 319.691L898.021 323.902L901.033 328.113L897.419 324.504L893.203 328.113L896.817 323.902L893.203 320.292L897.419 323.3L901.033 319.691Z" fill="white"/>
</g>
<g opacity="0.7">
<path opacity="0.7" d="M952.229 76.0387L953.433 84.4613L961.865 85.6645H953.433L952.229 95.2902L951.626 85.6645H942.592L951.626 84.4613L952.229 76.0387Z" fill="white"/>
<path opacity="0.7" d="M956.446 81.4527L953.435 85.0624L956.446 89.2737L952.833 86.2656L948.014 89.2737L951.628 85.664L948.014 81.4527L952.23 84.4608L956.446 81.4527Z" fill="white"/>
</g>
<path opacity="0.7" d="M1155.04 740.568C1155.04 739.365 1155.64 738.763 1156.85 738.763C1158.05 738.763 1158.66 739.365 1158.66 740.568C1158.66 741.771 1158.05 742.373 1156.85 742.373C1156.25 742.373 1155.04 741.771 1155.04 740.568Z" fill="white"/>
<path opacity="0.7" d="M1081.06 736.568C1081.06 735.966 1081.66 735.364 1082.27 735.364C1082.87 735.364 1083.47 735.966 1083.47 736.568C1083.47 737.169 1082.87 737.771 1082.27 737.771C1081.66 738.372 1081.06 737.771 1081.06 736.568Z" fill="white"/>
<path opacity="0.7" d="M1232.4 647.686C1232.4 647.084 1233 646.483 1233.6 646.483C1234.21 646.483 1234.81 647.084 1234.81 647.686C1234.81 648.287 1234.21 648.889 1233.6 648.889C1233 648.889 1232.4 648.287 1232.4 647.686Z" fill="white"/>
<path opacity="0.7" d="M394.888 676.271C394.888 675.669 395.49 675.068 396.092 675.068C396.695 675.068 397.297 675.669 397.297 676.271C397.297 676.872 396.695 677.474 396.092 677.474C395.49 677.474 394.888 676.872 394.888 676.271Z" fill="white"/>
<path opacity="0.7" d="M1061.59 807.218C1061.59 806.617 1062.2 806.015 1062.8 806.015C1063.4 806.015 1064 806.617 1064 807.218C1064 807.82 1063.4 808.421 1062.8 808.421C1062.2 808.421 1061.59 807.82 1061.59 807.218Z" fill="white"/>
<path opacity="0.7" d="M1066.16 767.098C1066.16 766.496 1066.76 765.895 1067.36 765.895C1067.97 765.895 1068.57 766.496 1068.57 767.098C1068.57 767.699 1067.97 768.301 1067.36 768.301C1066.76 768.301 1066.16 767.699 1066.16 767.098Z" fill="white"/>
<path opacity="0.7" d="M1000.18 973.855C1000.18 972.652 1000.79 972.051 1001.99 972.051C1003.19 972.051 1003.8 972.652 1003.8 973.855C1003.8 975.059 1003.19 975.66 1001.99 975.66C1000.79 975.66 1000.18 974.457 1000.18 973.855Z" fill="white"/>
<path opacity="0.7" d="M1008.74 690.581C1008.74 689.378 1009.95 688.174 1011.15 688.174C1012.36 688.174 1013.56 689.378 1013.56 690.581C1013.56 691.784 1012.36 692.987 1011.15 692.987C1009.35 692.987 1008.74 691.784 1008.74 690.581Z" fill="white"/>
<path opacity="0.7" d="M1099.05 997.263C1099.05 996.06 1100.26 994.857 1101.46 994.857C1102.66 994.857 1103.87 996.06 1103.87 997.263C1103.87 998.467 1102.66 999.67 1101.46 999.67C1100.26 999.67 1099.05 999.068 1099.05 997.263Z" fill="white"/>
<path opacity="0.7" d="M1309.42 808.524C1309.42 807.321 1310.63 806.118 1311.83 806.118C1313.04 806.118 1314.24 807.321 1314.24 808.524C1314.24 809.728 1313.04 810.931 1311.83 810.931C1310.63 810.931 1309.42 809.728 1309.42 808.524Z" fill="white"/>
<path opacity="0.7" d="M1353.85 621.128C1353.85 619.924 1355.06 618.721 1356.26 618.721C1357.47 618.721 1358.67 619.924 1358.67 621.128C1358.67 622.331 1357.47 623.534 1356.26 623.534C1354.46 623.534 1353.85 622.331 1353.85 621.128Z" fill="white"/>
<path opacity="0.7" d="M1227.14 790.857C1227.14 789.654 1228.34 788.451 1229.54 788.451C1230.75 788.451 1231.95 789.654 1231.95 790.857C1231.95 792.06 1230.75 793.263 1229.54 793.263C1228.34 793.263 1227.14 792.06 1227.14 790.857Z" fill="white"/>
<path opacity="0.7" d="M1288.73 632.062C1288.73 630.859 1289.33 630.258 1290.53 630.258C1291.74 630.258 1292.34 630.859 1292.34 632.062C1292.34 633.266 1291.74 633.867 1290.53 633.867C1289.33 633.867 1288.73 633.266 1288.73 632.062Z" fill="white"/>
<path opacity="0.7" d="M1243.96 870.652C1243.96 869.449 1244.57 868.847 1245.77 868.847C1246.98 868.847 1247.58 869.449 1247.58 870.652C1247.58 871.855 1246.98 872.457 1245.77 872.457C1244.57 872.457 1243.96 871.254 1243.96 870.652Z" fill="white"/>
<path opacity="0.7" d="M598.496 883.598C598.496 882.996 599.099 882.395 599.701 882.395C600.303 882.395 600.906 882.996 600.906 883.598C600.906 884.199 600.303 884.801 599.701 884.801C599.099 884.801 598.496 884.801 598.496 883.598Z" fill="white"/>
<path opacity="0.7" d="M1147.04 934.705C1147.04 934.104 1147.64 933.502 1148.24 933.502C1148.85 933.502 1149.45 934.104 1149.45 934.705C1149.45 935.307 1148.85 935.908 1148.24 935.908C1147.64 935.908 1147.04 935.307 1147.04 934.705Z" fill="white"/>
<path opacity="0.7" d="M1097.98 859.777C1097.98 859.176 1098.58 858.574 1099.18 858.574C1099.79 858.574 1100.39 859.176 1100.39 859.777C1100.39 860.379 1099.79 860.98 1099.18 860.98C1098.58 860.98 1097.98 860.379 1097.98 859.777Z" fill="white"/>
<path opacity="0.7" d="M1209.15 597.638C1209.15 597.036 1209.75 596.435 1210.35 596.435C1210.96 596.435 1211.56 597.036 1211.56 597.638C1211.56 598.24 1210.96 598.841 1210.35 598.841C1209.75 598.841 1209.15 598.24 1209.15 597.638Z" fill="white"/>
<path opacity="0.7" d="M1175.64 986.309C1175.64 985.106 1176.84 983.903 1178.05 983.903C1179.25 983.903 1180.46 985.106 1180.46 986.309C1180.46 987.512 1179.25 988.716 1178.05 988.716C1176.84 988.716 1175.64 987.512 1175.64 986.309Z" fill="white"/>
<path opacity="0.7" d="M662.612 902.766C662.612 901.562 663.816 900.359 665.021 900.359C666.226 900.359 667.43 901.562 667.43 902.766C667.43 903.969 666.226 905.172 665.021 905.172C663.214 905.172 662.612 904.571 662.612 902.766Z" fill="white"/>
<path opacity="0.7" d="M1350.21 655.242C1350.21 654.039 1350.82 653.437 1352.02 653.437C1353.23 653.437 1353.83 654.039 1353.83 655.242C1353.83 656.445 1353.23 657.047 1352.02 657.047C1350.82 657.047 1350.21 656.445 1350.21 655.242Z" fill="white"/>
<path opacity="0.7" d="M1071.65 642.206C1071.65 640.401 1073.46 638.596 1075.27 638.596C1077.07 638.596 1078.88 640.401 1078.88 642.206C1078.88 644.011 1077.07 645.815 1075.27 645.815C1073.46 645.214 1071.65 644.011 1071.65 642.206Z" fill="white"/>
<path opacity="0.7" d="M1175.99 709.729C1175.99 709.127 1176.59 708.526 1177.19 708.526C1177.8 708.526 1178.4 709.127 1178.4 709.729C1178.4 710.33 1177.8 710.932 1177.19 710.932C1176.59 711.534 1175.99 710.932 1175.99 709.729Z" fill="white"/>
<path opacity="0.7" d="M1107.4 605.436C1107.4 604.835 1108 604.233 1108.6 604.233C1109.2 604.233 1109.81 604.835 1109.81 605.436C1109.81 606.038 1109.2 606.639 1108.6 606.639C1108 606.639 1107.4 606.038 1107.4 605.436Z" fill="white"/>
<path opacity="0.7" d="M519.107 710.647C519.107 710.045 519.709 709.444 520.312 709.444C520.914 709.444 521.516 710.045 521.516 710.647C521.516 711.248 520.914 711.85 520.312 711.85C519.709 711.85 519.107 711.248 519.107 710.647Z" fill="white"/>
<path opacity="0.7" d="M490.012 578.35C490.012 577.748 490.615 577.147 491.217 577.147C491.819 577.147 492.421 577.748 492.421 578.35C492.421 578.951 491.819 579.553 491.217 579.553C490.615 579.553 490.012 578.951 490.012 578.35Z" fill="white"/>
<path opacity="0.7" d="M671.226 595.9C671.226 595.298 671.828 594.697 672.43 594.697C673.033 594.697 673.635 595.298 673.635 595.9C673.635 596.501 673.033 597.103 672.43 597.103C671.828 597.103 671.226 596.501 671.226 595.9Z" fill="white"/>
<path opacity="0.7" d="M415.213 634.585C415.213 633.983 415.815 633.382 416.417 633.382C417.019 633.382 417.622 633.983 417.622 634.585C417.622 635.187 417.019 635.788 416.417 635.788C415.815 636.39 415.213 635.788 415.213 634.585Z" fill="white"/>
<path opacity="0.7" d="M518.608 629.953C518.608 628.75 519.813 627.547 521.017 627.547C522.222 627.547 523.427 628.75 523.427 629.953C523.427 631.157 522.222 632.36 521.017 632.36C519.813 632.36 518.608 631.157 518.608 629.953Z" fill="white"/>
<path opacity="0.7" d="M552.937 754.699C552.937 753.496 554.141 752.292 555.346 752.292C556.551 752.292 557.755 753.496 557.755 754.699C557.755 755.902 556.551 757.105 555.346 757.105C554.141 757.105 552.937 755.902 552.937 754.699Z" fill="white"/>
<path opacity="0.7" d="M522.595 566.842C522.595 566.24 523.198 565.639 523.8 565.639C524.402 565.639 525.005 566.24 525.005 566.842C525.005 567.444 524.402 568.045 523.8 568.045C523.198 568.045 522.595 567.444 522.595 566.842Z" fill="white"/>
<path opacity="0.7" d="M472.84 898.547C472.84 897.945 473.442 897.344 474.044 897.344C474.647 897.344 475.249 897.945 475.249 898.547C475.249 899.149 474.647 899.75 474.044 899.75C473.442 899.75 472.84 899.149 472.84 898.547Z" fill="white"/>
<path opacity="0.7" d="M484.311 819.636C484.311 819.034 484.913 818.433 485.516 818.433C486.118 818.433 486.72 819.034 486.72 819.636C486.72 820.237 486.118 820.839 485.516 820.839C484.913 820.839 484.311 820.237 484.311 819.636Z" fill="white"/>
<path opacity="0.7" d="M541.051 931.125C541.051 930.523 541.653 929.922 542.255 929.922C542.857 929.922 543.46 930.523 543.46 931.125C543.46 931.727 542.857 932.328 542.255 932.328C541.653 932.93 541.051 932.328 541.051 931.125Z" fill="white"/>
<path opacity="0.7" d="M501.436 950.151C501.436 948.947 502.64 947.744 503.845 947.744C505.049 947.744 506.254 948.947 506.254 950.151C506.254 951.354 505.049 952.557 503.845 952.557C502.64 952.557 501.436 951.354 501.436 950.151Z" fill="white"/>
<path opacity="0.7" d="M612.178 774.746C612.178 773.542 613.382 772.339 614.587 772.339C615.792 772.339 616.996 773.542 616.996 774.746C616.996 775.949 615.792 777.152 614.587 777.152C613.382 777.152 612.178 775.949 612.178 774.746Z" fill="white"/>
<path opacity="0.7" d="M648.479 682.642C648.479 682.04 649.082 681.438 649.684 681.438C650.286 681.438 650.888 682.04 650.888 682.642C650.888 683.243 650.286 683.845 649.684 683.845C649.082 683.845 648.479 683.243 648.479 682.642Z" fill="white"/>
<path opacity="0.7" d="M1313.63 606.287C1313.63 605.083 1314.24 604.482 1315.44 604.482C1316.65 604.482 1317.25 605.083 1317.25 606.287C1317.25 607.49 1316.65 608.091 1315.44 608.091C1314.24 608.091 1313.63 607.49 1313.63 606.287Z" fill="white"/>
<path opacity="0.7" d="M832.134 722.142C832.134 720.337 833.941 718.533 835.748 718.533C837.555 718.533 839.362 720.337 839.362 722.142C839.362 723.947 837.555 725.752 835.748 725.752C833.941 725.15 832.134 723.947 832.134 722.142Z" fill="white"/>
<path opacity="0.7" d="M873.949 729.677C873.949 729.076 874.551 728.474 875.153 728.474C875.756 728.474 876.358 729.076 876.358 729.677C876.358 730.279 875.756 730.881 875.153 730.881C874.551 730.881 873.949 730.279 873.949 729.677Z" fill="white"/>
<path opacity="0.7" d="M940.249 876.622C940.249 876.021 940.851 875.419 941.454 875.419C942.056 875.419 942.658 876.021 942.658 876.622C942.658 877.224 942.056 877.826 941.454 877.826C940.851 878.427 940.249 877.826 940.249 876.622Z" fill="white"/>
<path opacity="0.7" d="M844.255 597.348C844.255 596.747 844.857 596.145 845.46 596.145C846.062 596.145 846.664 596.747 846.664 597.348C846.664 597.95 846.062 598.551 845.46 598.551C844.857 598.551 844.255 597.95 844.255 597.348Z" fill="white"/>
<path opacity="0.7" d="M912.44 630.526C912.44 629.924 913.043 629.323 913.645 629.323C914.247 629.323 914.849 629.924 914.849 630.526C914.849 631.128 914.247 631.729 913.645 631.729C913.043 631.729 912.44 631.128 912.44 630.526Z" fill="white"/>
<path opacity="0.7" d="M755.703 572.717C755.703 572.116 756.306 571.514 756.908 571.514C757.51 571.514 758.112 572.116 758.112 572.717C758.112 573.319 757.51 573.921 756.908 573.921C756.306 573.921 755.703 573.319 755.703 572.717Z" fill="white"/>
<path opacity="0.7" d="M943.366 661.104C943.366 660.503 943.968 659.901 944.57 659.901C945.173 659.901 945.775 660.503 945.775 661.104C945.775 661.706 945.173 662.308 944.57 662.308C943.968 662.909 943.366 662.308 943.366 661.104Z" fill="white"/>
<path opacity="0.7" d="M746.199 749.938C746.199 749.336 746.801 748.735 747.403 748.735C748.006 748.735 748.608 749.336 748.608 749.938C748.608 750.539 748.006 751.141 747.403 751.141C746.801 751.141 746.199 750.539 746.199 749.938Z" fill="white"/>
<path opacity="0.7" d="M879.813 789.035C879.813 788.433 880.415 787.832 881.018 787.832C881.62 787.832 882.222 788.433 882.222 789.035C882.222 789.636 881.62 790.238 881.018 790.238C880.415 790.238 879.813 789.636 879.813 789.035Z" fill="white"/>
<path opacity="0.7" d="M1031.81 732.787C1031.81 731.583 1033.01 730.38 1034.22 730.38C1035.42 730.38 1036.63 731.583 1036.63 732.787C1036.63 733.99 1035.42 735.193 1034.22 735.193C1033.01 735.193 1031.81 733.99 1031.81 732.787Z" fill="white"/>
<path opacity="0.7" d="M1005.41 763.904C1005.41 762.701 1006.62 761.497 1007.82 761.497C1009.03 761.497 1010.23 762.701 1010.23 763.904C1010.23 765.107 1009.03 766.31 1007.82 766.31C1006.62 766.31 1005.41 765.107 1005.41 763.904Z" fill="white"/>
<path opacity="0.7" d="M1033.89 603.968C1033.89 602.764 1035.1 601.561 1036.3 601.561C1037.51 601.561 1038.71 602.764 1038.71 603.968C1038.71 605.171 1037.51 606.374 1036.3 606.374C1035.1 606.374 1033.89 605.171 1033.89 603.968Z" fill="white"/>
<path opacity="0.7" d="M907.78 773.73C907.78 772.526 908.984 771.323 910.189 771.323C911.394 771.323 912.598 772.526 912.598 773.73C912.598 774.933 911.394 776.136 910.189 776.136C908.984 776.136 907.78 774.933 907.78 773.73Z" fill="white"/>
<path opacity="0.7" d="M968.772 614.903C968.772 613.7 969.374 613.098 970.578 613.098C971.783 613.098 972.385 613.7 972.385 614.903C972.385 616.106 971.783 616.708 970.578 616.708C969.374 616.708 968.772 616.106 968.772 614.903Z" fill="white"/>
<path opacity="0.7" d="M790.048 674.699C790.048 672.894 791.855 671.09 793.662 671.09C795.469 671.09 797.276 672.894 797.276 674.699C797.276 676.504 795.469 678.309 793.662 678.309C791.253 678.309 790.048 677.106 790.048 674.699Z" fill="white"/>
<path opacity="0.7" d="M954.882 806.347C954.882 805.144 955.484 804.542 956.689 804.542C957.893 804.542 958.496 805.144 958.496 806.347C958.496 807.55 957.893 808.152 956.689 808.152C956.087 808.152 954.882 807.55 954.882 806.347Z" fill="white"/>
<path opacity="0.7" d="M977.547 1002.13C977.547 1001.53 978.149 1000.93 978.752 1000.93C979.354 1000.93 979.956 1001.53 979.956 1002.13C979.956 1002.73 979.354 1003.33 978.752 1003.33C978.149 1003.93 977.547 1003.33 977.547 1002.13Z" fill="white"/>
<path opacity="0.7" d="M983.025 877.711C983.025 877.109 983.627 876.508 984.229 876.508C984.831 876.508 985.434 877.109 985.434 877.711C985.434 878.313 984.831 878.914 984.229 878.914C983.627 878.914 983.025 878.313 983.025 877.711Z" fill="white"/>
<path opacity="0.7" d="M827.082 917.546C827.082 916.944 827.685 916.342 828.287 916.342C828.889 916.342 829.492 916.944 829.492 917.546C829.492 918.147 828.889 918.749 828.287 918.749C827.685 918.749 827.082 918.147 827.082 917.546Z" fill="white"/>
<path opacity="0.7" d="M838.549 838.634C838.549 838.032 839.151 837.431 839.753 837.431C840.355 837.431 840.958 838.032 840.958 838.634C840.958 839.236 840.355 839.837 839.753 839.837C839.151 839.837 838.549 839.236 838.549 838.634Z" fill="white"/>
<path opacity="0.7" d="M895.294 950.124C895.294 949.522 895.896 948.92 896.498 948.92C897.1 948.92 897.703 949.522 897.703 950.124C897.703 950.725 897.1 951.327 896.498 951.327C895.896 951.928 895.294 951.327 895.294 950.124Z" fill="white"/>
<path opacity="0.7" d="M779.224 841.414C778.558 841.414 778.019 841.953 778.019 842.617C778.019 843.282 778.558 843.821 779.224 843.821C779.889 843.821 780.428 843.282 780.428 842.617C780.428 841.953 779.889 841.414 779.224 841.414Z" fill="white"/>
<path opacity="0.7" d="M925.595 981.27C925.595 980.668 926.198 980.067 926.8 980.067C927.402 980.067 928.005 980.668 928.005 981.27C928.005 981.872 927.402 982.473 926.8 982.473C926.198 982.473 925.595 981.872 925.595 981.27Z" fill="white"/>
<path opacity="0.7" d="M1327.21 1016.79C1327.21 1014.99 1329.01 1013.19 1330.82 1013.19C1332.63 1013.19 1334.43 1014.99 1334.43 1016.79C1334.43 1018.6 1332.63 1020.4 1330.82 1020.4C1328.41 1020.4 1327.21 1018.6 1327.21 1016.79Z" fill="white"/>
<path opacity="0.7" d="M856.279 969.181C856.279 967.978 857.483 966.775 858.688 966.775C859.892 966.775 861.097 967.978 861.097 969.181C861.097 970.385 859.892 971.588 858.688 971.588C857.483 971.588 856.279 970.385 856.279 969.181Z" fill="white"/>
<path opacity="0.7" d="M883.527 843.522C883.527 842.318 884.731 841.115 885.936 841.115C887.141 841.115 888.345 842.318 888.345 843.522C888.345 844.725 887.141 845.928 885.936 845.928C884.129 845.928 883.527 844.725 883.527 843.522Z" fill="white"/>
<path opacity="0.7" d="M922.116 877.522C922.116 876.319 923.321 875.116 924.526 875.116C925.73 875.116 926.935 876.319 926.935 877.522C926.935 878.726 925.73 879.929 924.526 879.929C922.719 879.929 922.116 879.327 922.116 877.522Z" fill="white"/>
<path opacity="0.7" d="M1016.75 923.565C1016.75 922.362 1017.96 921.159 1019.16 921.159C1020.37 921.159 1021.57 922.362 1021.57 923.565C1021.57 924.769 1020.37 925.972 1019.16 925.972C1017.96 925.972 1016.75 925.37 1016.75 923.565Z" fill="white"/>
<path opacity="0.7" d="M951.599 935.101C951.599 933.898 952.201 933.297 953.406 933.297C954.61 933.297 955.213 933.898 955.213 935.101C955.213 936.305 954.61 936.906 953.406 936.906C952.201 936.906 951.599 935.703 951.599 935.101Z" fill="white"/>
<path opacity="0.7" d="M986.877 850.839C986.877 849.636 987.48 849.034 988.684 849.034C989.889 849.034 990.491 849.636 990.491 850.839C990.491 852.042 989.889 852.644 988.684 852.644C988.082 852.644 986.877 852.042 986.877 850.839Z" fill="white"/>
<path opacity="0.7" d="M877.029 885.916C877.029 884.713 877.631 884.112 878.836 884.112C880.04 884.112 880.643 884.713 880.643 885.916C880.643 887.12 880.04 887.721 878.836 887.721C878.234 887.721 877.029 887.12 877.029 885.916Z" fill="white"/>
<path opacity="0.7" d="M1027.35 860.939C1027.35 859.134 1029.16 857.33 1030.97 857.33C1032.77 857.33 1034.58 859.134 1034.58 860.939C1034.58 862.744 1032.77 864.549 1030.97 864.549C1028.56 864.549 1027.35 862.744 1027.35 860.939Z" fill="white"/>
<path opacity="0.7" d="M861.556 645.872C861.556 645.27 862.158 644.668 862.76 644.668C863.363 644.668 863.965 645.27 863.965 645.872C863.965 646.473 863.363 647.075 862.76 647.075C862.158 647.075 861.556 646.473 861.556 645.872Z" fill="white"/>
<path opacity="0.7" d="M994.278 589.159C994.278 587.956 994.881 587.354 996.085 587.354C997.29 587.354 997.892 587.956 997.892 589.159C997.892 590.362 997.29 590.964 996.085 590.964C994.881 590.964 994.278 590.362 994.278 589.159Z" fill="white"/>
<path opacity="0.7" d="M792.747 939.201C792.747 938.6 793.35 937.998 793.952 937.998C794.554 937.998 795.156 938.6 795.156 939.201C795.156 939.803 794.554 940.405 793.952 940.405C793.35 940.405 792.747 939.803 792.747 939.201Z" fill="white"/>
<path opacity="0.7" d="M815.132 791.72C815.132 789.915 816.939 788.11 818.746 788.11C820.553 788.11 822.36 789.915 822.36 791.72C822.36 793.524 820.553 795.329 818.746 795.329C816.939 795.329 815.132 793.524 815.132 791.72Z" fill="white"/>
<path opacity="0.7" d="M778.49 845.118C778.49 843.914 779.695 842.711 780.899 842.711C782.104 842.711 783.309 843.914 783.309 845.118C783.309 846.321 782.104 847.524 780.899 847.524C779.092 847.524 778.49 846.321 778.49 845.118Z" fill="white"/>
<path opacity="0.7" d="M732 936.008C732 934.805 733.205 933.602 734.409 933.602C735.614 933.602 736.818 934.805 736.818 936.008C736.818 937.211 735.614 938.415 734.409 938.415C732.602 938.415 732 937.211 732 936.008Z" fill="white"/>
<path opacity="0.7" d="M760.514 775.472C760.514 774.269 761.718 773.065 762.923 773.065C764.128 773.065 765.332 774.269 765.332 775.472C765.332 776.675 764.128 777.878 762.923 777.878C761.718 777.878 760.514 776.675 760.514 775.472Z" fill="white"/>
<path opacity="0.7" d="M720.262 761.231C720.262 760.028 720.864 759.426 722.068 759.426C723.273 759.426 723.875 760.028 723.875 761.231C723.875 762.434 723.273 763.036 722.068 763.036C721.466 763.036 720.262 761.832 720.262 761.231Z" fill="white"/>
<path opacity="0.7" d="M541.519 821.37C541.519 821.971 540.917 822.573 540.314 822.573C539.712 822.573 539.11 821.971 539.11 821.37C539.11 820.768 539.712 820.167 540.314 820.167C540.917 819.565 541.519 820.167 541.519 821.37Z" fill="white"/>
<path opacity="0.7" d="M570.606 953.667C570.606 954.269 570.004 954.87 569.402 954.87C568.799 954.87 568.197 954.269 568.197 953.667C568.197 953.065 568.799 952.464 569.402 952.464C570.004 952.464 570.606 952.464 570.606 953.667Z" fill="white"/>
<path opacity="0.7" d="M669.294 800.508C669.294 801.11 668.691 801.712 668.089 801.712C667.487 801.712 666.884 801.11 666.884 800.508C666.884 799.907 667.487 799.305 668.089 799.305C668.691 799.305 669.294 799.907 669.294 800.508Z" fill="white"/>
<path opacity="0.7" d="M646.304 947.958C646.304 949.763 644.497 951.568 642.69 951.568C640.884 951.568 639.077 949.763 639.077 947.958C639.077 946.153 640.884 944.348 642.69 944.348C644.497 944.348 646.304 946.153 646.304 947.958Z" fill="white"/>
<path opacity="0.7" d="M542.039 901.462C542.039 902.666 540.834 903.869 539.63 903.869C538.425 903.869 537.221 902.666 537.221 901.462C537.221 900.259 538.425 899.056 539.63 899.056C540.834 899.056 542.039 900.259 542.039 901.462Z" fill="white"/>
<path opacity="0.7" d="M576.341 711.78C576.341 712.382 575.738 712.983 575.136 712.983C574.534 712.983 573.931 712.382 573.931 711.78C573.931 711.178 574.534 710.577 575.136 710.577C575.738 710.577 576.341 711.178 576.341 711.78Z" fill="white"/>
<path opacity="0.7" d="M559.179 581.865C559.179 583.068 557.975 584.272 556.77 584.272C555.566 584.272 554.361 583.068 554.361 581.865C554.361 580.662 555.566 579.459 556.77 579.459C557.975 579.459 559.179 580.06 559.179 581.865Z" fill="white"/>
<path opacity="0.7" d="M1097.42 948.785C1097.42 949.386 1096.82 949.988 1096.22 949.988C1095.62 949.988 1095.02 949.386 1095.02 948.785C1095.02 948.183 1095.62 947.582 1096.22 947.582C1096.82 947.582 1097.42 948.183 1097.42 948.785Z" fill="white"/>
<path opacity="0.7" d="M646.871 881.178C646.871 882.382 645.666 883.585 644.462 883.585C643.257 883.585 642.053 882.382 642.053 881.178C642.053 879.975 643.257 878.772 644.462 878.772C645.666 878.772 646.871 879.975 646.871 881.178Z" fill="white"/>
<path opacity="0.7" d="M700.926 964.207C700.926 965.41 699.721 966.613 698.517 966.613C697.312 966.613 696.107 965.41 696.107 964.207C696.107 963.004 697.312 961.8 698.517 961.8C699.721 961.8 700.926 963.004 700.926 964.207Z" fill="white"/>
<path opacity="0.7" d="M718.098 644.008C718.098 645.212 716.894 646.415 715.689 646.415C714.485 646.415 713.28 645.212 713.28 644.008C713.28 642.805 714.485 641.602 715.689 641.602C717.496 641.602 718.098 642.805 718.098 644.008Z" fill="white"/>
<path opacity="0.7" d="M707.499 706.635C707.499 708.44 705.692 710.245 703.885 710.245C702.078 710.245 700.271 708.44 700.271 706.635C700.271 704.83 702.078 703.025 703.885 703.025C706.294 703.627 707.499 704.83 707.499 706.635Z" fill="white"/>
<path opacity="0.7" d="M258.915 692.507C258.915 691.304 259.517 690.703 260.722 690.703C261.927 690.703 262.529 691.304 262.529 692.507C262.529 693.711 261.927 694.312 260.722 694.312C260.12 694.312 258.915 693.711 258.915 692.507Z" fill="white"/>
<path opacity="0.7" d="M297.177 698.744C297.177 698.143 297.78 697.541 298.382 697.541C298.984 697.541 299.587 698.143 299.587 698.744C299.587 699.346 298.984 699.948 298.382 699.948C297.78 699.948 297.177 699.346 297.177 698.744Z" fill="white"/>
<path opacity="0.7" d="M184.933 688.507C184.933 687.906 185.536 687.304 186.138 687.304C186.74 687.304 187.342 687.906 187.342 688.507C187.342 689.109 186.74 689.71 186.138 689.71C185.536 690.312 184.933 689.71 184.933 688.507Z" fill="white"/>
<path opacity="0.7" d="M268.084 566.447C268.084 565.846 268.686 565.244 269.288 565.244C269.891 565.244 270.493 565.846 270.493 566.447C270.493 567.049 269.891 567.651 269.288 567.651C268.686 567.651 268.084 567.049 268.084 566.447Z" fill="white"/>
<path opacity="0.7" d="M1197.5 927.17C1197.5 926.569 1198.1 925.967 1198.71 925.967C1199.31 925.967 1199.91 926.569 1199.91 927.17C1199.91 927.772 1199.31 928.374 1198.71 928.374C1198.1 928.975 1197.5 928.374 1197.5 927.17Z" fill="white"/>
<path opacity="0.7" d="M39.4608 634.315C39.4608 633.713 40.0631 633.111 40.6654 633.111C41.2676 633.111 41.8699 633.713 41.8699 634.315C41.8699 634.916 41.2676 635.518 40.6654 635.518C40.0631 636.12 39.4608 635.518 39.4608 634.315Z" fill="white"/>
<path opacity="0.7" d="M170.033 719.037C170.033 718.436 170.635 717.834 171.237 717.834C171.84 717.834 172.442 718.436 172.442 719.037C172.442 719.639 171.84 720.241 171.237 720.241C170.635 720.241 170.033 719.639 170.033 719.037Z" fill="white"/>
<path opacity="0.7" d="M303.042 758.102C303.042 757.5 303.644 756.899 304.246 756.899C304.849 756.899 305.451 757.5 305.451 758.102C305.451 758.704 304.849 759.305 304.246 759.305C303.644 759.305 303.042 758.704 303.042 758.102Z" fill="white"/>
<path opacity="0.7" d="M329.613 678.827C329.613 677.624 330.215 677.022 331.42 677.022C332.625 677.022 333.227 677.624 333.227 678.827C333.227 680.031 332.625 680.632 331.42 680.632C330.818 680.632 329.613 680.031 329.613 678.827Z" fill="white"/>
<path opacity="0.7" d="M1356.51 965.348C1356.51 963.543 1358.31 961.738 1360.12 961.738C1361.93 961.738 1363.74 963.543 1363.74 965.348C1363.74 967.153 1361.93 968.958 1360.12 968.958C1357.71 968.356 1356.51 967.153 1356.51 965.348Z" fill="white"/>
<path opacity="0.7" d="M428.641 732.971C428.641 731.768 429.846 730.564 431.05 730.564C432.255 730.564 433.46 731.768 433.46 732.971C433.46 734.174 432.255 735.377 431.05 735.377C429.846 735.377 428.641 734.174 428.641 732.971Z" fill="white"/>
<path opacity="0.7" d="M331.009 742.797C331.009 741.593 332.213 740.39 333.418 740.39C334.622 740.39 335.827 741.593 335.827 742.797C335.827 744 334.622 745.203 333.418 745.203C332.213 745.203 331.009 744 331.009 742.797Z" fill="white"/>
<path opacity="0.7" d="M401.381 971.229C401.381 970.628 401.983 970.026 402.586 970.026C403.188 970.026 403.79 970.628 403.79 971.229C403.79 971.831 403.188 972.433 402.586 972.433C401.983 973.034 401.381 972.433 401.381 971.229Z" fill="white"/>
<path opacity="0.7" d="M154.121 903.144C154.121 902.543 154.723 901.941 155.326 901.941C155.928 901.941 156.53 902.543 156.53 903.144C156.53 903.746 155.928 904.347 155.326 904.347C154.723 904.949 154.121 904.347 154.121 903.144Z" fill="white"/>
<path opacity="0.7" d="M250.911 886.645C250.911 886.043 251.513 885.442 252.116 885.442C252.718 885.442 253.32 886.043 253.32 886.645C253.32 887.246 252.718 887.848 252.116 887.848C251.513 887.848 250.911 887.246 250.911 886.645Z" fill="white"/>
<path opacity="0.7" d="M262.381 807.734C262.381 807.132 262.984 806.53 263.586 806.53C264.188 806.53 264.791 807.132 264.791 807.734C264.791 808.335 264.188 808.937 263.586 808.937C262.984 808.937 262.381 808.335 262.381 807.734Z" fill="white"/>
<path opacity="0.7" d="M319.126 919.223C319.126 918.622 319.729 918.02 320.331 918.02C320.933 918.02 321.535 918.622 321.535 919.223C321.535 919.825 320.933 920.426 320.331 920.426C319.729 921.028 319.126 920.426 319.126 919.223Z" fill="white"/>
<path opacity="0.7" d="M201.853 811.717C201.853 811.115 202.455 810.513 203.057 810.513C203.66 810.513 204.262 811.115 204.262 811.717C204.262 812.318 203.66 812.92 203.057 812.92C202.455 812.92 201.853 812.318 201.853 811.717Z" fill="white"/>
<path opacity="0.7" d="M349.429 950.369C349.429 949.768 350.032 949.166 350.634 949.166C351.236 949.166 351.839 949.768 351.839 950.369C351.839 950.971 351.236 951.573 350.634 951.573C350.032 951.573 349.429 950.971 349.429 950.369Z" fill="white"/>
<path opacity="0.7" d="M279.512 938.249C279.512 937.046 280.717 935.842 281.922 935.842C283.126 935.842 284.331 937.046 284.331 938.249C284.331 939.452 283.126 940.655 281.922 940.655C280.717 940.655 279.512 939.452 279.512 938.249Z" fill="white"/>
<path opacity="0.7" d="M306.756 812.589C306.756 811.385 307.96 810.182 309.165 810.182C310.369 810.182 311.574 811.385 311.574 812.589C311.574 813.792 310.369 814.995 309.165 814.995C307.96 814.995 306.756 813.792 306.756 812.589Z" fill="white"/>
<path opacity="0.7" d="M345.345 846.589C345.345 845.386 346.55 844.183 347.754 844.183C348.959 844.183 350.163 845.386 350.163 846.589C350.163 847.792 348.959 848.996 347.754 848.996C346.55 848.996 345.345 848.394 345.345 846.589Z" fill="white"/>
<path opacity="0.7" d="M439.987 892.633C439.987 891.429 441.191 890.226 442.396 890.226C443.6 890.226 444.805 891.429 444.805 892.633C444.805 893.836 443.6 895.039 442.396 895.039C441.191 895.039 439.987 894.437 439.987 892.633Z" fill="white"/>
<path opacity="0.7" d="M375.427 904.201C375.427 902.997 376.029 902.396 377.234 902.396C378.438 902.396 379.04 902.997 379.04 904.201C379.04 905.404 378.438 906.005 377.234 906.005C376.029 906.005 375.427 904.802 375.427 904.201Z" fill="white"/>
<path opacity="0.7" d="M279.863 661.668C279.863 661.067 280.465 660.465 281.067 660.465C281.67 660.465 282.272 661.067 282.272 661.668C282.272 662.27 281.67 662.872 281.067 662.872C280.465 663.473 279.863 662.872 279.863 661.668Z" fill="white"/>
<path opacity="0.7" d="M638.263 636.973C638.263 635.769 639.468 634.566 640.672 634.566C641.877 634.566 643.081 635.769 643.081 636.973C643.081 638.176 641.877 639.379 640.672 639.379C639.468 639.379 638.263 638.777 638.263 636.973Z" fill="white"/>
<path opacity="0.7" d="M172.653 557.714C172.653 557.113 173.255 556.511 173.858 556.511C174.46 556.511 175.062 557.113 175.062 557.714C175.062 558.316 174.46 558.917 173.858 558.917C173.255 558.917 172.653 558.316 172.653 557.714Z" fill="white"/>
<path opacity="0.7" d="M417.507 558.226C417.507 557.023 418.109 556.421 419.314 556.421C420.518 556.421 421.121 557.023 421.121 558.226C421.121 559.429 420.518 560.031 419.314 560.031C418.109 560.031 417.507 559.429 417.507 558.226Z" fill="white"/>
<path opacity="0.7" d="M44.1221 828.562C44.1221 827.96 44.7244 827.359 45.3268 827.359C45.9291 827.359 46.5314 827.96 46.5314 828.562C46.5314 829.163 45.9291 829.765 45.3268 829.765C44.7244 830.367 44.1221 829.765 44.1221 828.562Z" fill="white"/>
<path opacity="0.7" d="M16.3133 582.465C16.3133 581.864 16.9155 581.262 17.5178 581.262C18.1201 581.262 18.7224 581.864 18.7224 582.465C18.7224 583.067 18.1201 583.669 17.5178 583.669C16.9155 583.669 16.3133 583.067 16.3133 582.465Z" fill="white"/>
<path opacity="0.7" d="M135.682 684.726C135.682 683.523 136.887 682.32 138.091 682.32C139.296 682.32 140.501 683.523 140.501 684.726C140.501 685.929 139.296 687.133 138.091 687.133C136.887 687.133 135.682 685.929 135.682 684.726Z" fill="white"/>
<path opacity="0.7" d="M109.286 715.843C109.286 714.64 110.49 713.437 111.695 713.437C112.899 713.437 114.104 714.64 114.104 715.843C114.104 717.047 112.899 718.25 111.695 718.25C109.888 718.25 109.286 717.047 109.286 715.843Z" fill="white"/>
<path opacity="0.7" d="M137.766 555.907C137.766 554.704 138.971 553.501 140.175 553.501C141.38 553.501 142.584 554.704 142.584 555.907C142.584 557.111 141.38 558.314 140.175 558.314C138.971 558.314 137.766 557.111 137.766 555.907Z" fill="white"/>
<path opacity="0.7" d="M11.652 725.669C11.652 724.466 12.8565 723.263 14.061 723.263C15.2656 723.263 16.4701 724.466 16.4701 725.669C16.4701 726.872 15.2656 728.076 14.061 728.076C12.2542 728.076 11.652 726.872 11.652 725.669Z" fill="white"/>
<path opacity="0.7" d="M72.6437 566.842C72.6437 565.639 73.246 565.038 74.4505 565.038C75.6551 565.038 76.2573 565.639 76.2573 566.842C76.2573 568.046 75.6551 568.647 74.4505 568.647C73.246 568.647 72.6437 568.046 72.6437 566.842Z" fill="white"/>
<path opacity="0.7" d="M58.755 758.286C58.755 757.083 59.3573 756.482 60.5619 756.482C61.7665 756.482 62.3688 757.083 62.3688 758.286C62.3688 759.49 61.7665 760.091 60.5619 760.091C59.3573 760.091 58.755 759.49 58.755 758.286Z" fill="white"/>
<path opacity="0.7" d="M81.4201 954.069C81.4201 953.468 82.0224 952.866 82.6246 952.866C83.2269 952.866 83.8293 953.468 83.8293 954.069C83.8293 954.671 83.2269 955.273 82.6246 955.273C82.0224 955.874 81.4201 955.273 81.4201 954.069Z" fill="white"/>
<path opacity="0.7" d="M-0.833437 902.063C-0.833437 901.462 -0.231182 900.86 0.371093 900.86C0.973367 900.86 1.57562 901.462 1.57562 902.063C1.57562 902.665 0.973367 903.266 0.371093 903.266C-0.231182 903.868 -0.833437 903.266 -0.833437 902.063Z" fill="white"/>
<path opacity="0.7" d="M29.4684 933.209C29.4684 932.608 30.0707 932.006 30.673 932.006C31.2753 932.006 31.8776 932.608 31.8776 933.209C31.8776 933.811 31.2753 934.413 30.673 934.413C30.0707 934.413 29.4684 933.811 29.4684 933.209Z" fill="white"/>
<path opacity="0.7" d="M788.004 622.776C788.004 620.972 789.811 619.167 791.618 619.167C793.424 619.167 795.231 620.972 795.231 622.776C795.231 624.581 793.424 626.386 791.618 626.386C789.208 625.784 788.004 624.581 788.004 622.776Z" fill="white"/>
<g opacity="0.7">
<path opacity="0.7" d="M706.386 887.492L705.784 874.859L692.533 873.655L705.182 873.054L706.386 859.818L707.591 873.054L720.239 873.655L707.591 874.859L706.386 887.492Z" fill="white"/>
<path opacity="0.7" d="M700.966 879.671L705.182 874.257L700.966 868.241L706.387 873.054L712.41 867.639L707.592 873.655L712.41 879.671L706.387 874.858L700.966 879.671Z" fill="white"/>
</g>
<g opacity="0.7">
<path opacity="0.7" d="M841.525 920.646L840.321 908.013L827.672 906.809L840.321 906.208L841.525 892.972L842.73 906.208L855.378 906.809L842.73 908.013L841.525 920.646Z" fill="white"/>
<path opacity="0.7" d="M836.105 912.825L840.321 906.809L836.105 901.395L841.526 905.606L847.549 900.793L842.128 906.809L847.549 912.224L841.526 908.012L836.105 912.825Z" fill="white"/>
</g>
<g opacity="0.7">
<path opacity="0.7" d="M771.877 584.35L771.275 575.927L762.24 574.724H771.275L771.877 565.098L772.479 574.724H781.514L772.479 575.927L771.877 584.35Z" fill="white"/>
<path opacity="0.7" d="M768.261 578.936L771.273 575.326L768.261 571.115L771.875 574.725L776.091 571.115L772.477 575.326L776.091 578.936L771.875 575.928L768.261 578.936Z" fill="white"/>
</g>
<g opacity="0.7">
<path opacity="0.7" d="M1053.27 949.48L1052.67 941.058L1043.64 939.855H1052.07L1053.27 930.229L1053.87 939.855H1062.91L1053.87 941.058L1053.27 949.48Z" fill="white"/>
<path opacity="0.7" d="M1049.05 944.066L1052.07 940.457L1049.05 936.246L1053.27 939.254L1057.49 936.246L1053.87 939.855L1057.49 944.066L1053.27 941.058L1049.05 944.066Z" fill="white"/>
</g>
<g opacity="0.7">
<path opacity="0.7" d="M493.429 929.095L492.826 920.673L483.792 919.47H492.826L493.429 909.844L494.031 919.47H503.065L494.031 920.673L493.429 929.095Z" fill="white"/>
<path opacity="0.7" d="M489.211 923.681L492.824 920.072L489.211 915.861L493.427 918.869L497.643 915.861L494.029 919.47L497.643 923.681L493.427 920.673L489.211 923.681Z" fill="white"/>
</g>
<g opacity="0.7">
<path opacity="0.7" d="M253.006 591.46L251.802 579.428L239.154 577.623H251.802L253.006 563.786L254.211 577.623H266.859L254.211 579.428L253.006 591.46Z" fill="white"/>
<path opacity="0.7" d="M247.587 584.241L251.803 578.225L247.587 572.209L253.008 577.022L259.031 572.209L253.61 578.225L259.031 583.64L253.008 579.428L247.587 584.241Z" fill="white"/>
</g>
<g opacity="0.7">
<path opacity="0.7" d="M148.722 900.968L148.12 892.546L139.085 891.343H148.12L148.722 881.717L149.324 891.343H158.359L149.324 892.546L148.722 900.968Z" fill="white"/>
<path opacity="0.7" d="M145.106 895.554L148.118 891.945L145.106 887.733L148.72 890.741L152.936 887.733L149.322 891.343L152.936 895.554L148.72 892.546L145.106 895.554Z" fill="white"/>
</g>
<g opacity="0.7">
<path opacity="0.7" d="M351.308 711.208L350.706 702.184L341.672 701.583L350.706 700.981L351.308 691.957L351.911 700.981L360.945 701.583L351.911 702.184L351.308 711.208Z" fill="white"/>
<path opacity="0.7" d="M347.693 705.794L350.704 701.583L347.693 697.372L351.306 700.982L355.523 697.372L351.909 701.583L355.523 705.193L351.306 702.185L347.693 705.794Z" fill="white"/>
</g>
<g opacity="0.7">
<path opacity="0.7" d="M481.809 662.177L481.207 653.153L472.173 652.551L481.207 651.95L481.809 642.926L482.412 651.95L491.446 652.551L482.412 653.153L481.809 662.177Z" fill="white"/>
<path opacity="0.7" d="M478.194 656.763L481.205 652.552L478.194 648.341L481.807 651.95L486.023 648.341L482.41 652.552L486.023 656.162L481.807 653.154L478.194 656.763Z" fill="white"/>
</g>
<path opacity="0.7" d="M1155.04 510.568C1155.04 509.365 1155.64 508.763 1156.85 508.763C1158.05 508.763 1158.66 509.365 1158.66 510.568C1158.66 511.771 1158.05 512.373 1156.85 512.373C1156.25 512.373 1155.04 511.771 1155.04 510.568Z" fill="white"/>
<path opacity="0.7" d="M1081.06 506.568C1081.06 505.966 1081.66 505.364 1082.27 505.364C1082.87 505.364 1083.47 505.966 1083.47 506.568C1083.47 507.169 1082.87 507.771 1082.27 507.771C1081.66 508.372 1081.06 507.771 1081.06 506.568Z" fill="white"/>
<path opacity="0.7" d="M394.888 446.271C394.888 445.669 395.49 445.068 396.092 445.068C396.695 445.068 397.297 445.669 397.297 446.271C397.297 446.872 396.695 447.474 396.092 447.474C395.49 447.474 394.888 446.872 394.888 446.271Z" fill="white"/>
<path opacity="0.7" d="M1066.16 537.098C1066.16 536.496 1066.76 535.895 1067.36 535.895C1067.97 535.895 1068.57 536.496 1068.57 537.098C1068.57 537.699 1067.97 538.301 1067.36 538.301C1066.76 538.301 1066.16 537.699 1066.16 537.098Z" fill="white"/>
<path opacity="0.7" d="M1008.74 460.581C1008.74 459.378 1009.95 458.174 1011.15 458.174C1012.36 458.174 1013.56 459.378 1013.56 460.581C1013.56 461.784 1012.36 462.987 1011.15 462.987C1009.35 462.987 1008.74 461.784 1008.74 460.581Z" fill="white"/>
<path opacity="0.7" d="M1227.14 560.857C1227.14 559.654 1228.34 558.451 1229.54 558.451C1230.75 558.451 1231.95 559.654 1231.95 560.857C1231.95 562.06 1230.75 563.263 1229.54 563.263C1228.34 563.263 1227.14 562.06 1227.14 560.857Z" fill="white"/>
<path opacity="0.7" d="M1175.99 479.729C1175.99 479.127 1176.59 478.526 1177.19 478.526C1177.8 478.526 1178.4 479.127 1178.4 479.729C1178.4 480.33 1177.8 480.932 1177.19 480.932C1176.59 481.534 1175.99 480.932 1175.99 479.729Z" fill="white"/>
<path opacity="0.7" d="M519.107 480.647C519.107 480.045 519.709 479.444 520.312 479.444C520.914 479.444 521.516 480.045 521.516 480.647C521.516 481.248 520.914 481.85 520.312 481.85C519.709 481.85 519.107 481.248 519.107 480.647Z" fill="white"/>
<path opacity="0.7" d="M552.937 524.699C552.937 523.496 554.141 522.292 555.346 522.292C556.551 522.292 557.755 523.496 557.755 524.699C557.755 525.902 556.551 527.105 555.346 527.105C554.141 527.105 552.937 525.902 552.937 524.699Z" fill="white"/>
<path opacity="0.7" d="M612.178 544.746C612.178 543.542 613.382 542.339 614.587 542.339C615.792 542.339 616.996 543.542 616.996 544.746C616.996 545.949 615.792 547.152 614.587 547.152C613.382 547.152 612.178 545.949 612.178 544.746Z" fill="white"/>
<path opacity="0.7" d="M648.479 452.642C648.479 452.04 649.082 451.438 649.684 451.438C650.286 451.438 650.888 452.04 650.888 452.642C650.888 453.243 650.286 453.845 649.684 453.845C649.082 453.845 648.479 453.243 648.479 452.642Z" fill="white"/>
<path opacity="0.7" d="M832.134 492.142C832.134 490.337 833.941 488.533 835.748 488.533C837.555 488.533 839.362 490.337 839.362 492.142C839.362 493.947 837.555 495.752 835.748 495.752C833.941 495.15 832.134 493.947 832.134 492.142Z" fill="white"/>
<path opacity="0.7" d="M873.949 499.677C873.949 499.076 874.551 498.474 875.153 498.474C875.756 498.474 876.358 499.076 876.358 499.677C876.358 500.279 875.756 500.881 875.153 500.881C874.551 500.881 873.949 500.279 873.949 499.677Z" fill="white"/>
<path opacity="0.7" d="M943.366 431.104C943.366 430.503 943.968 429.901 944.57 429.901C945.173 429.901 945.775 430.503 945.775 431.104C945.775 431.706 945.173 432.308 944.57 432.308C943.968 432.909 943.366 432.308 943.366 431.104Z" fill="white"/>
<path opacity="0.7" d="M746.199 519.938C746.199 519.336 746.801 518.735 747.403 518.735C748.006 518.735 748.608 519.336 748.608 519.938C748.608 520.539 748.006 521.141 747.403 521.141C746.801 521.141 746.199 520.539 746.199 519.938Z" fill="white"/>
<path opacity="0.7" d="M879.813 559.035C879.813 558.433 880.415 557.832 881.018 557.832C881.62 557.832 882.222 558.433 882.222 559.035C882.222 559.636 881.62 560.238 881.018 560.238C880.415 560.238 879.813 559.636 879.813 559.035Z" fill="white"/>
<path opacity="0.7" d="M1031.81 502.787C1031.81 501.583 1033.01 500.38 1034.22 500.38C1035.42 500.38 1036.63 501.583 1036.63 502.787C1036.63 503.99 1035.42 505.193 1034.22 505.193C1033.01 505.193 1031.81 503.99 1031.81 502.787Z" fill="white"/>
<path opacity="0.7" d="M1005.41 533.904C1005.41 532.701 1006.62 531.497 1007.82 531.497C1009.03 531.497 1010.23 532.701 1010.23 533.904C1010.23 535.107 1009.03 536.31 1007.82 536.31C1006.62 536.31 1005.41 535.107 1005.41 533.904Z" fill="white"/>
<path opacity="0.7" d="M907.78 543.73C907.78 542.526 908.984 541.323 910.189 541.323C911.394 541.323 912.598 542.526 912.598 543.73C912.598 544.933 911.394 546.136 910.189 546.136C908.984 546.136 907.78 544.933 907.78 543.73Z" fill="white"/>
<path opacity="0.7" d="M790.048 444.699C790.048 442.894 791.855 441.09 793.662 441.09C795.469 441.09 797.276 442.894 797.276 444.699C797.276 446.504 795.469 448.309 793.662 448.309C791.253 448.309 790.048 447.106 790.048 444.699Z" fill="white"/>
<path opacity="0.7" d="M815.132 561.72C815.132 559.915 816.939 558.11 818.746 558.11C820.553 558.11 822.36 559.915 822.36 561.72C822.36 563.524 820.553 565.329 818.746 565.329C816.939 565.329 815.132 563.524 815.132 561.72Z" fill="white"/>
<path opacity="0.7" d="M760.514 545.472C760.514 544.269 761.718 543.065 762.923 543.065C764.128 543.065 765.332 544.269 765.332 545.472C765.332 546.675 764.128 547.878 762.923 547.878C761.718 547.878 760.514 546.675 760.514 545.472Z" fill="white"/>
<path opacity="0.7" d="M720.262 531.231C720.262 530.028 720.864 529.426 722.068 529.426C723.273 529.426 723.875 530.028 723.875 531.231C723.875 532.434 723.273 533.036 722.068 533.036C721.466 533.036 720.262 531.832 720.262 531.231Z" fill="white"/>
<path opacity="0.7" d="M669.294 570.508C669.294 571.11 668.691 571.712 668.089 571.712C667.487 571.712 666.884 571.11 666.884 570.508C666.884 569.907 667.487 569.305 668.089 569.305C668.691 569.305 669.294 569.907 669.294 570.508Z" fill="white"/>
<path opacity="0.7" d="M576.341 481.78C576.341 482.382 575.738 482.983 575.136 482.983C574.534 482.983 573.931 482.382 573.931 481.78C573.931 481.178 574.534 480.577 575.136 480.577C575.738 480.577 576.341 481.178 576.341 481.78Z" fill="white"/>
<path opacity="0.7" d="M707.499 476.635C707.499 478.44 705.692 480.245 703.885 480.245C702.078 480.245 700.271 478.44 700.271 476.635C700.271 474.83 702.078 473.025 703.885 473.025C706.294 473.627 707.499 474.83 707.499 476.635Z" fill="white"/>
<path opacity="0.7" d="M258.915 462.507C258.915 461.304 259.517 460.703 260.722 460.703C261.927 460.703 262.529 461.304 262.529 462.507C262.529 463.711 261.927 464.312 260.722 464.312C260.12 464.312 258.915 463.711 258.915 462.507Z" fill="white"/>
<path opacity="0.7" d="M297.177 468.744C297.177 468.143 297.78 467.541 298.382 467.541C298.984 467.541 299.587 468.143 299.587 468.744C299.587 469.346 298.984 469.948 298.382 469.948C297.78 469.948 297.177 469.346 297.177 468.744Z" fill="white"/>
<path opacity="0.7" d="M184.933 458.507C184.933 457.906 185.536 457.304 186.138 457.304C186.74 457.304 187.342 457.906 187.342 458.507C187.342 459.109 186.74 459.71 186.138 459.71C185.536 460.312 184.933 459.71 184.933 458.507Z" fill="white"/>
<path opacity="0.7" d="M170.033 489.037C170.033 488.436 170.635 487.834 171.237 487.834C171.84 487.834 172.442 488.436 172.442 489.037C172.442 489.639 171.84 490.241 171.237 490.241C170.635 490.241 170.033 489.639 170.033 489.037Z" fill="white"/>
<path opacity="0.7" d="M303.042 528.102C303.042 527.5 303.644 526.899 304.246 526.899C304.849 526.899 305.451 527.5 305.451 528.102C305.451 528.704 304.849 529.305 304.246 529.305C303.644 529.305 303.042 528.704 303.042 528.102Z" fill="white"/>
<path opacity="0.7" d="M329.613 448.827C329.613 447.624 330.215 447.022 331.42 447.022C332.625 447.022 333.227 447.624 333.227 448.827C333.227 450.031 332.625 450.632 331.42 450.632C330.818 450.632 329.613 450.031 329.613 448.827Z" fill="white"/>
<path opacity="0.7" d="M428.641 502.971C428.641 501.768 429.846 500.564 431.05 500.564C432.255 500.564 433.46 501.768 433.46 502.971C433.46 504.174 432.255 505.377 431.05 505.377C429.846 505.377 428.641 504.174 428.641 502.971Z" fill="white"/>
<path opacity="0.7" d="M331.009 512.797C331.009 511.593 332.213 510.39 333.418 510.39C334.622 510.39 335.827 511.593 335.827 512.797C335.827 514 334.622 515.203 333.418 515.203C332.213 515.203 331.009 514 331.009 512.797Z" fill="white"/>
<path opacity="0.7" d="M279.863 431.668C279.863 431.067 280.465 430.465 281.067 430.465C281.67 430.465 282.272 431.067 282.272 431.668C282.272 432.27 281.67 432.872 281.067 432.872C280.465 433.473 279.863 432.872 279.863 431.668Z" fill="white"/>
<path opacity="0.7" d="M135.682 454.726C135.682 453.523 136.887 452.32 138.091 452.32C139.296 452.32 140.501 453.523 140.501 454.726C140.501 455.929 139.296 457.133 138.091 457.133C136.887 457.133 135.682 455.929 135.682 454.726Z" fill="white"/>
<path opacity="0.7" d="M109.286 485.843C109.286 484.64 110.49 483.437 111.695 483.437C112.899 483.437 114.104 484.64 114.104 485.843C114.104 487.047 112.899 488.25 111.695 488.25C109.888 488.25 109.286 487.047 109.286 485.843Z" fill="white"/>
<path opacity="0.7" d="M11.652 495.669C11.652 494.466 12.8565 493.263 14.061 493.263C15.2656 493.263 16.4701 494.466 16.4701 495.669C16.4701 496.872 15.2656 498.076 14.061 498.076C12.2542 498.076 11.652 496.872 11.652 495.669Z" fill="white"/>
<path opacity="0.7" d="M58.755 528.286C58.755 527.083 59.3573 526.482 60.5619 526.482C61.7665 526.482 62.3688 527.083 62.3688 528.286C62.3688 529.49 61.7665 530.091 60.5619 530.091C59.3573 530.091 58.755 529.49 58.755 528.286Z" fill="white"/>
<g opacity="0.7">
<path opacity="0.7" d="M351.308 481.208L350.706 472.184L341.672 471.583L350.706 470.981L351.308 461.957L351.911 470.981L360.945 471.583L351.911 472.184L351.308 481.208Z" fill="white"/>
<path opacity="0.7" d="M347.693 475.794L350.704 471.583L347.693 467.372L351.306 470.982L355.523 467.372L351.909 471.583L355.523 475.193L351.306 472.185L347.693 475.794Z" fill="white"/>
</g>
<g opacity="0.7">
<path opacity="0.7" d="M481.809 432.177L481.207 423.153L472.173 422.551L481.207 421.95L481.809 412.926L482.412 421.95L491.446 422.551L482.412 423.153L481.809 432.177Z" fill="white"/>
<path opacity="0.7" d="M478.194 426.763L481.205 422.552L478.194 418.341L481.807 421.95L486.023 418.341L482.41 422.552L486.023 426.162L481.807 423.154L478.194 426.763Z" fill="white"/>
</g>
<g opacity="0.7">
<path opacity="0.7" d="M414.318 897.138L413.113 888.715L404.681 887.512H413.113L414.318 877.886L414.92 887.512H423.954L414.92 888.715L414.318 897.138Z" fill="white"/>
<path opacity="0.7" d="M410.1 891.724L413.111 888.114L410.1 883.903L413.713 886.911L418.532 883.903L414.918 887.513L418.532 891.724L414.316 888.716L410.1 891.724Z" fill="white"/>
</g>
</svg>
