<svg xmlns="http://www.w3.org/2000/svg" version="1.1" xmlns:xlink="http://www.w3.org/1999/xlink" xmlns:svgjs="http://svgjs.dev/svgjs" width="1000" height="317" viewBox="0 0 1000 317"><g transform="matrix(1,0,0,1,0.16994382022460286,0.040756528152627425)"><svg viewBox="0 0 356 113" data-background-color="#ffffff" preserveAspectRatio="xMidYMid meet" height="317" width="1000" xmlns="http://www.w3.org/2000/svg" xmlns:xlink="http://www.w3.org/1999/xlink"><g id="tight-bounds" transform="matrix(1,0,0,1,-0.06049999999996203,-0.014528352306768966)"><svg viewBox="0 0 356.12052 113.02905670461354" height="113.02905670461354" width="356.12052"><g><svg viewBox="0 0 356.12052 113.02905670461354" height="113.02905670461354" width="356.12052"><g><svg viewBox="0 0 356.12052 113.02905670461354" height="113.02905670461354" width="356.12052"><g><path d="M0 113.029v-113.029h356.121v113.029z" fill="#d2d6dc" stroke="transparent" stroke-width="0" rx="0%" data-fill-palette-color="tertiary"></path><path d="M3.283 109.746v-106.463h349.554v106.463z" fill="#ffffff" stroke="transparent" stroke-width="0" rx="0%" data-fill-palette-color="quaternary"></path><path d="M9.85 103.179v-93.329h336.421v93.329z" fill="#d2d6dc" stroke="transparent" stroke-width="0" data-fill-palette-color="tertiary"></path></g><g transform="matrix(1,0,0,1,19.69974,19.69974)" id="textblocktransform"><svg viewBox="0 0 316.72104 73.62957670461354" height="73.62957670461354" width="316.72104" id="textblock"><g><svg viewBox="0 0 316.72104 73.62957670461354" height="73.62957670461354" width="316.72104"><g transform="matrix(1,0,0,1,0,0)"><svg width="316.72104" viewBox="-0.30000001192092896 -42.400001525878906 250.3300018310547 58.20000076293945" height="73.62957670461354" data-palette-color="#ffffff"><path d="M44.9-7.6L44.9-7.6Q44.6-9.3 44.5-10.4 44.4-11.5 44.4-12.68 44.4-13.85 44.8-14L44.8-14Q44.85-14 44.95-14L44.95-14Q46.45-14 50.5-16.05 54.55-18.1 59.73-21.58 64.9-25.05 70.53-30.48 76.15-35.9 79.8-41.45L79.8-41.45Q80.45-42.4 80.9-42.4L80.9-42.4Q81.05-42.4 81.23-42.25 81.4-42.1 81.4-41.75 81.4-41.4 81.05-40.8L81.05-40.8Q75.35-31.35 65-23.03 54.65-14.7 47.7-12.95L47.7-12.95Q47.6-12.8 47.6-12.33 47.6-11.85 47.7-10.75 47.8-9.65 48.68-6.53 49.55-3.4 50.7-0.75L50.7-0.75Q54.1 7.05 59.65 7.05L59.65 7.05Q62.85 7.05 65.78 5.7 68.7 4.35 70 1.8L70 1.8Q70.3 1.1 70.75 1.1 71.2 1.1 70.65 2.2L70.65 2.2Q69.3 4.95 65.92 7.08 62.55 9.2 59 9.2 55.45 9.2 52.3 6.6L52.3 6.6Q46.8 2.1 44.9-7.6ZM51.6-36Q52.15-36.95 53.28-38.33 54.4-39.7 55.23-39.93 56.05-40.15 56.83-40.15 57.6-40.15 58-39.5 58.4-38.85 58.4-38.2 58.4-37.55 57.45-36.7L57.45-36.7Q55.85-35.25 52.4-34.9L52.4-34.9Q49.55-29.75 45.85-18.35L45.85-18.35Q44.5-14.2 42.23-9.53 39.95-4.85 37.35-1.35 34.75 2.15 30.48 4.83 26.2 7.5 20.8 8.3L20.8 8.3Q19.05 8.55 16.93 8.55 14.8 8.55 12.3 8L12.3 8Q3.15 5.9 0.5-1L0.5-1Q-0.3-3.1-0.3-5.18-0.3-7.25 0.28-9.45 0.85-11.65 2.78-13.38 4.7-15.1 5.95-15.25L5.95-15.25Q6.6-15.35 6.6-14.95L6.6-14.95Q6.6-14.7 6.3-14.55L6.3-14.55Q5.1-14 3.4-11.95L3.4-11.95Q1.2-9.25 1.2-5.25L1.2-5.25Q1.2-1.15 3.7 1.4L3.7 1.4Q6.75 4.6 10.9 5.4L10.9 5.4Q13.75 5.95 15.6 5.95 17.45 5.95 18.85 5.55L18.85 5.55Q22.95 4.6 26.53 2.58 30.1 0.55 32.52-1.73 34.95-4 37.18-7.18 39.4-10.35 40.68-12.75 41.95-15.15 45.2-22.5 48.45-29.85 50.9-34.8L50.9-34.8Q50.15-34.7 46.6-34.4L46.6-34.4Q40.05-33.85 36.4-32.8L36.4-32.8Q29.55-30.9 26.65-25.5L26.65-25.5Q25.25-22.9 25.25-20.45L25.25-20.45Q25.25-19.15 25.65-17.9L25.65-17.9Q26.75-14.55 30-14.55L30-14.55Q34.1-14.55 35.75-18.8L35.75-18.8Q36.55-20.85 36.55-22.2 36.55-23.55 36.45-24.1 36.35-24.65 36.6-24.65L36.6-24.65Q37-24.55 37.3-24L37.3-24Q37.75-22.95 37.75-21.53 37.75-20.1 36.8-18.25L36.8-18.25Q35.3-15.1 32.6-14.1L32.6-14.1Q30.95-13.5 29.5-13.5L29.5-13.5Q27-13.5 25-15.3L25-15.3Q22.3-17.7 22.3-21.55L22.3-21.55Q22.3-27 27.4-30.7L27.4-30.7Q32.1-34.2 41-35.15L41-35.15Q43.7-35.45 47.18-35.68 50.65-35.9 51.6-36L51.6-36ZM56.85-38.2L56.85-38.2Q56.85-38.75 56.4-38.75L56.4-38.75Q55.85-38.75 55.28-38.27 54.7-37.8 53.3-36.15L53.3-36.15Q54.75-36.35 55.5-36.75L55.5-36.75Q56.85-37.4 56.85-38.2ZM66.9-19.45Q66.2-18.85 65.35-18.85 64.5-18.85 64-19.45 63.5-20.05 63.6-20.9L63.6-20.9Q63.75-21.75 64.45-22.35 65.15-22.95 66-22.95 66.85-22.95 67.37-22.35 67.9-21.75 67.75-20.9 67.6-20.05 66.9-19.45ZM62-1.1L62-1.1Q62.95-1.1 64-2.05L64-2.05Q65.85-3.9 68.7-9.6L68.7-9.6Q69.05-10.35 69.4-10.05L69.4-10.05Q69.5-9.95 69.5-9.73 69.5-9.5 69.1-8.63 68.7-7.75 68.37-7.05 68.05-6.35 67.12-4.78 66.2-3.2 65.45-2.35L65.45-2.35Q63.4 0 61.57 0 59.75 0 58.95-1.1 58.15-2.2 58.15-3.55 58.15-4.9 58.8-6.5L58.8-6.5 62-14.65Q62.1-14.95 62.1-15.45 62.1-15.95 61.5-16.75L61.5-16.75 64.25-16.8Q65.4-16.8 65.6-16.38 65.8-15.95 65.3-15.05L65.3-15.05 61.3-5.7Q60.45-3.85 60.45-2.55L60.45-2.55Q60.45-1.1 62-1.1ZM70.95-7.7L70.95-7.7Q70.25-6 70.25-3.9L70.25-3.9Q70.25-2.5 70.87-1.68 71.5-0.85 72.65-0.85L72.65-0.85Q77.2-0.85 80.9-9.4L80.9-9.4Q81.25-10.2 81.75-10.1L81.75-10.1Q81.95-10.05 81.95-9.85 81.95-9.65 80.82-7.23 79.7-4.8 78.55-3.3L78.55-3.3Q76 0.2 72.25 0.2L72.25 0.2Q70.25 0.2 68.85-1.1 67.45-2.4 67.45-4.65 67.45-6.9 68.52-9.43 69.6-11.95 71.45-14.13 73.3-16.3 75.7-17.3L75.7-17.3Q76.85-17.8 77.9-17.8 78.95-17.8 79.85-17.2L79.85-17.2Q80.7-16.5 80.7-15.65L80.7-15.65Q80.7-12.65 77.1-9.9L77.1-9.9Q76-9.05 74-8.38 72-7.7 70.95-7.7ZM79.35-15.7L79.35-15.7Q79.35-16.7 78.55-16.7L78.55-16.7Q77.15-16.7 74.3-13.25L74.3-13.25Q72.6-11.15 71.3-8.55L71.3-8.55Q72.15-8.55 73.77-9.15 75.4-9.75 76.6-10.75L76.6-10.75Q79.35-13.1 79.35-15.7ZM96.14-16.4L96.14-16.4Q89.99-5.6 89.99-2.3L89.99-2.3Q89.99-1 90.94-1L90.94-1Q93.49-1 97.79-9.65L97.79-9.65Q98.09-10.35 98.39-10.2 98.69-10.05 98.69-9.8 98.69-9.55 98.49-9.2L98.49-9.2Q95.84-3.85 94.02-1.83 92.19 0.2 90.37 0.2 88.54 0.2 87.59-1.2L87.59-1.2Q87.09-1.85 87.09-2.98 87.09-4.1 87.59-5.7 88.09-7.3 90.34-10.9L90.34-10.9Q90.89-11.8 90.89-12.33 90.89-12.85 90.04-12.85 89.19-12.85 86.79-10.6L86.79-10.6Q83.19-7.3 79.84-0.7L79.84-0.7Q79.54-0.2 79.17-0.08 78.79 0.05 77.69 0.1 76.59 0.15 76.24 0.35L76.24 0.35Q77.04-1.25 79.39-6.2L79.39-6.2Q83.59-14.95 84.89-16.2L84.89-16.2Q85.49-16.8 86.54-16.8L86.54-16.8Q86.74-16.8 87.57-16.65 88.39-16.5 88.79-16.6L88.79-16.6Q86.94-15.6 82.74-7.2L82.74-7.2Q85.09-10.1 87.02-11.83 88.94-13.55 91.64-15.03 94.34-16.5 95.59-16.5L95.59-16.5Q95.89-16.5 96.14-16.4ZM129.04-18.15L129.04-18.15Q129.04-21.35 125.69-21.35L125.69-21.35Q125.29-21.35 124.81-21.3 124.34-21.25 124.21-21.43 124.09-21.6 124.29-21.8L124.29-21.8Q124.74-22.4 127.26-22.4 129.79-22.4 130.59-20.2L130.59-20.2Q130.94-19.35 130.94-18.4L130.94-18.4Q130.94-16.25 129.34-13.5L129.34-13.5Q126.64-9 121.89-7.1L121.89-7.1Q119.44-6.1 116.46-6.1 113.49-6.1 111.06-8.13 108.64-10.15 107.89-13.85L107.89-13.85Q107.74-14.8 107.74-15.9L107.74-15.9Q107.74-18.9 109.34-22.88 110.94-26.85 114.69-30.5L114.69-30.5Q121.79-37.5 129.69-39.15L129.69-39.15Q131.89-39.6 133.54-39.6 135.19-39.6 136.34-39.45L136.34-39.45Q139.44-39 141.19-36.5L141.19-36.5Q142.59-34.55 142.59-31.55L142.59-31.55Q142.59-28.85 141.99-27.03 141.39-25.2 141.19-24.63 140.99-24.05 140.46-22.85 139.94-21.65 139.79-21.3 139.64-20.95 138.99-19.5L138.99-19.5Q136.89-14.95 136.99-14.9L136.99-14.9 138.54-17.4Q141.59-22.1 145.14-26.4L145.14-26.4Q151.74-34.4 156.99-36.8L156.99-36.8Q159.94-38.2 162.14-38.2 164.34-38.2 165.81-37.13 167.29-36.05 167.29-33.45 167.29-30.85 165.64-27.13 163.99-23.4 160.81-17.6 157.64-11.8 155.44-7.05 153.24-2.3 153.24 1.4L153.24 1.4Q153.24 2.7 153.59 3.75L153.59 3.75Q154.29 6.05 156.29 6.05L156.29 6.05Q157.39 6.05 158.56 5.5 159.74 4.95 160.34 4.95 160.94 4.95 160.94 5.6 160.94 6.25 159.99 6.78 159.04 7.3 158.44 7.3L158.44 7.3Q150.44 7.3 150.44 0.35L150.44 0.35Q150.44-2.2 151.31-4.8 152.19-7.4 157.54-18.65 162.89-29.9 163.34-32.85L163.34-32.85Q163.44-33.3 163.44-33.7L163.44-33.7Q163.44-35.8 160.99-35.8L160.99-35.8Q159.34-35.8 157.24-34.7L157.24-34.7Q149.39-30.95 142.29-20.35L142.29-20.35Q138.09-14.1 132.74-2.6L132.74-2.6Q130.79 1.6 130.69 1.8L130.69 1.8Q129.99 3.25 127.89 3.25L127.89 3.25Q126.64 3.25 126.54 2.45L126.54 2.45Q126.49 2.3 126.54 2.1L126.54 2.1Q128.94-1.45 133.26-11.03 137.59-20.6 139.19-27.7L139.19-27.7Q139.69-30.05 139.69-31.88 139.69-33.7 139.19-35L139.19-35Q138.14-37.65 135.64-38.05L135.64-38.05Q134.89-38.15 133.54-38.15 132.19-38.15 129.51-37.38 126.84-36.6 123.49-34.5L123.49-34.5Q115.94-29.8 112.54-22.25L112.54-22.25Q110.69-18.15 110.69-14.7L110.69-14.7Q110.69-12.95 111.14-11.4L111.14-11.4Q112.79-7.25 116.94-7.05L116.94-7.05Q122.09-7.05 125.94-11.35L125.94-11.35Q129.04-14.8 129.04-18.15ZM159.24 15.8L159.24 15.8Q154.54 15.8 154.54 11.95L154.54 11.95Q154.54 8.75 158.89 6.2L158.89 6.2Q162.59 4.05 168.34 2.15L168.34 2.15Q170.99 1.3 172.19 0.8L172.19 0.8Q173.49-3 173.49-7.5L173.49-7.5Q173.49-8.4 173.39-8.85L173.39-8.85Q171.99-6 169.54-3L169.54-3Q166.64 0.6 163.79-0.2L163.79-0.2Q161.19-1.3 161.19-4.5L161.19-4.5Q161.19-8.8 165.49-13.95L165.49-13.95Q167.84-16.75 170.99-17.5L170.99-17.5Q171.84-17.75 172.69-17.75L172.69-17.75Q174.94-17.75 177.09-16.25L177.09-16.25Q177.89-15.6 177.89-15.15 177.89-14.7 177.59-14.28 177.29-13.85 176.96-14.18 176.64-14.5 176.54-14.8L176.54-14.8Q175.89-16.65 174.44-16.65L174.44-16.65Q171.79-16.65 168.49-12.95L168.49-12.95Q166.64-10.85 165.29-8.45L165.29-8.45Q163.64-5.45 163.64-3.83 163.64-2.2 164.64-1.65L164.64-1.65Q164.99-1.5 165.34-1.5L165.34-1.5Q166.49-1.5 168.21-3.08 169.94-4.65 171.41-7.08 172.89-9.5 173.29-10.85 173.69-12.2 174.26-12.55 174.84-12.9 175.54-12.95 176.24-13 176.49-13.2L176.49-13.2Q176.89-10.95 176.89-7.93 176.89-4.9 175.84-1.05L175.84-1.05Q178.14-2.7 179.11-4 180.09-5.3 180.66-6.35 181.24-7.4 181.69-8.43 182.14-9.45 182.29-9.75 182.44-10.05 182.79-10.13 183.14-10.2 183.14-9.8L183.14-9.8Q183.14-9.55 182.99-9.2L182.99-9.2Q180.79-4.65 179.31-2.63 177.84-0.6 175.29 0.6L175.29 0.6Q174.09 4 171.81 7.35 169.54 10.7 166.09 13.25 162.64 15.8 159.24 15.8ZM155.59 12.9L155.59 12.9Q155.59 14.8 158.04 14.8L158.04 14.8Q159.49 14.8 161.31 13.95 163.14 13.1 164.34 12.2L164.34 12.2Q166.39 10.55 168.84 7.3L168.84 7.3Q170.69 4.7 171.69 2.25L171.69 2.25 169.94 2.85Q162.14 5.55 158.94 7.65L158.94 7.65Q156.59 9.2 155.84 11.6L155.84 11.6Q155.59 12.35 155.59 12.9ZM180.53-2.9L180.53-2.9Q180.53-5.05 182.38-8.1L182.38-8.1Q181.58-8.1 181.93-8.9L181.93-8.9 182.83-10.65Q184.53-13.9 185.63-16.15L185.63-16.15Q186.13-17.2 187.58-17.2L187.58-17.2 190.63-17.2Q188.83-15.9 187.01-12.18 185.18-8.45 184.18-6.33 183.18-4.2 183.18-3.1 183.18-2 183.56-1.55 183.93-1.1 184.58-1.1L184.58-1.1Q185.53-1.1 187.23-3.1L187.23-3.1Q189.88-6.2 194.68-16.15L194.68-16.15Q195.23-17.2 196.63-17.2L196.63-17.2 199.33-17.2Q198.23-16.35 197.61-15.45 196.98-14.55 195.88-12.25L195.88-12.25Q192.88-6.25 192.53-4.3L192.53-4.3Q192.38-3.6 192.38-3L192.38-3Q192.38-1.4 193.48-1.3L193.48-1.3Q196.18-1.3 200.13-9.65L200.13-9.65Q200.43-10.35 200.73-10.2 201.03-10.05 201.03-9.8 201.03-9.55 200.58-8.65 200.13-7.75 199.71-6.9 199.28-6.05 198.41-4.58 197.53-3.1 196.78-2.25L196.78-2.25Q194.83-0.05 192.96-0.05 191.08-0.05 190.38-1.7L190.38-1.7Q190.08-2.45 190.08-3.6 190.08-4.75 190.58-6.45L190.58-6.45Q186.93-0.05 183.83-0.05L183.83-0.05Q181.13-0.05 180.68-2.3L180.68-2.3Q180.53-2.55 180.53-2.9ZM193.18 15.8L193.18 15.8Q190.98 15.8 189.78 14.88 188.58 13.95 188.58 12.65 188.58 11.35 189.33 9.7L189.33 9.7Q190.63 7.15 194.03 5.6L194.03 5.6Q196.58 4.4 200.78 3.38 204.98 2.35 206.18 2L206.18 2Q207.98-1.15 210.48-9.25L210.48-9.25Q207.58-4.15 205.63-2.1 203.68-0.05 201.68-0.05L201.68-0.05Q198.98-0.05 198.53-2.3L198.53-2.3Q198.33-2.65 198.43-3.35 198.53-4.05 198.56-4.35 198.58-4.65 198.88-5.33 199.18-6 199.28-6.3L199.28-6.3Q199.83-7.45 200.23-8.1L200.23-8.1Q199.43-8.1 199.78-8.9L199.78-8.9 200.68-10.65Q202.38-13.9 203.48-16.15L203.48-16.15Q203.98-17.2 205.43-17.2L205.43-17.2 208.48-17.2Q208.38-17.1 207.98-16.8L207.98-16.8Q207.08-16.2 206.63-15.4L206.63-15.4Q204.83-12.3 202.13-6.55L202.13-6.55Q201.03-4.2 201.03-3.1 201.03-2 201.41-1.55 201.78-1.1 202.43-1.1L202.43-1.1Q203.38-1.1 205.08-3.1L205.08-3.1Q208.63-7.25 212.93-16.15L212.93-16.15Q213.48-17.2 214.88-17.2L214.88-17.2 217.58-17.2Q216.28-16.3 215.53-14.93 214.78-13.55 213.91-11.2 213.03-8.85 211.71-4.95 210.38-1.05 209.68 0.9L209.68 0.9Q214.38-0.5 216.88-4.05L216.88-4.05Q217.98-5.6 220.03-9.55L220.03-9.55Q220.38-10.25 220.66-10.1 220.93-9.95 220.93-9.7 220.93-9.45 220.11-7.78 219.28-6.1 218.43-4.67 217.58-3.25 216.23-1.75 214.88-0.25 213.23 0.63 211.58 1.5 208.83 2.5L208.83 2.5Q204.98 9.5 201.08 12.8L201.08 12.8Q197.43 15.8 193.18 15.8ZM190.28 10.85L190.28 10.85Q189.73 11.95 189.73 12.88 189.73 13.8 190.43 14.3 191.13 14.8 192.18 14.8L192.18 14.8Q195.08 14.8 198.38 11.83 201.68 8.85 204.18 5.45L204.18 5.45 205.28 3.6Q197.03 5.75 194.88 6.7L194.88 6.7Q191.68 8.1 190.28 10.85ZM222.28-7.7L222.28-7.7Q221.58-6 221.58-3.9L221.58-3.9Q221.58-2.5 222.2-1.68 222.83-0.85 223.98-0.85L223.98-0.85Q228.53-0.85 232.23-9.4L232.23-9.4Q232.58-10.2 233.08-10.1L233.08-10.1Q233.28-10.05 233.28-9.85 233.28-9.65 232.15-7.23 231.03-4.8 229.88-3.3L229.88-3.3Q227.33 0.2 223.58 0.2L223.58 0.2Q221.58 0.2 220.18-1.1 218.78-2.4 218.78-4.65 218.78-6.9 219.85-9.43 220.93-11.95 222.78-14.13 224.63-16.3 227.03-17.3L227.03-17.3Q228.18-17.8 229.23-17.8 230.28-17.8 231.18-17.2L231.18-17.2Q232.03-16.5 232.03-15.65L232.03-15.65Q232.03-12.65 228.43-9.9L228.43-9.9Q227.33-9.05 225.33-8.38 223.33-7.7 222.28-7.7ZM230.68-15.7L230.68-15.7Q230.68-16.7 229.88-16.7L229.88-16.7Q228.48-16.7 225.63-13.25L225.63-13.25Q223.93-11.15 222.63-8.55L222.63-8.55Q223.48-8.55 225.1-9.15 226.73-9.75 227.93-10.75L227.93-10.75Q230.68-13.1 230.68-15.7ZM247.48-16.4L247.48-16.4Q241.33-5.6 241.33-2.3L241.33-2.3Q241.33-1 242.28-1L242.28-1Q244.83-1 249.13-9.65L249.13-9.65Q249.43-10.35 249.73-10.2 250.03-10.05 250.03-9.8 250.03-9.55 249.83-9.2L249.83-9.2Q247.18-3.85 245.35-1.83 243.53 0.2 241.7 0.2 239.88 0.2 238.93-1.2L238.93-1.2Q238.43-1.85 238.43-2.98 238.43-4.1 238.93-5.7 239.43-7.3 241.68-10.9L241.68-10.9Q242.23-11.8 242.23-12.33 242.23-12.85 241.38-12.85 240.53-12.85 238.13-10.6L238.13-10.6Q234.53-7.3 231.18-0.7L231.18-0.7Q230.88-0.2 230.5-0.08 230.13 0.05 229.03 0.1 227.93 0.15 227.58 0.35L227.58 0.35Q228.38-1.25 230.73-6.2L230.73-6.2Q234.93-14.95 236.23-16.2L236.23-16.2Q236.83-16.8 237.88-16.8L237.88-16.8Q238.08-16.8 238.9-16.65 239.73-16.5 240.13-16.6L240.13-16.6Q238.28-15.6 234.08-7.2L234.08-7.2Q236.43-10.1 238.35-11.83 240.28-13.55 242.98-15.03 245.68-16.5 246.93-16.5L246.93-16.5Q247.23-16.5 247.48-16.4Z" opacity="1" transform="matrix(1,0,0,1,0,0)" fill="#ffffff" class="undefined-text-0" data-fill-palette-color="quaternary" id="text-0"></path></svg></g></svg></g></svg></g></svg></g><g></g></svg></g><defs></defs></svg><rect width="356.12052" height="113.02905670461354" fill="none" stroke="none" visibility="hidden"></rect></g></svg></g></svg>