<svg xmlns="http://www.w3.org/2000/svg" version="1.1" xmlns:xlink="http://www.w3.org/1999/xlink" xmlns:svgjs="http://svgjs.dev/svgjs" width="1000" height="482" viewBox="0 0 1000 482"><g transform="matrix(1,0,0,1,-0.606029052655856,0.26736793378321977)"><svg viewBox="0 0 396 191" data-background-color="#ffffff" preserveAspectRatio="xMidYMid meet" height="482" width="1000" xmlns="http://www.w3.org/2000/svg" xmlns:xlink="http://www.w3.org/1999/xlink"><g id="tight-bounds" transform="matrix(1,0,0,1,0.23998789532510045,-0.10594870405103052)"><svg viewBox="0 0 395.52 191.21189651039737" height="191.21189651039737" width="395.52"><g><svg viewBox="0 0 395.52 191.21189651039737" height="191.21189651039737" width="395.52"><g><svg viewBox="0 0 395.52 191.21189651039737" height="191.21189651039737" width="395.52"><g id="textblocktransform"><svg viewBox="0 0 395.52 191.21189651039737" height="191.21189651039737" width="395.52" id="textblock"><g><svg viewBox="0 0 395.52 151.32939130434784" height="151.32939130434784" width="395.52"><g transform="matrix(1,0,0,1,0,0)"><svg width="395.52" viewBox="2.250000238418579 -36.50000762939453 241.49998474121094 89.40000915527344" height="151.32939130434784" data-palette-color="#ed1703"><svg></svg><svg></svg><g class="undefined-text-0" data-fill-palette-color="primary" id="text-0"><path xmlns="http://www.w3.org/2000/svg" d="M15.15-17.7v13.2h-0.5v-27h0.5v13.3h10.85l5.75-13.3h0.55l-5.75 13.3h2.05c2.033 0 3.55 0.383 4.55 1.15 1 0.767 1.5 2.017 1.5 3.75v0 8.8h-0.5v-8.8c0-1.6-0.467-2.733-1.4-3.4-0.933-0.667-2.317-1-4.15-1v0zM11 0h7.75c0.633 0 1.093-0.143 1.38-0.43 0.28-0.28 0.42-0.737 0.42-1.37v0-11.45h6.6c0.533 0 0.933 0.15 1.2 0.45 0.267 0.3 0.4 0.717 0.4 1.25v0 9.75c0 0.633 0.143 1.09 0.43 1.37 0.28 0.287 0.737 0.43 1.37 0.43v0h7.7c0.633 0 1.093-0.143 1.38-0.43 0.28-0.28 0.42-0.737 0.42-1.37v0-14.1c0-2-0.557-3.61-1.67-4.83-1.12-1.213-2.613-1.87-4.48-1.97v0l5.1-11.65c0.233-0.533 0.25-0.943 0.05-1.23-0.2-0.28-0.583-0.42-1.15-0.42v0h-7.7c-0.633 0-1.15 0.123-1.55 0.37-0.4 0.253-0.717 0.68-0.95 1.28v0l-5.15 11.65h-2v-11.5c0-0.633-0.14-1.093-0.42-1.38-0.287-0.28-0.747-0.42-1.38-0.42v0h-7.75c-0.633 0-1.09 0.14-1.37 0.42-0.287 0.287-0.43 0.747-0.43 1.38v0 32.4c0 0.633 0.143 1.09 0.43 1.37 0.28 0.287 0.737 0.43 1.37 0.43zM20.35 0.05v0l-6.5 5.4c-0.133 0.133-0.34 0.25-0.62 0.35-0.287 0.1-0.597 0.15-0.93 0.15v0h-7.75c-0.8 0-1.383-0.183-1.75-0.55-0.367-0.367-0.55-0.95-0.55-1.75v0-32.4c0-0.433 0.06-0.8 0.18-1.1 0.113-0.3 0.287-0.55 0.52-0.75v0l6.45-5.45c0.167-0.133 0.393-0.243 0.68-0.33 0.28-0.08 0.587-0.12 0.92-0.12v0h7.75c0.8 0 1.383 0.183 1.75 0.55 0.367 0.367 0.55 0.95 0.55 1.75v0 4.55c0.1-0.133 0.2-0.277 0.3-0.43 0.1-0.147 0.217-0.27 0.35-0.37v0l6.45-5.45c0.233-0.2 0.527-0.35 0.88-0.45 0.347-0.1 0.737-0.15 1.17-0.15v0h7.7c0.833 0 1.383 0.207 1.65 0.62 0.267 0.42 0.233 0.997-0.1 1.73v0l-4.8 11c1.8 0.233 3.233 1 4.3 2.3 1.067 1.3 1.6 2.95 1.6 4.95v0 14.1c0 0.433-0.057 0.8-0.17 1.1-0.12 0.3-0.297 0.55-0.53 0.75v0l-6.5 5.4c-0.133 0.133-0.34 0.25-0.62 0.35-0.287 0.1-0.597 0.15-0.93 0.15v0h-7.7c-0.8 0-1.383-0.183-1.75-0.55-0.367-0.367-0.55-0.95-0.55-1.75v0-9.75c0-0.333-0.067-0.6-0.2-0.8-0.133-0.2-0.317-0.317-0.55-0.35v0 5.45c0 0.433-0.057 0.8-0.17 1.1-0.12 0.3-0.297 0.55-0.53 0.75zM67.35 5.95v0h-21.3c-0.8 0-1.383-0.183-1.75-0.55-0.367-0.367-0.55-0.95-0.55-1.75v0-5.95c0-0.433 0.06-0.8 0.18-1.1 0.113-0.3 0.287-0.55 0.52-0.75v0l6.05-5.1v-11.15h-4.45c-0.8 0-1.383-0.183-1.75-0.55-0.367-0.367-0.55-0.95-0.55-1.75v0-6.05c0-0.433 0.06-0.8 0.18-1.1 0.113-0.3 0.287-0.55 0.52-0.75v0l6.45-5.45c0.167-0.133 0.393-0.243 0.68-0.33 0.28-0.08 0.587-0.12 0.92-0.12v0h21.3c0.8 0 1.383 0.183 1.75 0.55 0.367 0.367 0.55 0.95 0.55 1.75v0 6.05c0 0.433-0.057 0.8-0.17 1.1-0.12 0.3-0.297 0.55-0.53 0.75v0l-5.95 5v11.25h4.35c0.8 0 1.383 0.183 1.75 0.55 0.367 0.367 0.55 0.95 0.55 1.75v0 5.95c0 0.433-0.057 0.8-0.17 1.1-0.12 0.3-0.297 0.55-0.53 0.75v0l-6.5 5.4c-0.133 0.133-0.34 0.25-0.62 0.35-0.287 0.1-0.597 0.15-0.93 0.15zM52.5 0v0h21.3c0.633 0 1.093-0.143 1.38-0.43 0.28-0.28 0.42-0.737 0.42-1.37v0-5.95c0-0.633-0.14-1.093-0.42-1.38-0.287-0.28-0.747-0.42-1.38-0.42v0h-4.85v-16.8h4.85c0.633 0 1.093-0.143 1.38-0.43 0.28-0.28 0.42-0.737 0.42-1.37v0-6.05c0-0.633-0.14-1.093-0.42-1.38-0.287-0.28-0.747-0.42-1.38-0.42v0h-21.3c-0.633 0-1.09 0.14-1.37 0.42-0.287 0.287-0.43 0.747-0.43 1.38v0 6.05c0 0.633 0.143 1.09 0.43 1.37 0.28 0.287 0.737 0.43 1.37 0.43v0h4.95v16.8h-4.95c-0.633 0-1.09 0.14-1.37 0.42-0.287 0.287-0.43 0.747-0.43 1.38v0 5.95c0 0.633 0.143 1.09 0.43 1.37 0.28 0.287 0.737 0.43 1.37 0.43zM71.1-5v0.5h-15.9v-0.5h7.75v-26h-7.75v-0.5h15.9v0.5h-7.65v26zM105.3 5.95v0h-23.2c-0.8 0-1.383-0.183-1.75-0.55-0.367-0.367-0.55-0.95-0.55-1.75v0-32.4c0-0.433 0.06-0.8 0.18-1.1 0.113-0.3 0.287-0.55 0.52-0.75v0l6.45-5.45c0.167-0.133 0.393-0.243 0.68-0.33 0.28-0.08 0.587-0.12 0.92-0.12v0h23.2c0.8 0 1.383 0.183 1.75 0.55 0.367 0.367 0.55 0.95 0.55 1.75v0 5.85c0 0.433-0.057 0.8-0.17 1.1-0.12 0.3-0.297 0.55-0.53 0.75v0l-4.3 3.55c0.333 0.167 0.577 0.417 0.73 0.75 0.147 0.333 0.22 0.767 0.22 1.3v0 5.35c0 0.433-0.057 0.8-0.17 1.1-0.12 0.3-0.297 0.55-0.53 0.75v0l-4.45 3.75h6.9c0.8 0 1.383 0.183 1.75 0.55 0.367 0.367 0.55 0.95 0.55 1.75v0 5.85c0 0.433-0.057 0.8-0.17 1.1-0.12 0.3-0.297 0.55-0.53 0.75v0l-6.5 5.4c-0.133 0.133-0.34 0.25-0.62 0.35-0.287 0.1-0.597 0.15-0.93 0.15zM88.55 0h23.2c0.633 0 1.093-0.143 1.38-0.43 0.28-0.28 0.42-0.737 0.42-1.37v0-5.85c0-0.633-0.14-1.093-0.42-1.38-0.287-0.28-0.747-0.42-1.38-0.42v0h-13.8v-4.3h9.75c0.633 0 1.093-0.143 1.38-0.43 0.28-0.28 0.42-0.737 0.42-1.37v0-5.35c0-0.633-0.14-1.093-0.42-1.38-0.287-0.28-0.747-0.42-1.38-0.42v0h-9.75v-3.85h13.8c0.633 0 1.093-0.143 1.38-0.43 0.28-0.28 0.42-0.737 0.42-1.37v0-5.85c0-0.633-0.14-1.093-0.42-1.38-0.287-0.28-0.747-0.42-1.38-0.42v0h-23.2c-0.633 0-1.09 0.14-1.37 0.42-0.287 0.287-0.43 0.747-0.43 1.38v0 32.4c0 0.633 0.143 1.09 0.43 1.37 0.28 0.287 0.737 0.43 1.37 0.43zM92.7-5h16.35v0.5h-16.85v-27h16.85v0.5h-16.35v12.55h12.3v0.5h-12.3zM131.05-31.1v0l18.4 20.7v-21.1h0.5v27h-0.5v-5.15l-18.9-21.2c-0.033-0.033-0.073-0.067-0.12-0.1-0.053-0.033-0.097-0.05-0.13-0.05v0c-0.033 0-0.057 0.017-0.07 0.05-0.02 0.033-0.03 0.067-0.03 0.1v0 26.35h-0.5v-26.45c0-0.2 0.067-0.35 0.2-0.45 0.133-0.1 0.267-0.15 0.4-0.15v0c0.133 0 0.25 0.033 0.35 0.1 0.1 0.067 0.233 0.183 0.4 0.35zM126.25 0h7.5c0.633 0 1.093-0.143 1.38-0.43 0.28-0.28 0.42-0.737 0.42-1.37v0-16.5l8.55 10.35v6.15c0 0.633 0.143 1.09 0.43 1.37 0.28 0.287 0.737 0.43 1.37 0.43v0h7.5c0.633 0 1.093-0.143 1.38-0.43 0.28-0.28 0.42-0.737 0.42-1.37v0-32.4c0-0.633-0.14-1.093-0.42-1.38-0.287-0.28-0.747-0.42-1.38-0.42v0h-7.5c-0.633 0-1.09 0.14-1.37 0.42-0.287 0.287-0.43 0.747-0.43 1.38v0 10.65l-9.7-11.1c-0.433-0.5-0.873-0.85-1.32-1.05-0.453-0.2-0.997-0.3-1.63-0.3v0h-5.2c-0.633 0-1.09 0.14-1.37 0.42-0.287 0.287-0.43 0.747-0.43 1.38v0 32.4c0 0.633 0.143 1.09 0.43 1.37 0.28 0.287 0.737 0.43 1.37 0.43zM135.35 0.05v0l-6.5 5.4c-0.133 0.133-0.34 0.25-0.62 0.35-0.287 0.1-0.597 0.15-0.93 0.15v0h-7.5c-0.8 0-1.383-0.183-1.75-0.55-0.367-0.367-0.55-0.95-0.55-1.75v0-32.4c0-0.433 0.06-0.8 0.18-1.1 0.113-0.3 0.287-0.55 0.52-0.75v0l6.45-5.45c0.167-0.133 0.393-0.243 0.68-0.33 0.28-0.08 0.587-0.12 0.92-0.12v0h5.2c0.733 0 1.35 0.117 1.85 0.35 0.5 0.233 1 0.617 1.5 1.15v0l3.45 4 6.05-5.05c0.167-0.133 0.393-0.243 0.68-0.33 0.28-0.08 0.587-0.12 0.92-0.12v0h7.5c0.8 0 1.383 0.183 1.75 0.55 0.367 0.367 0.55 0.95 0.55 1.75v0 32.4c0 0.433-0.057 0.8-0.17 1.1-0.12 0.3-0.297 0.55-0.53 0.75v0l-6.5 5.4c-0.133 0.133-0.34 0.25-0.62 0.35-0.287 0.1-0.597 0.15-0.93 0.15v0h-7.5c-0.8 0-1.383-0.183-1.75-0.55-0.367-0.367-0.55-0.95-0.55-1.75v0-5.95l-1.1-1.35v1.85c0 0.433-0.057 0.8-0.17 1.1-0.12 0.3-0.297 0.55-0.53 0.75z" fill="#ed1703" fill-rule="nonzero" stroke="none" stroke-width="1" stroke-linecap="butt" stroke-linejoin="miter" stroke-miterlimit="10" stroke-dasharray="" stroke-dashoffset="0" font-family="none" font-weight="none" font-size="none" text-anchor="none" style="mix-blend-mode: normal" data-fill-palette-color="primary" opacity="1"></path><path xmlns="http://www.w3.org/2000/svg" d="M15.8 15.1v0l18.4 20.7v-21.1h0.5v27h-0.5v-5.15l-18.9-21.2c-0.033-0.033-0.073-0.067-0.12-0.1-0.053-0.033-0.097-0.05-0.13-0.05v0c-0.033 0-0.057 0.017-0.07 0.05-0.02 0.033-0.03 0.067-0.03 0.1v0 26.35h-0.5v-26.45c0-0.2 0.067-0.35 0.2-0.45 0.133-0.1 0.267-0.15 0.4-0.15v0c0.133 0 0.25 0.033 0.35 0.1 0.1 0.067 0.233 0.183 0.4 0.35zM11 46.2h7.5c0.633 0 1.093-0.143 1.38-0.43 0.28-0.28 0.42-0.737 0.42-1.37v0-16.5l8.55 10.35v6.15c0 0.633 0.143 1.09 0.43 1.37 0.28 0.287 0.737 0.43 1.37 0.43v0h7.5c0.633 0 1.093-0.143 1.38-0.43 0.28-0.28 0.42-0.737 0.42-1.37v0-32.4c0-0.633-0.14-1.093-0.42-1.38-0.287-0.28-0.747-0.42-1.38-0.42v0h-7.5c-0.633 0-1.09 0.14-1.37 0.42-0.287 0.287-0.43 0.747-0.43 1.38v0 10.65l-9.7-11.1c-0.433-0.5-0.877-0.85-1.33-1.05-0.447-0.2-0.987-0.3-1.62-0.3v0h-5.2c-0.633 0-1.09 0.14-1.37 0.42-0.287 0.287-0.43 0.747-0.43 1.38v0 32.4c0 0.633 0.143 1.09 0.43 1.37 0.28 0.287 0.737 0.43 1.37 0.43zM20.1 46.25v0l-6.5 5.4c-0.133 0.133-0.34 0.25-0.62 0.35-0.287 0.1-0.597 0.15-0.93 0.15v0h-7.5c-0.8 0-1.383-0.183-1.75-0.55-0.367-0.367-0.55-0.95-0.55-1.75v0-32.4c0-0.433 0.06-0.8 0.18-1.1 0.113-0.3 0.287-0.55 0.52-0.75v0l6.45-5.45c0.167-0.133 0.393-0.243 0.68-0.33 0.28-0.08 0.587-0.12 0.92-0.12v0h5.2c0.733 0 1.35 0.117 1.85 0.35 0.5 0.233 1 0.617 1.5 1.15v0l3.45 4 6.05-5.05c0.167-0.133 0.393-0.243 0.68-0.33 0.28-0.08 0.587-0.12 0.92-0.12v0h7.5c0.8 0 1.383 0.183 1.75 0.55 0.367 0.367 0.55 0.95 0.55 1.75v0 32.4c0 0.433-0.057 0.8-0.17 1.1-0.12 0.3-0.297 0.55-0.53 0.75v0l-6.5 5.4c-0.133 0.133-0.34 0.25-0.62 0.35-0.287 0.1-0.597 0.15-0.93 0.15v0h-7.5c-0.8 0-1.383-0.183-1.75-0.55-0.367-0.367-0.55-0.95-0.55-1.75v0-5.95l-1.1-1.35v1.85c0 0.433-0.057 0.8-0.17 1.1-0.12 0.3-0.297 0.55-0.53 0.75zM72.9 52.15v0h-15.75c-4.367 0-7.59-1.133-9.67-3.4-2.087-2.267-3.13-5.2-3.13-8.8v0-14.1c0-1.833 0.267-3.417 0.8-4.75 0.533-1.333 1.317-2.45 2.35-3.35v0l6.45-5.45c1.033-0.867 2.36-1.517 3.98-1.95 1.613-0.433 3.503-0.65 5.67-0.65v0h12.5c0.8 0 1.383 0.183 1.75 0.55 0.367 0.367 0.55 0.95 0.55 1.75v0 6.05c0 0.433-0.057 0.8-0.17 1.1-0.12 0.3-0.297 0.55-0.53 0.75v0l-6.5 5.4c-0.133 0.133-0.34 0.25-0.62 0.35-0.287 0.1-0.597 0.15-0.93 0.15v0h-6.5v7.2c0.033-0.067 0.093-0.143 0.18-0.23 0.08-0.08 0.153-0.153 0.22-0.22v0l6.45-5.45c0.167-0.133 0.393-0.243 0.68-0.33 0.28-0.08 0.587-0.12 0.92-0.12v0h7.75c0.8 0 1.383 0.183 1.75 0.55 0.367 0.367 0.55 0.95 0.55 1.75v0 15.45c0 0.433-0.057 0.8-0.17 1.1-0.12 0.3-0.297 0.55-0.53 0.75v0l-6.5 5.4c-0.133 0.133-0.34 0.25-0.62 0.35-0.287 0.1-0.597 0.15-0.93 0.15zM63.6 46.2h15.75c0.633 0 1.093-0.143 1.38-0.43 0.28-0.28 0.42-0.737 0.42-1.37v0-15.45c0-0.633-0.14-1.093-0.42-1.38-0.287-0.28-0.747-0.42-1.38-0.42v0h-7.75c-0.633 0-1.09 0.14-1.37 0.42-0.287 0.287-0.43 0.747-0.43 1.38v0 7.8h-4.85c-0.767 0-1.34-0.2-1.72-0.6-0.387-0.4-0.58-1.017-0.58-1.85v0-11.95c0-0.833 0.25-1.46 0.75-1.88 0.5-0.413 1.267-0.62 2.3-0.62v0h10.4c0.633 0 1.093-0.143 1.38-0.43 0.28-0.28 0.42-0.737 0.42-1.37v0-6.05c0-0.633-0.14-1.093-0.42-1.38-0.287-0.28-0.747-0.42-1.38-0.42v0h-12.5c-4.167 0-7.257 0.833-9.27 2.5-2.02 1.667-3.03 4.233-3.03 7.7v0 15.6c0 3.467 1.01 6.033 3.03 7.7 2.013 1.667 5.103 2.5 9.27 2.5zM75.7 41.7h-9.95c-1.833 0-3.333-0.117-4.5-0.35-1.167-0.233-2.083-0.61-2.75-1.13-0.667-0.513-1.123-1.18-1.37-2-0.253-0.813-0.38-1.803-0.38-2.97v0-14c0-2.367 0.533-4.05 1.6-5.05 1.067-1 3.2-1.5 6.4-1.5v0h8.65v0.5h-8.65c-2.933 0-4.917 0.457-5.95 1.37-1.033 0.92-1.55 2.48-1.55 4.68v0 14c0 2.167 0.577 3.7 1.73 4.6 1.147 0.9 3.403 1.35 6.77 1.35v0h9.45v-9.55h0.5zM101 52.9v0c-3.233 0-5.89-0.34-7.97-1.02-2.087-0.687-3.713-1.597-4.88-2.73-1.167-1.133-1.973-2.433-2.42-3.9-0.453-1.467-0.68-2.983-0.68-4.55v0-23.25c0-0.433 0.06-0.8 0.18-1.1 0.113-0.3 0.287-0.55 0.52-0.75v0l6.45-5.45c0.167-0.133 0.393-0.243 0.68-0.33 0.28-0.08 0.587-0.12 0.92-0.12v0h7.85c0.8 0 1.383 0.183 1.75 0.55 0.367 0.367 0.55 0.95 0.55 1.75v0 22.8c0 0.3 0.05 0.573 0.15 0.82 0.1 0.253 0.317 0.447 0.65 0.58v0-18.75c0-0.433 0.05-0.8 0.15-1.1 0.1-0.3 0.25-0.533 0.45-0.7v0l0.05-0.05 6.5-5.45c0.167-0.133 0.383-0.243 0.65-0.33 0.267-0.08 0.583-0.12 0.95-0.12v0h7.6c0.8 0 1.383 0.183 1.75 0.55 0.367 0.367 0.55 0.95 0.55 1.75v0 24.75c0 1.533-0.217 2.95-0.65 4.25-0.433 1.3-1.217 2.417-2.35 3.35v0l-6.5 5.4c-1.167 1-2.783 1.777-4.85 2.33-2.067 0.547-4.75 0.82-8.05 0.82zM122.9 36.75v0-24.75c0-0.633-0.14-1.093-0.42-1.38-0.287-0.28-0.747-0.42-1.38-0.42v0h-7.6c-0.633 0-1.09 0.14-1.37 0.42-0.287 0.287-0.43 0.747-0.43 1.38v0 22.8c0 0.667-0.25 1.223-0.75 1.67-0.5 0.453-1.633 0.68-3.4 0.68v0c-1.733 0-2.85-0.227-3.35-0.68-0.5-0.447-0.75-1.003-0.75-1.67v0-22.8c0-0.633-0.14-1.093-0.42-1.38-0.287-0.28-0.747-0.42-1.38-0.42v0h-7.85c-0.633 0-1.09 0.14-1.37 0.42-0.287 0.287-0.43 0.747-0.43 1.38v0 24.75c0 1.533 0.227 2.923 0.68 4.17 0.447 1.253 1.247 2.32 2.4 3.2 1.147 0.887 2.72 1.58 4.72 2.08 2 0.5 4.55 0.75 7.65 0.75v0c3.1 0 5.65-0.25 7.65-0.75 2-0.5 3.577-1.193 4.73-2.08 1.147-0.88 1.947-1.947 2.4-3.2 0.447-1.247 0.67-2.637 0.67-4.17zM97.5 35.55v-20.85h0.5v20.85c0 1.867 0.66 3.373 1.98 4.52 1.313 1.153 3.82 1.73 7.52 1.73v0c3.7 0 6.217-0.577 7.55-1.73 1.333-1.147 2-2.653 2-4.52v0-20.85h0.5v20.85c0 2-0.7 3.623-2.1 4.87-1.4 1.253-4.05 1.88-7.95 1.88v0c-3.9 0-6.54-0.627-7.92-1.88-1.387-1.247-2.08-2.87-2.08-4.87zM146.35 52.15v0h-8.1c-0.833 0-1.423-0.183-1.77-0.55-0.353-0.367-0.53-0.95-0.53-1.75v0-6.25l-7.55-10.1c-0.8-1.067-1.333-2-1.6-2.8-0.267-0.8-0.4-2.017-0.4-3.65v0-9.6c0-0.433 0.06-0.8 0.18-1.1 0.113-0.3 0.287-0.55 0.52-0.75v0l6.45-5.45c0.167-0.133 0.393-0.243 0.68-0.33 0.28-0.08 0.587-0.12 0.92-0.12v0h7.7c0.8 0 1.383 0.183 1.75 0.55 0.367 0.367 0.55 0.95 0.55 1.75v0 8.2c0 0.3 0.017 0.6 0.05 0.9 0.033 0.3 0.133 0.617 0.3 0.95v0l0.6 0.85v-5.45c0-0.433 0.06-0.8 0.18-1.1 0.113-0.3 0.287-0.55 0.52-0.75v0l6.45-5.45c0.167-0.133 0.393-0.243 0.68-0.33 0.28-0.08 0.587-0.12 0.92-0.12v0h7.45c0.8 0 1.383 0.183 1.75 0.55 0.367 0.367 0.55 0.95 0.55 1.75v0 9.6c0 1.633-0.133 2.85-0.4 3.65-0.267 0.8-0.8 1.733-1.6 2.8v0l-7.5 10.15v6.2c0 0.433-0.057 0.8-0.17 1.1-0.12 0.3-0.297 0.55-0.53 0.75v0l-6.5 5.4c-0.133 0.133-0.34 0.25-0.62 0.35-0.287 0.1-0.597 0.15-0.93 0.15zM144.7 46.2h8.1c0.633 0 1.093-0.143 1.38-0.43 0.28-0.28 0.42-0.737 0.42-1.37v0-6.35l7.6-10.3c0.733-1.033 1.233-1.933 1.5-2.7 0.267-0.767 0.4-1.917 0.4-3.45v0-9.6c0-0.633-0.14-1.093-0.42-1.38-0.287-0.28-0.747-0.42-1.38-0.42v0h-7.45c-0.633 0-1.09 0.14-1.37 0.42-0.287 0.287-0.43 0.747-0.43 1.38v0 8.2c0 0.333-0.017 0.683-0.05 1.05-0.033 0.367-0.167 0.717-0.4 1.05v0l-2.3 3.6c-0.167 0.3-0.34 0.517-0.52 0.65-0.187 0.133-0.413 0.2-0.68 0.2v0h-0.5c-0.267 0-0.49-0.067-0.67-0.2-0.187-0.133-0.363-0.35-0.53-0.65v0l-2.3-3.6c-0.233-0.333-0.367-0.683-0.4-1.05-0.033-0.367-0.05-0.717-0.05-1.05v0-8.2c0-0.633-0.14-1.093-0.42-1.38-0.287-0.28-0.747-0.42-1.38-0.42v0h-7.7c-0.633 0-1.09 0.14-1.37 0.42-0.287 0.287-0.43 0.747-0.43 1.38v0 9.6c0 1.533 0.127 2.683 0.38 3.45 0.247 0.767 0.753 1.667 1.52 2.7v0l7.65 10.25v6.4c0 0.633 0.143 1.09 0.43 1.37 0.28 0.287 0.737 0.43 1.37 0.43zM149.35 33.15v0h-0.35v8.55h-0.5v-8.55h-0.5c-0.733 0-1.39-0.167-1.97-0.5-0.587-0.333-1.147-0.867-1.68-1.6v0l-4.85-6.75c-0.367-0.5-0.583-1.083-0.65-1.75-0.067-0.667-0.1-1.367-0.1-2.1v0-5.75h0.5v5.75c0 0.7 0.033 1.357 0.1 1.97 0.067 0.62 0.267 1.18 0.6 1.68v0l4.85 6.75c0.433 0.667 0.933 1.133 1.5 1.4 0.567 0.267 1.133 0.4 1.7 0.4v0h1.35c0.633 0 1.21-0.143 1.73-0.43 0.513-0.28 1.02-0.737 1.52-1.37v0l5-6.75c0.333-0.433 0.533-0.977 0.6-1.63 0.067-0.647 0.1-1.32 0.1-2.02v0-5.75h0.5v5.75c0 0.733-0.023 1.423-0.07 2.07-0.053 0.653-0.28 1.247-0.68 1.78v0l-5 6.75c-0.533 0.733-1.09 1.267-1.67 1.6-0.587 0.333-1.263 0.5-2.03 0.5zM193.35 52.15v0h-23.2c-0.8 0-1.383-0.183-1.75-0.55-0.367-0.367-0.55-0.95-0.55-1.75v0-32.4c0-0.433 0.06-0.8 0.18-1.1 0.113-0.3 0.287-0.55 0.52-0.75v0l6.45-5.45c0.167-0.133 0.393-0.243 0.68-0.33 0.28-0.08 0.587-0.12 0.92-0.12v0h23.2c0.8 0 1.383 0.183 1.75 0.55 0.367 0.367 0.55 0.95 0.55 1.75v0 5.85c0 0.433-0.057 0.8-0.17 1.1-0.12 0.3-0.297 0.55-0.53 0.75v0l-4.3 3.55c0.333 0.167 0.577 0.417 0.73 0.75 0.147 0.333 0.22 0.767 0.22 1.3v0 5.35c0 0.433-0.057 0.8-0.17 1.1-0.12 0.3-0.297 0.55-0.53 0.75v0l-4.45 3.75h6.9c0.8 0 1.383 0.183 1.75 0.55 0.367 0.367 0.55 0.95 0.55 1.75v0 5.85c0 0.433-0.057 0.8-0.17 1.1-0.12 0.3-0.297 0.55-0.53 0.75v0l-6.5 5.4c-0.133 0.133-0.34 0.25-0.62 0.35-0.287 0.1-0.597 0.15-0.93 0.15zM176.6 46.2h23.2c0.633 0 1.093-0.143 1.38-0.43 0.28-0.28 0.42-0.737 0.42-1.37v0-5.85c0-0.633-0.14-1.093-0.42-1.38-0.287-0.28-0.747-0.42-1.38-0.42v0h-13.8v-4.3h9.75c0.633 0 1.093-0.143 1.38-0.43 0.28-0.28 0.42-0.737 0.42-1.37v0-5.35c0-0.633-0.14-1.093-0.42-1.38-0.287-0.28-0.747-0.42-1.38-0.42v0h-9.75v-3.85h13.8c0.633 0 1.093-0.143 1.38-0.43 0.28-0.28 0.42-0.737 0.42-1.37v0-5.85c0-0.633-0.14-1.093-0.42-1.38-0.287-0.28-0.747-0.42-1.38-0.42v0h-23.2c-0.633 0-1.09 0.14-1.37 0.42-0.287 0.287-0.43 0.747-0.43 1.38v0 32.4c0 0.633 0.143 1.09 0.43 1.37 0.28 0.287 0.737 0.43 1.37 0.43zM180.75 41.2h16.35v0.5h-16.85v-27h16.85v0.5h-16.35v12.55h12.3v0.5h-12.3zM219.1 15.1v0l18.4 20.7v-21.1h0.5v27h-0.5v-5.15l-18.9-21.2c-0.033-0.033-0.073-0.067-0.12-0.1-0.053-0.033-0.097-0.05-0.13-0.05v0c-0.033 0-0.057 0.017-0.07 0.05-0.02 0.033-0.03 0.067-0.03 0.1v0 26.35h-0.5v-26.45c0-0.2 0.067-0.35 0.2-0.45 0.133-0.1 0.267-0.15 0.4-0.15v0c0.133 0 0.25 0.033 0.35 0.1 0.1 0.067 0.233 0.183 0.4 0.35zM214.3 46.2h7.5c0.633 0 1.093-0.143 1.38-0.43 0.28-0.28 0.42-0.737 0.42-1.37v0-16.5l8.55 10.35v6.15c0 0.633 0.143 1.09 0.43 1.37 0.28 0.287 0.737 0.43 1.37 0.43v0h7.5c0.633 0 1.093-0.143 1.38-0.43 0.28-0.28 0.42-0.737 0.42-1.37v0-32.4c0-0.633-0.14-1.093-0.42-1.38-0.287-0.28-0.747-0.42-1.38-0.42v0h-7.5c-0.633 0-1.09 0.14-1.37 0.42-0.287 0.287-0.43 0.747-0.43 1.38v0 10.65l-9.7-11.1c-0.433-0.5-0.873-0.85-1.32-1.05-0.453-0.2-0.997-0.3-1.63-0.3v0h-5.2c-0.633 0-1.09 0.14-1.37 0.42-0.287 0.287-0.43 0.747-0.43 1.38v0 32.4c0 0.633 0.143 1.09 0.43 1.37 0.28 0.287 0.737 0.43 1.37 0.43zM223.4 46.25v0l-6.5 5.4c-0.133 0.133-0.34 0.25-0.62 0.35-0.287 0.1-0.597 0.15-0.93 0.15v0h-7.5c-0.8 0-1.383-0.183-1.75-0.55-0.367-0.367-0.55-0.95-0.55-1.75v0-32.4c0-0.433 0.06-0.8 0.18-1.1 0.113-0.3 0.287-0.55 0.52-0.75v0l6.45-5.45c0.167-0.133 0.393-0.243 0.68-0.33 0.28-0.08 0.587-0.12 0.92-0.12v0h5.2c0.733 0 1.35 0.117 1.85 0.35 0.5 0.233 1 0.617 1.5 1.15v0l3.45 4 6.05-5.05c0.167-0.133 0.393-0.243 0.68-0.33 0.28-0.08 0.587-0.12 0.92-0.12v0h7.5c0.8 0 1.383 0.183 1.75 0.55 0.367 0.367 0.55 0.95 0.55 1.75v0 32.4c0 0.433-0.057 0.8-0.17 1.1-0.12 0.3-0.297 0.55-0.53 0.75v0l-6.5 5.4c-0.133 0.133-0.34 0.25-0.62 0.35-0.287 0.1-0.597 0.15-0.93 0.15v0h-7.5c-0.8 0-1.383-0.183-1.75-0.55-0.367-0.367-0.55-0.95-0.55-1.75v0-5.95l-1.1-1.35v1.85c0 0.433-0.057 0.8-0.17 1.1-0.12 0.3-0.297 0.55-0.53 0.75z" fill="#ff908b" fill-rule="nonzero" stroke="none" stroke-width="1" stroke-linecap="butt" stroke-linejoin="miter" stroke-miterlimit="10" stroke-dasharray="" stroke-dashoffset="0" font-family="none" font-weight="none" font-size="none" text-anchor="none" style="mix-blend-mode: normal" data-fill-palette-color="secondary" opacity="1"></path></g></svg></g></svg></g><g transform="matrix(1,0,0,1,0,168.03209969053418)"><svg viewBox="0 0 232.209792 23.179796819863185" height="23.179796819863185" width="232.209792"><g transform="matrix(1,0,0,1,0,0)"><svg width="232.209792" viewBox="1 -32.04999923706055 394.6499938964844 39.39999771118164" height="23.179796819863185" data-palette-color="#ff908b"><path d="M25.15-31.05L33.05-31.05 30.25 0 19.95 0 17.25-13.75 16.85-13.75 14.6 0 4.25 0 1-31.05 9.2-31.05 10.5-14.6 11-14.6 13.1-31.05 21.45-31.05 23.75-14.6 24.25-14.6 25.15-31.05ZM45.55-17.4L45.55-17.4Q44.25-17.4 43.85-16.53 43.45-15.65 43.45-13.85L43.45-13.85 47.8-13.85 47.8-15.05Q47.8-17.4 45.55-17.4ZM45.75-24.55L45.75-24.55Q50.9-24.55 53.12-22.08 55.35-19.6 55.35-15L55.35-15Q55.35-14.4 55-9.6L55-9.6 43.6-9.6Q43.6-5.85 47.05-5.85L47.05-5.85Q48.7-5.85 53.5-7L53.5-7 54.2-0.8Q50 0.5 45.8 0.5L45.8 0.5Q40.65 0.5 37.9-2.88 35.15-6.25 35.15-12.05L35.15-12.05Q35.15-24.55 45.75-24.55ZM57.65-5.5L57.65-5.5 57.65-32.05 65.9-32.05 65.9-8.15Q65.9-7.3 66.27-6.95 66.65-6.6 67.6-6.6L67.6-6.6 66.95 0.5 64.2 0.5Q60.9 0.5 59.27-0.88 57.65-2.25 57.65-5.5ZM79.77-17.25Q78.29-17.25 77.79-15.93 77.29-14.6 77.29-11.8 77.29-9 77.77-7.75 78.24-6.5 79.77-6.5 81.29-6.5 83.74-7.05L83.74-7.05 84.64-0.65Q81.19 0.5 78.49 0.5L78.49 0.5Q73.74 0.5 71.32-2.7 68.89-5.9 68.89-11.65 68.89-17.4 71.39-20.98 73.89-24.55 78.64-24.55L78.64-24.55Q82.19-24.55 85.04-23.35L85.04-23.35 84.14-16Q81.24-17.25 79.77-17.25ZM86.14-12.08Q86.14-18.65 88.67-21.6 91.19-24.55 96.57-24.55 101.94-24.55 104.39-21.65 106.84-18.75 106.84-12.13 106.84-5.5 104.44-2.5 102.04 0.5 96.59 0.5 91.14 0.5 88.64-2.5 86.14-5.5 86.14-12.08ZM98.17-16.8Q97.84-17.8 96.54-17.8 95.24-17.8 94.89-16.8 94.54-15.8 94.54-12.6L94.54-12.6 94.54-11.4Q94.54-7.85 94.89-6.8 95.24-5.75 96.52-5.75 97.79-5.75 98.14-6.8 98.49-7.85 98.49-11.1L98.49-11.1 98.49-12.55Q98.49-15.8 98.17-16.8ZM129.24-21.75L129.74-22.2Q132.49-24.55 135.79-24.55 139.09-24.55 140.41-23.03 141.74-21.5 141.74-18.45L141.74-18.45 141.74 0 133.24 0 133.24-15.6Q133.24-16.85 132.14-16.85L132.14-16.85Q130.74-16.85 129.79-16.15L129.79-16.15 129.79 0 121.29 0 121.29-15.6Q121.29-16.85 120.19-16.85L120.19-16.85Q118.79-16.85 117.84-16.15L117.84-16.15 117.84 0 109.44 0 109.44-23.95 117.09-23.95 117.59-22.2 117.79-22.2Q120.54-24.55 124.31-24.55 128.09-24.55 129.24-21.75L129.24-21.75ZM154.74-17.4L154.74-17.4Q153.44-17.4 153.04-16.53 152.64-15.65 152.64-13.85L152.64-13.85 156.99-13.85 156.99-15.05Q156.99-17.4 154.74-17.4ZM154.94-24.55L154.94-24.55Q160.09-24.55 162.31-22.08 164.54-19.6 164.54-15L164.54-15Q164.54-14.4 164.19-9.6L164.19-9.6 152.79-9.6Q152.79-5.85 156.24-5.85L156.24-5.85Q157.89-5.85 162.69-7L162.69-7 163.39-0.8Q159.19 0.5 154.99 0.5L154.99 0.5Q149.84 0.5 147.09-2.88 144.34-6.25 144.34-12.05L144.34-12.05Q144.34-24.55 154.94-24.55ZM191.08-6.6L190.83 0.05Q187.13 0.5 184.41 0.5 181.68 0.5 180.16-0.93 178.63-2.35 178.63-5.85L178.63-5.85 178.63-17.45 176.23-17.45 176.23-23.65 179.03-23.65 179.48-28.25 187.03-28.25 187.03-23.65 191.48-23.65 191.13-17.45 186.98-17.45 186.98-7.5Q186.98-6.45 187.98-6.45L187.98-6.45Q188.08-6.45 191.08-6.6L191.08-6.6ZM192.78-12.08Q192.78-18.65 195.3-21.6 197.83-24.55 203.2-24.55 208.58-24.55 211.03-21.65 213.48-18.75 213.48-12.13 213.48-5.5 211.08-2.5 208.68 0.5 203.23 0.5 197.78 0.5 195.28-2.5 192.78-5.5 192.78-12.08ZM204.8-16.8Q204.48-17.8 203.18-17.8 201.88-17.8 201.53-16.8 201.18-15.8 201.18-12.6L201.18-12.6 201.18-11.4Q201.18-7.85 201.53-6.8 201.88-5.75 203.15-5.75 204.43-5.75 204.78-6.8 205.13-7.85 205.13-11.1L205.13-11.1 205.13-12.55Q205.13-15.8 204.8-16.8ZM246.37-21.75L246.87-22.2Q249.62-24.55 252.92-24.55 256.22-24.55 257.55-23.03 258.87-21.5 258.87-18.45L258.87-18.45 258.87 0 250.37 0 250.37-15.6Q250.37-16.85 249.27-16.85L249.27-16.85Q247.87-16.85 246.92-16.15L246.92-16.15 246.92 0 238.42 0 238.42-15.6Q238.42-16.85 237.32-16.85L237.32-16.85Q235.92-16.85 234.97-16.15L234.97-16.15 234.97 0 226.57 0 226.57-23.95 234.22-23.95 234.72-22.2 234.92-22.2Q237.67-24.55 241.45-24.55 245.22-24.55 246.37-21.75L246.37-21.75ZM274.42-23.95L282.62-23.95 276.42 0.7Q275.47 4.4 273.62 5.88 271.77 7.35 267.57 7.35L267.57 7.35 262.57 7.35 261.82 0.9 264.62 0.9Q266.32 0.9 266.32-0.45L266.32-0.45Q266.32-0.75 266.12-1.75L266.12-1.75 260.37-23.95 269.27-23.95 271.52-9 271.97-9 274.42-23.95ZM314.37-23.95L321.77-23.95 318.72 0 309.57 0 307.62-10.1 307.27-10.1 305.37 0 296.42 0 293.37-23.95 301.07-23.95 302.12-11.85 302.52-11.85 304.22-23.95 311.17-23.95 312.82-11.85 313.27-11.85 314.37-23.95ZM323.11-12.08Q323.11-18.65 325.64-21.6 328.16-24.55 333.54-24.55 338.91-24.55 341.36-21.65 343.81-18.75 343.81-12.13 343.81-5.5 341.41-2.5 339.01 0.5 333.56 0.5 328.11 0.5 325.61-2.5 323.11-5.5 323.11-12.08ZM335.14-16.8Q334.81-17.8 333.51-17.8 332.21-17.8 331.86-16.8 331.51-15.8 331.51-12.6L331.51-12.6 331.51-11.4Q331.51-7.85 331.86-6.8 332.21-5.75 333.49-5.75 334.76-5.75 335.11-6.8 335.46-7.85 335.46-11.1L335.46-11.1 335.46-12.55Q335.46-15.8 335.14-16.8ZM354.71-13.45L354.71-13.45 354.71 0 346.41 0 346.41-23.95 353.71-23.95 354.21-22.5 354.41-22.5Q355.56-23.8 356.74-24.18 357.91-24.55 360.56-24.55L360.56-24.55 360.21-16.55 357.91-16.55Q355.96-16.55 355.34-15.95 354.71-15.35 354.71-13.45ZM362.06-5.5L362.06-5.5 362.06-32.05 370.31-32.05 370.31-8.15Q370.31-7.3 370.68-6.95 371.06-6.6 372.01-6.6L372.01-6.6 371.36 0.5 368.61 0.5Q365.31 0.5 363.68-0.88 362.06-2.25 362.06-5.5ZM395.65-5.75L394.9 0.3 391.56 0.5Q387.7 0.5 386.85-2.05L386.85-2.05 386.6-2.05Q384.95 0.5 381.56 0.5L381.56 0.5Q377.06 0.5 375.23-2.65 373.4-5.8 373.4-12.03 373.4-18.25 375.45-21.4 377.5-24.55 381.35-24.55L381.35-24.55Q384-24.55 385.45-23.3L385.45-23.3 385.45-32.05 393.81-32.05 393.81-7.35Q393.81-6.4 394.2-6.08 394.6-5.75 395.65-5.75L395.65-5.75ZM383.58-17.5Q382.5-17.5 382.15-16.23 381.81-14.95 381.81-12.58 381.81-10.2 381.85-9.35 381.9-8.5 382.08-7.63 382.25-6.75 382.63-6.43 383-6.1 383.88-6.1 384.75-6.1 385.7-6.55L385.7-6.55 385.7-16.9Q384.65-17.5 383.58-17.5Z" opacity="1" transform="matrix(1,0,0,1,0,0)" fill="#ff908b" class="undefined-text-1" data-fill-palette-color="secondary" id="text-1"></path></svg></g></svg></g></svg></g></svg></g></svg></g><defs></defs></svg><rect width="395.52" height="191.21189651039737" fill="none" stroke="none" visibility="hidden"></rect></g></svg></g></svg>