<svg width="29" height="28" viewBox="0 0 29 28" fill="none" xmlns="http://www.w3.org/2000/svg">
<path d="M26.953 8.21935C29.9875 15.1567 26.8235 23.2404 19.8862 26.2749C12.9489 29.3093 4.86514 26.1454 1.83068 19.2081C-1.20377 12.2707 1.96014 4.18701 8.89747 1.15255C15.8348 -1.88191 23.9185 1.28201 26.953 8.21935Z" fill="url(#paint0_linear_1_1822)"/>
<path d="M8.93443 9.70532C9.40136 10.7726 8.91471 12.0162 7.84747 12.4832C6.78023 12.9501 5.53653 12.4635 5.0696 11.3962C4.60267 10.329 5.08932 9.0853 6.15656 8.61837C7.2238 8.15144 8.4675 8.63808 8.93443 9.70532Z" fill="url(#paint1_linear_1_1822)"/>
<path d="M21.7441 3.92858C22.0125 4.30919 21.9723 4.79949 21.6544 5.02368C21.3365 5.24787 20.8612 5.12106 20.5928 4.74045C20.3244 4.35983 20.3646 3.86953 20.6825 3.64534C21.0004 3.42115 21.4757 3.54796 21.7441 3.92858Z" fill="url(#paint2_linear_1_1822)"/>
<path d="M26.6604 13.9744C27.0778 14.1197 27.2531 14.7056 27.0521 15.2829C26.8511 15.8603 26.3498 16.2105 25.9325 16.0652C25.5152 15.9199 25.3399 15.3341 25.5409 14.7567C25.7419 14.1794 26.2431 13.8291 26.6604 13.9744Z" fill="url(#paint3_linear_1_1822)"/>
<path d="M13.9915 0.499112C14.0185 0.734473 13.5479 0.981609 12.9406 1.05111C12.3332 1.1206 11.819 0.986143 11.792 0.750782C11.7651 0.51542 12.2356 0.268284 12.843 0.198787C13.4504 0.12929 13.9646 0.26375 13.9915 0.499112Z" fill="url(#paint4_linear_1_1822)"/>
<path d="M19.1374 21.5908C19.432 23.1247 18.1955 24.6516 16.3756 25.0011C14.5557 25.3506 12.8415 24.3905 12.5469 22.8565C12.2523 21.3226 13.4888 19.7957 15.3088 19.4462C17.1287 19.0967 18.8428 20.0568 19.1374 21.5908Z" fill="url(#paint5_linear_1_1822)"/>
<path d="M9.76602 0.603521C9.85748 0.790714 9.31224 1.24508 8.5482 1.61837C7.78416 1.99166 7.09064 2.14253 6.99918 1.95533C6.90772 1.76814 7.45296 1.31378 8.217 0.940483C8.98104 0.56719 9.67456 0.416327 9.76602 0.603521Z" fill="#8A0F18"/>
<path d="M9.88595 0.849532C10.0438 1.17255 9.55233 1.73703 8.78829 2.11033C8.02425 2.48362 7.27693 2.52438 7.11912 2.20136C6.9613 1.87833 7.45274 1.31386 8.21678 0.94056C8.98082 0.567264 9.72813 0.526509 9.88595 0.849532Z" fill="#8A0F18"/>
<path d="M9.32863 0.642158C9.35524 0.696625 8.94302 0.952719 8.40792 1.21416C7.87281 1.4756 7.41745 1.64339 7.39084 1.58892C7.36423 1.53445 7.77644 1.27836 8.31155 1.01692C8.84666 0.755478 9.30202 0.587691 9.32863 0.642158Z" fill="#480307"/>
<path d="M0.20696 15.7349C0.531302 15.6361 1.12102 16.6292 1.52413 17.953C1.92724 19.2769 1.99109 20.4301 1.66675 20.5289C1.34241 20.6276 0.752693 19.6345 0.349583 18.3107C-0.0535273 16.9869 -0.117382 15.8336 0.20696 15.7349Z" fill="url(#paint6_linear_1_1822)"/>
<path d="M0.633225 15.6051C1.19292 15.4346 1.97342 16.3697 2.37654 17.6935C2.77966 19.0173 2.65273 20.2287 2.09304 20.3991C1.53335 20.5695 0.752841 19.6345 0.349724 18.3107C-0.0533924 16.9868 0.0735354 15.7755 0.633225 15.6051Z" fill="url(#paint7_linear_1_1822)"/>
<path d="M0.156459 16.4474C0.25083 16.4186 0.5562 17.1469 0.838522 18.0741C1.12084 19.0013 1.27321 19.7762 1.17884 19.805C1.08447 19.8337 0.779097 19.1054 0.496774 18.1782C0.214452 17.251 0.0620875 16.4761 0.156459 16.4474Z" fill="#350003"/>
<path d="M11.7711 27.1672C11.7838 26.9876 12.9152 26.8643 14.2981 26.8918C15.6809 26.9192 16.7917 27.0871 16.779 27.2666C16.7663 27.4462 15.635 27.5695 14.2521 27.542C12.8692 27.5145 11.7584 27.3467 11.7711 27.1672Z" fill="url(#paint8_linear_1_1822)"/>
<path d="M11.7876 26.9311C11.8095 26.6213 12.9483 26.3924 14.3312 26.4198C15.7141 26.4473 16.8174 26.7208 16.7955 27.0306C16.7735 27.3405 15.6347 27.5694 14.2519 27.5419C12.869 27.5145 11.7657 27.241 11.7876 26.9311Z" fill="url(#paint9_linear_1_1822)"/>
<path d="M12.4281 27.3159C12.4317 27.2637 13.2199 27.2369 14.1884 27.2562C15.1569 27.2754 15.9391 27.3333 15.9354 27.3856C15.9317 27.4378 15.1435 27.4646 14.175 27.4453C13.2065 27.4261 12.4244 27.3682 12.4281 27.3159Z" fill="#150303"/>
<path d="M26.0165 21.4064C25.747 21.2836 25.9346 20.2922 26.4356 19.1921C26.9367 18.0919 27.5613 17.2995 27.8309 17.4223C28.1004 17.545 27.9128 18.5364 27.4117 19.6366C26.9107 20.7368 26.2861 21.5291 26.0165 21.4064Z" fill="url(#paint10_linear_1_1822)"/>
<path d="M25.6625 21.2453C25.1973 21.0334 25.2264 19.9699 25.7274 18.8697C26.2285 17.7695 27.0117 17.0493 27.4768 17.2611C27.9419 17.473 27.9128 18.5366 27.4118 19.6367C26.9108 20.7369 26.1276 21.4571 25.6625 21.2453Z" fill="url(#paint11_linear_1_1822)"/>
<path d="M26.4612 20.9689C26.3828 20.9332 26.6036 20.2796 26.9545 19.5091C27.3054 18.7386 27.6534 18.1429 27.7319 18.1786C27.8103 18.2143 27.5894 18.8679 27.2385 19.6384C26.8876 20.4089 26.5396 21.0046 26.4612 20.9689Z" fill="#130406"/>
<path d="M26.0893 6.13753C25.9369 6.24148 25.4693 5.82122 25.0451 5.19886C24.6208 4.5765 24.4005 3.98772 24.5529 3.88377C24.7054 3.77982 25.173 4.20008 25.5972 4.82244C26.0215 5.4448 26.2418 6.03358 26.0893 6.13753Z" fill="url(#paint12_linear_1_1822)"/>
<path d="M25.8893 6.27394C25.6261 6.45331 25.0689 6.0942 24.6447 5.47186C24.2204 4.84951 24.0898 4.1996 24.3529 4.02023C24.616 3.84086 25.1732 4.19997 25.5975 4.82232C26.0217 5.44466 26.1524 6.09458 25.8893 6.27394Z" fill="url(#paint13_linear_1_1822)"/>
<path d="M26 5.75918C25.9556 5.78942 25.6788 5.46059 25.3816 5.0247C25.0845 4.58882 24.8795 4.21095 24.9239 4.1807C24.9683 4.15046 25.2451 4.47929 25.5423 4.91518C25.8394 5.35106 26.0444 5.72893 26 5.75918Z" fill="#340409"/>
<path d="M17.5486 11.8691C17.5486 12.5972 16.9584 13.1874 16.2303 13.1874C15.5022 13.1874 14.912 12.5972 14.912 11.8691C14.912 11.1411 15.5022 10.5508 16.2303 10.5508C16.9584 10.5508 17.5486 11.1411 17.5486 11.8691Z" fill="#6C0C14"/>
<path d="M6.15848 21.5016C5.82752 21.7868 5.17397 21.5707 4.69876 21.0191C4.22354 20.4675 4.1066 19.7893 4.43757 19.5041C4.76854 19.219 5.42208 19.435 5.8973 19.9866C6.37251 20.5382 6.48945 21.2165 6.15848 21.5016Z" fill="#5B0C14"/>
<path d="M16.4937 2.90466C16.4937 3.3415 15.9035 3.69562 15.1754 3.69562C14.4473 3.69562 13.8571 3.3415 13.8571 2.90466C13.8571 2.46783 14.4473 2.11371 15.1754 2.11371C15.9035 2.11371 16.4937 2.46783 16.4937 2.90466Z" fill="#8B0F19"/>
<path d="M24.2737 19.5839C24.5609 19.913 24.349 20.5679 23.8004 21.0466C23.2518 21.5252 22.5742 21.6465 22.287 21.3173C21.9998 20.9881 22.2117 20.3332 22.7603 19.8546C23.3089 19.3759 23.9865 19.2547 24.2737 19.5839Z" fill="#440A11"/>
<defs>
<linearGradient id="paint0_linear_1_1822" x1="8.89746" y1="1.15262" x2="19.8862" y2="26.2749" gradientUnits="userSpaceOnUse">
<stop stop-color="#8D0F19"/>
<stop offset="1" stop-color="#23070C"/>
</linearGradient>
<linearGradient id="paint1_linear_1_1822" x1="6.15656" y1="8.6184" x2="7.84746" y2="12.4832" gradientUnits="userSpaceOnUse">
<stop stop-color="#1D0A0F"/>
<stop offset="1" stop-color="#7A121D"/>
</linearGradient>
<linearGradient id="paint2_linear_1_1822" x1="20.6825" y1="3.64538" x2="21.6545" y2="5.02369" gradientUnits="userSpaceOnUse">
<stop stop-color="#18090F"/>
<stop offset="1" stop-color="#A21421"/>
</linearGradient>
<linearGradient id="paint3_linear_1_1822" x1="25.5409" y1="14.7568" x2="27.0521" y2="15.2829" gradientUnits="userSpaceOnUse">
<stop stop-color="#270A11"/>
<stop offset="1" stop-color="#5D0B13"/>
</linearGradient>
<linearGradient id="paint4_linear_1_1822" x1="12.843" y1="0.198819" x2="12.9405" y2="1.05114" gradientUnits="userSpaceOnUse">
<stop stop-color="#360B11"/>
<stop offset="1" stop-color="#A1141F"/>
</linearGradient>
<linearGradient id="paint5_linear_1_1822" x1="14.253" y1="19.6859" x2="17.0308" y2="24.8248" gradientUnits="userSpaceOnUse">
<stop stop-color="#15090F"/>
<stop offset="1" stop-color="#530D16"/>
</linearGradient>
<linearGradient id="paint6_linear_1_1822" x1="1.7289" y1="20.5698" x2="0.410616" y2="15.5603" gradientUnits="userSpaceOnUse">
<stop stop-color="#540B12"/>
<stop offset="1" stop-color="#660C14"/>
</linearGradient>
<linearGradient id="paint7_linear_1_1822" x1="2.18824" y1="20.4299" x2="0.788894" y2="15.4398" gradientUnits="userSpaceOnUse">
<stop stop-color="#540B12"/>
<stop offset="1" stop-color="#660C14"/>
</linearGradient>
<linearGradient id="paint8_linear_1_1822" x1="17.0214" y1="27.1612" x2="11.7617" y2="27.4283" gradientUnits="userSpaceOnUse">
<stop stop-color="#24070C"/>
<stop offset="1" stop-color="#2C080D"/>
</linearGradient>
<linearGradient id="paint9_linear_1_1822" x1="17.0435" y1="26.8454" x2="11.765" y2="26.8442" gradientUnits="userSpaceOnUse">
<stop stop-color="#24070C"/>
<stop offset="1" stop-color="#2C080D"/>
</linearGradient>
<linearGradient id="paint10_linear_1_1822" x1="25.9857" y1="21.3607" x2="27.8313" y2="17.4058" gradientUnits="userSpaceOnUse">
<stop stop-color="#2D080D"/>
<stop offset="1" stop-color="#38080E"/>
</linearGradient>
<linearGradient id="paint11_linear_1_1822" x1="25.6006" y1="21.1854" x2="27.4308" y2="17.2232" gradientUnits="userSpaceOnUse">
<stop stop-color="#2D080D"/>
<stop offset="1" stop-color="#38080E"/>
</linearGradient>
<linearGradient id="paint12_linear_1_1822" x1="24.4035" y1="3.69559" x2="26.2491" y2="6.06853" gradientUnits="userSpaceOnUse">
<stop stop-color="#6A0C15"/>
<stop offset="1" stop-color="#600B13"/>
</linearGradient>
<linearGradient id="paint13_linear_1_1822" x1="24.193" y1="3.83916" x2="25.9778" y2="6.26301" gradientUnits="userSpaceOnUse">
<stop stop-color="#6A0C15"/>
<stop offset="1" stop-color="#600B13"/>
</linearGradient>
</defs>
</svg>
