<svg width="56" height="52" viewBox="0 0 56 52" fill="none" xmlns="http://www.w3.org/2000/svg">
<path d="M13.1569 37.2973C13.1569 37.2973 15.9942 38.5394 16.5324 42.9274C16.6768 44.2177 16.0383 45.1708 15.1239 46.0771C14.1882 47.0421 12.8027 47.0454 11.9654 48.0329C12.544 47.098 12.3753 45.9853 13.3646 45.2393C11.8875 45.7152 11.1252 46.863 10.9276 48.362C10.7513 49.8022 10.1128 50.7553 8.52538 50.9116C9.33412 50.2599 9.06076 49.3621 9.02473 48.4705C8.93794 49.5172 8.13335 50.0107 7.21733 50.2242C6.10146 50.5117 5.61849 50.8157 4.76502 51.6642C5.20098 50.1318 4.45086 49.3007 6.31044 48.5775C7.33001 48.1886 8.45727 47.466 7.63944 46.1977C7.36335 48.427 5.5015 47.7251 3.99897 48.4181C2.93674 48.9246 3.15232 49.7615 2.55752 50.5574C1.96271 51.3533 0.930098 51.4846 0 51.48C1.55514 51.0458 1.16559 49.2939 1.53445 48.0566C1.94805 46.6227 3.83682 46.2961 4.62258 45.0104C3.92031 43.8639 3.23085 45.251 2.94152 45.7185C2.46746 46.4383 1.85547 47.1348 0.836318 46.7519C3.23147 45.9833 1.60511 43.0907 3.33712 41.9486C4.00172 41.5108 5.68608 42.1882 6.02325 41.4054C6.5493 40.2118 4.47474 40.8304 4.03133 41.1355C4.14732 40.4854 4.65887 39.8457 5.30006 39.5458C6.12184 39.1517 6.70173 39.6815 7.41789 39.5419C8.37243 39.3689 8.46335 38.164 7.39533 38.1361C6.99976 38.1257 6.17072 38.7967 5.6919 38.9425C6.2778 37.7307 7.71262 36.6006 9.02627 36.3183C10.6585 35.9652 11.7869 36.7073 13.1569 37.2973Z" fill="url(#paint0_linear_1_4473)"/>
<path d="M13.9474 38.8309C14.2325 39.1514 14.2125 39.1705 14.4743 39.5869C15.0349 40.4588 15.1458 41.7203 14.3068 42.4426C13.8279 42.8416 13.2645 42.7298 12.752 43.013C12.2102 43.3055 12.1852 43.9018 11.8965 44.3605C11.8716 44.0332 11.8728 43.7734 11.7995 43.4551C11.769 43.2624 11.7201 43.0502 11.7951 42.8682C11.5882 43.2124 11.552 43.6161 11.3258 43.96C11.0387 44.3803 10.6095 44.5105 10.1411 44.6594C9.66349 44.7987 9.19909 44.8515 8.67936 44.846C8.46762 44.8438 8.19051 44.7927 7.99481 44.8676C7.73974 44.9804 7.64307 45.2199 7.44334 45.3909C7.5577 44.7283 7.60064 44.392 8.30165 44.207C9.02192 44.0222 9.05766 43.3972 9.52891 42.95C9.12345 43.2055 8.60812 43.3251 8.33186 42.793C9.18683 43.0715 9.54059 42.4402 9.65816 41.7007C9.78415 40.99 9.76215 40.3644 10.3413 39.8703C9.98557 39.8569 9.80627 40.2302 9.58569 40.4395C9.3258 40.6677 9.03304 40.7608 8.69337 40.8245C8.73347 40.7865 8.79283 40.7486 8.81369 40.7104C8.94885 40.4713 9.1963 40.3103 9.33147 40.0712C9.45661 39.8417 9.53323 39.6212 9.6299 39.3817C9.82324 38.9027 10.3222 38.4846 10.7569 38.2198C11.4784 37.7753 12.801 37.924 13.6599 38.5681L13.7437 38.6363C13.8183 38.6948 13.8829 38.7629 13.9474 38.8309Z" fill="#FFC929"/>
<path d="M14.1938 39.0922C14.5021 39.4588 14.5466 39.7562 14.5361 40.2355C14.5193 40.7708 14.0263 41.1488 13.6767 41.5005C13.7619 41.3397 13.7399 41.1809 13.7591 41.0029C13.5708 41.2115 13.3941 41.1295 13.1822 41.2507C12.96 41.3817 12.8418 41.6536 12.6347 41.7902C12.7316 41.5584 12.4716 41.3158 12.6395 41.1066C12.4131 41.1915 12.4936 41.4746 12.3376 41.6128C12.2023 41.7311 11.9053 41.7833 11.7555 41.8655C11.772 41.8099 12.1668 41.2555 11.8675 41.4097C11.8107 41.4437 11.7602 41.6513 11.677 41.7203C11.6045 41.7691 11.4967 41.8015 11.4095 41.8244C11.2094 41.8744 11.0063 41.8274 10.8258 41.9189C10.6194 42.0249 10.5181 42.2208 10.4117 42.4217C10.5269 42.0527 10.4557 41.8107 10.7774 41.5653C10.9333 41.4374 10.9969 41.327 11.1074 41.1722C11.2021 41.0424 11.3258 40.9849 11.4509 40.8663C11.0552 40.7624 10.9794 41.1938 10.6509 41.2859C10.8378 41.1385 10.7813 40.9224 10.8417 40.7252C10.9072 40.5333 11.0694 40.3494 11.2599 40.2685C11.399 40.2064 11.76 40.2633 11.7396 40.033C11.72 39.762 11.3341 39.9084 11.22 39.9968C11.2906 39.7999 11.453 39.6059 11.6837 39.5567C11.8835 39.5169 12.0852 39.6251 12.1822 39.3933C12.014 39.1534 11.774 39.3911 11.5447 39.379C11.8719 39.1185 12.0219 38.5566 12.535 38.659C12.6721 38.6887 13.0019 39.0049 13.0224 38.7657C13.0369 38.5722 12.6931 38.4291 12.5447 38.4501C13.0436 38.2662 13.7557 38.5992 14.129 39.0239L14.1938 39.0922Z" fill="#F9F079"/>
<path d="M11.3629 33.7019C10.9498 34.3958 10.565 35.067 10.2049 35.7105C9.84484 36.3541 11.1853 38.4865 12.5697 39.9419C13.9432 41.3858 16.511 43.3804 17.173 43.0541C17.835 42.7279 18.5245 42.3788 19.2396 42.0031L11.3629 33.7019Z" fill="url(#paint1_linear_1_4473)"/>
<path d="M31.6464 34.9317C40.0813 29.5259 48.5359 22.3392 52.4802 12.1551L42.913 2.07226C32.5373 5.47754 24.9155 13.5428 19.0756 21.6835L13.4686 30.2295C12.9536 31.0701 12.4607 31.8822 11.9815 32.6779L20.295 41.4394C21.114 41.0018 21.9529 40.5527 22.8181 40.0828L31.6464 34.9317ZM42.0689 12.4545C43.1557 13.6457 43.1151 15.4714 41.9614 16.5661C40.809 17.6596 38.981 17.6069 37.8489 16.4586C36.7612 15.2674 36.8049 13.4397 37.9573 12.3462C39.111 11.2515 40.9359 11.3062 42.0689 12.4545Z" fill="url(#paint2_linear_1_4473)"/>
<path d="M23.6646 42.3896L22.8179 40.0831L31.6462 34.932C31.3304 36.6101 30.8256 43.278 30.8256 43.278L20.7868 51.6718L18.9417 49.7272L23.6646 42.3896Z" fill="url(#paint3_linear_1_4473)"/>
<path d="M10.6982 22.066C10.6982 22.066 17.3821 21.9101 19.0753 21.6837L13.4683 30.2297L11.2095 29.2633L3.63422 33.5949L1.78955 31.6508L10.6982 22.066Z" fill="url(#paint4_linear_1_4473)"/>
<path d="M52.9117 10.9314C53.9951 7.68665 55.2681 0.121522 55.162 0.00961663C55.0549 -0.103166 47.456 0.795058 44.1593 1.70732L52.9117 10.9314Z" fill="url(#paint5_linear_1_4473)"/>
<path d="M11.3629 33.7019L19.2395 42.0031L20.2949 41.4395L11.9815 32.678L11.3629 33.7019Z" fill="url(#paint6_linear_1_4473)"/>
<path d="M42.9127 2.07247L52.48 12.1553L52.9118 10.9316L44.1594 1.70754L42.9127 2.07247Z" fill="url(#paint7_linear_1_4473)"/>
<path d="M41.9614 16.566C43.1151 15.4713 43.1558 13.6456 42.0689 12.4544C40.9359 11.3061 39.111 11.2514 37.9573 12.3461C36.8049 13.4396 36.7612 15.2673 37.849 16.4585C38.9811 17.6068 40.809 17.6595 41.9614 16.566Z" fill="url(#paint8_linear_1_4473)"/>
<defs>
<linearGradient id="paint0_linear_1_4473" x1="2.63981e-07" y1="51.4838" x2="16.5084" y2="36.0946" gradientUnits="userSpaceOnUse">
<stop stop-color="#F67C01"/>
<stop offset="1" stop-color="#BB5E00"/>
</linearGradient>
<linearGradient id="paint1_linear_1_4473" x1="27.5523" y1="11.3688" x2="43.4153" y2="28.0866" gradientUnits="userSpaceOnUse">
<stop offset="0.213542" stop-color="#D2CECE"/>
<stop offset="1" stop-color="#393535"/>
</linearGradient>
<linearGradient id="paint2_linear_1_4473" x1="27.5523" y1="11.3688" x2="43.4153" y2="28.0866" gradientUnits="userSpaceOnUse">
<stop offset="0.213542" stop-color="#D2CECE"/>
<stop offset="1" stop-color="#393535"/>
</linearGradient>
<linearGradient id="paint3_linear_1_4473" x1="21.74" y1="38.7254" x2="29.341" y2="46.736" gradientUnits="userSpaceOnUse">
<stop stop-color="#404040"/>
<stop offset="1"/>
</linearGradient>
<linearGradient id="paint4_linear_1_4473" x1="14.8" y1="31.4114" x2="6.53802" y2="22.7042" gradientUnits="userSpaceOnUse">
<stop/>
<stop offset="1" stop-color="#7A7A7A"/>
</linearGradient>
<linearGradient id="paint5_linear_1_4473" x1="44.824" y1="0.275141" x2="55.0688" y2="11.0721" gradientUnits="userSpaceOnUse">
<stop stop-color="#8C8B8B"/>
<stop offset="1"/>
</linearGradient>
<linearGradient id="paint6_linear_1_4473" x1="9.40546" y1="29.9114" x2="23.2856" y2="44.5395" gradientUnits="userSpaceOnUse">
<stop offset="0.1875" stop-color="white"/>
<stop offset="1" stop-color="#393535"/>
</linearGradient>
<linearGradient id="paint7_linear_1_4473" x1="41.7785" y1="-0.144423" x2="55.6586" y2="14.4837" gradientUnits="userSpaceOnUse">
<stop offset="0.135417" stop-color="white"/>
<stop offset="1" stop-color="#393535"/>
</linearGradient>
<linearGradient id="paint8_linear_1_4473" x1="42.012" y1="16.8426" x2="37.7157" y2="12.3148" gradientUnits="userSpaceOnUse">
<stop offset="0.0885417" stop-color="#212121"/>
<stop offset="1" stop-color="#606060"/>
</linearGradient>
</defs>
</svg>
