<svg width="1152" height="1129" viewBox="0 0 1152 1129" fill="none" xmlns="http://www.w3.org/2000/svg">
<path d="M912.208 121.467C1156.93 313.923 1199.3 668.323 1006.84 913.042C814.384 1157.76 459.984 1200.13 215.265 1007.67C-29.4534 815.217 -71.8213 460.818 120.634 216.099C313.09 -28.6203 667.489 -70.9883 912.208 121.467Z" fill="url(#paint0_linear_1_2634)"/>
<path d="M288.107 525.316C325.759 554.922 332.281 609.444 302.676 647.096C273.071 684.747 218.549 691.27 180.897 661.665C143.245 632.06 136.722 577.537 166.328 539.886C195.933 502.234 250.455 495.711 288.107 525.316Z" fill="url(#paint1_linear_1_2634)"/>
<path d="M847.943 12.0642C927.584 42.729 958.237 122.255 916.407 189.69C874.578 257.126 776.106 286.934 696.465 256.269C616.823 225.604 586.171 146.078 628 78.643C669.829 11.2077 768.301 -18.6007 847.943 12.0642Z" fill="url(#paint2_linear_1_2634)"/>
<path d="M1013.39 335.709C1031.34 332.869 1049.07 350.692 1053 375.519C1056.93 400.346 1045.57 422.775 1027.63 425.616C1009.68 428.456 991.947 410.633 988.017 385.806C984.087 360.979 995.448 338.55 1013.39 335.709Z" fill="url(#paint3_linear_1_2634)"/>
<path d="M292.536 93.4705C298.084 101.477 285.833 119.573 265.172 133.89C244.512 148.206 223.266 153.322 217.718 145.315C212.17 137.309 224.421 119.213 245.082 104.896C265.742 90.5797 286.988 85.4642 292.536 93.4705Z" fill="url(#paint4_linear_1_2634)"/>
<path d="M888.718 757.84C929.189 807.705 914.038 887.054 854.876 935.072C795.714 983.09 714.945 981.592 674.473 931.728C634.001 881.863 649.153 802.514 708.315 754.496C767.477 706.478 848.246 707.976 888.718 757.84Z" fill="url(#paint5_linear_1_2634)"/>
<path d="M141.438 179.336C148.388 184.343 137.455 211.4 117.018 239.769C96.5816 268.137 74.3798 287.076 67.4294 282.069C60.4789 277.062 71.4118 250.005 91.8486 221.636C112.285 193.268 134.487 174.329 141.438 179.336Z" fill="#3E404E"/>
<path d="M150.569 185.914C162.563 194.554 155.718 224.556 135.281 252.925C114.844 281.294 88.5543 297.287 76.5607 288.647C64.5671 280.007 71.4116 250.005 91.8485 221.636C112.285 193.267 138.575 177.274 150.569 185.914Z" fill="#3E404E"/>
<path d="M126.345 189.231C128.367 190.688 118.404 207.976 104.09 227.844C89.7771 247.713 76.5345 262.638 74.5122 261.181C72.4898 259.725 82.4536 242.437 96.7668 222.568C111.08 202.7 124.323 187.774 126.345 189.231Z" fill="#111321"/>
<path d="M88.9538 913.351C98.7891 903.471 139.451 928.005 179.774 968.149C220.097 1008.29 244.812 1048.84 234.977 1058.72C225.142 1068.6 184.48 1044.07 144.157 1003.92C103.834 963.781 79.1185 923.23 88.9538 913.351Z" fill="url(#paint6_linear_1_2634)"/>
<path d="M101.875 900.371C118.847 883.323 165.294 902.046 205.617 942.189C245.94 982.333 264.87 1028.7 247.898 1045.74C230.927 1062.79 184.48 1044.07 144.157 1003.92C103.834 963.781 84.9036 917.418 101.875 900.371Z" fill="url(#paint7_linear_1_2634)"/>
<path d="M100.971 940.153C103.833 937.278 129.046 957.74 157.287 985.855C185.528 1013.97 206.102 1039.09 203.241 1041.97C200.379 1044.84 175.165 1024.38 146.924 996.265C118.683 968.149 98.1093 943.027 100.971 940.153Z" fill="#111321"/>
<path d="M725.806 1095.03C722.779 1088.28 761.382 1061.83 812.029 1035.97C862.676 1010.1 906.188 994.608 909.215 1001.36C912.243 1008.12 873.64 1034.56 822.993 1060.43C772.346 1086.29 728.834 1101.79 725.806 1095.03Z" fill="url(#paint8_linear_1_2634)"/>
<path d="M721.828 1086.16C716.604 1074.51 753.426 1044.09 804.073 1018.22C854.72 992.356 900.013 980.835 905.237 992.489C910.462 1004.14 873.64 1034.56 822.993 1060.43C772.346 1086.29 727.053 1097.81 721.828 1086.16Z" fill="url(#paint9_linear_1_2634)"/>
<path d="M752.501 1087.66C751.62 1085.7 779.661 1069.42 815.132 1051.3C850.604 1033.19 880.073 1020.09 880.954 1022.06C881.835 1024.02 853.794 1040.3 818.323 1058.42C782.851 1076.53 753.382 1089.63 752.501 1087.66Z" fill="#050715"/>
<path d="M1134.42 617.542C1122.27 618.329 1109.81 578.758 1106.59 529.158C1103.38 479.557 1110.63 438.71 1122.78 437.922C1134.93 437.135 1147.39 476.706 1150.6 526.306C1153.82 575.907 1146.57 616.754 1134.42 617.542Z" fill="url(#paint10_linear_1_2634)"/>
<path d="M1118.45 618.577C1097.48 619.936 1077.88 580.828 1074.66 531.227C1071.45 481.627 1085.84 440.316 1106.81 438.957C1127.78 437.598 1147.39 476.706 1150.6 526.306C1153.82 575.907 1139.42 617.218 1118.45 618.577Z" fill="url(#paint11_linear_1_2634)"/>
<path d="M1142.04 593.043C1138.5 593.272 1133.81 565.297 1131.56 530.558C1129.31 495.82 1130.35 467.473 1133.88 467.244C1137.42 467.015 1142.11 494.99 1144.36 529.728C1146.61 564.467 1145.57 592.814 1142.04 593.043Z" fill="#060816"/>
<path d="M840.472 62.8023C836.965 69.531 811.859 63.3836 784.395 49.0717C756.932 34.7598 737.511 17.7031 741.017 10.9745C744.524 4.2458 769.63 10.3932 797.093 24.7051C824.557 39.017 843.978 56.0737 840.472 62.8023Z" fill="url(#paint12_linear_1_2634)"/>
<path d="M835.865 71.6417C829.814 83.2526 802.645 81.063 775.182 66.7511C747.718 52.4393 730.359 31.4247 736.41 19.8138C742.461 8.2029 769.629 10.3925 797.093 24.7043C824.557 39.0162 841.915 60.0308 835.865 71.6417Z" fill="url(#paint13_linear_1_2634)"/>
<path d="M829.879 50.827C828.858 52.7848 812.439 46.2463 793.204 36.2227C773.97 26.1992 759.204 16.4864 760.224 14.5286C761.245 12.5708 777.664 19.1093 796.899 29.1329C816.133 39.1564 830.899 48.8692 829.879 50.827Z" fill="#101220"/>
<path d="M642.293 436.407C656.435 462.791 646.511 495.645 620.127 509.787C593.743 523.93 560.889 514.006 546.747 487.622C532.604 461.237 542.528 428.384 568.913 414.241C595.297 400.099 628.15 410.023 642.293 436.407Z" fill="#2F313F"/>
<path d="M416.641 1006.72C410.186 1023.49 382.307 1028.35 354.371 1017.59C326.436 1006.83 309.023 984.525 315.478 967.764C321.933 951.003 349.812 946.136 377.748 956.895C405.683 967.653 423.096 989.963 416.641 1006.72Z" fill="#282A38"/>
<path d="M415.269 180.155C446.425 238.273 393.149 327.478 296.274 379.399C199.399 431.32 95.6098 426.296 64.4536 368.178C33.2974 310.059 86.5729 220.855 183.448 168.934C280.323 117.013 384.112 122.037 415.269 180.155Z" fill="#3F414F"/>
<path d="M1035.86 585.345C1052.66 591.694 1057.7 619.542 1047.12 647.545C1036.54 675.548 1014.34 693.101 997.539 686.751C980.737 680.402 975.696 652.554 986.278 624.551C996.861 596.549 1019.06 578.995 1035.86 585.345Z" fill="#1B1D2B"/>
<defs>
<linearGradient id="paint0_linear_1_2634" x1="120.635" y1="216.099" x2="1006.84" y2="913.042" gradientUnits="userSpaceOnUse">
<stop stop-color="#404250"/>
<stop offset="1" stop-color="#090B19"/>
</linearGradient>
<linearGradient id="paint1_linear_1_2634" x1="166.327" y1="539.885" x2="302.676" y2="647.095" gradientUnits="userSpaceOnUse">
<stop stop-color="#090B19"/>
<stop offset="1" stop-color="#3A3C4A"/>
</linearGradient>
<linearGradient id="paint2_linear_1_2634" x1="726.71" y1="84.4718" x2="984.725" y2="244.516" gradientUnits="userSpaceOnUse">
<stop stop-color="#080A18"/>
<stop offset="1" stop-color="#4C4E5C"/>
</linearGradient>
<linearGradient id="paint3_linear_1_2634" x1="988.017" y1="385.806" x2="1053" y2="375.519" gradientUnits="userSpaceOnUse">
<stop stop-color="#0F111F"/>
<stop offset="1" stop-color="#272937"/>
</linearGradient>
<linearGradient id="paint4_linear_1_2634" x1="245.081" y1="104.895" x2="265.172" y2="133.889" gradientUnits="userSpaceOnUse">
<stop stop-color="#161826"/>
<stop offset="1" stop-color="#4C4E5C"/>
</linearGradient>
<linearGradient id="paint5_linear_1_2634" x1="708.314" y1="754.496" x2="854.875" y2="935.072" gradientUnits="userSpaceOnUse">
<stop stop-color="#060816"/>
<stop offset="1" stop-color="#242634"/>
</linearGradient>
<linearGradient id="paint6_linear_1_2634" x1="238.024" y1="1058.99" x2="92.9431" y2="903.063" gradientUnits="userSpaceOnUse">
<stop stop-color="#222432"/>
<stop offset="1" stop-color="#2B2D3B"/>
</linearGradient>
<linearGradient id="paint7_linear_1_2634" x1="260.77" y1="1041.37" x2="122.843" y2="873.57" gradientUnits="userSpaceOnUse">
<stop stop-color="#222432"/>
<stop offset="1" stop-color="#2B2D3B"/>
</linearGradient>
<linearGradient id="paint8_linear_1_2634" x1="915.95" y1="992.836" x2="730.538" y2="1104.68" gradientUnits="userSpaceOnUse">
<stop stop-color="#0A0C1A"/>
<stop offset="1" stop-color="#0E101E"/>
</linearGradient>
<linearGradient id="paint9_linear_1_2634" x1="911.21" y1="982.522" x2="723.306" y2="1090.53" gradientUnits="userSpaceOnUse">
<stop stop-color="#0A0C1A"/>
<stop offset="1" stop-color="#0E101E"/>
</linearGradient>
<linearGradient id="paint10_linear_1_2634" x1="1132.41" y1="616.483" x2="1122.47" y2="437.314" gradientUnits="userSpaceOnUse">
<stop stop-color="#0D0F1D"/>
<stop offset="1" stop-color="#131523"/>
</linearGradient>
<linearGradient id="paint11_linear_1_2634" x1="1110.06" y1="622.047" x2="1088.2" y2="436.796" gradientUnits="userSpaceOnUse">
<stop stop-color="#0D0F1D"/>
<stop offset="1" stop-color="#131523"/>
</linearGradient>
<linearGradient id="paint12_linear_1_2634" x1="735.62" y1="6.99927" x2="843.258" y2="53.4712" gradientUnits="userSpaceOnUse">
<stop stop-color="#2E303E"/>
<stop offset="1" stop-color="#292B39"/>
</linearGradient>
<linearGradient id="paint13_linear_1_2634" x1="727.099" y1="16.3564" x2="838.86" y2="69.524" gradientUnits="userSpaceOnUse">
<stop stop-color="#2E303E"/>
<stop offset="1" stop-color="#292B39"/>
</linearGradient>
</defs>
</svg>
