<svg width="205" height="89" viewBox="0 0 205 89" fill="none" xmlns="http://www.w3.org/2000/svg">
<path d="M30.6389 16.2499C30.7472 16.2435 30.6389 16.5277 30.6389 16.5277C30.3611 16.6666 25.5855 17.9365 25.213 21.8493C25.081 23.2361 25.0037 24.1079 25.5152 25.4036C26.4409 27.7486 28.4536 28.0835 30.6601 29.3032C33.1601 30.6852 35.1015 30.2872 37.5509 31.757C39.4867 32.9185 41.1553 33.3671 41.9842 35.467C42.6214 37.0811 42.9306 38.3056 42.2709 39.9106C41.3899 42.0542 39.7582 42.8211 37.5406 43.4942C35.8792 43.9985 34.5436 44.0246 32.8102 43.9243C23.8872 43.4076 22.1037 31.8324 13.1721 32.1701C9.59114 32.3055 6.93036 31.8479 4.30037 34.5144C2.08509 36.7604 1.57987 38.6219 1.70468 41.7741C1.83938 45.1762 3.89371 46.639 5.71667 49.5146C8.01963 53.1475 10.725 54.2428 12.5972 58.1153C13.6759 60.3465 14.57 61.6576 14.604 64.1357C14.6274 65.8482 14.316 66.8218 13.7439 68.436C12.4899 71.974 7.57326 76.6098 7.57326 76.6098L7.12256 75.682C7.12256 75.682 11.7612 71.7628 13.0272 68.2927C13.5766 66.7868 13.9032 65.882 13.8873 64.279C13.863 61.8352 12.8323 60.5867 11.7371 58.402C9.82513 54.5878 7.24432 53.4299 4.99995 49.8013C3.14923 46.8092 1.09378 45.2565 0.977628 41.7402C0.871571 38.5294 1.60786 36.3295 3.85484 34.0335C6.48019 31.3509 9.57667 31.5587 13.4588 31.4534C22.3935 31.211 24.162 42.9749 33.0969 43.2075C34.7794 43.2514 35.8045 43.465 37.3972 42.9209C39.3255 42.262 40.8057 41.6625 41.5542 39.7673C42.084 38.4259 41.9823 37.4514 41.5542 36.0742C40.846 33.7964 39.1426 33.1327 37.1105 31.8834C34.8903 30.5184 33.11 30.928 30.7905 29.7394C28.401 28.515 26.2116 28.2119 25.213 25.7196C24.6493 24.3128 24.7556 23.3553 24.9263 21.8493C25.371 17.9276 29.8056 16.5277 30.6389 16.2499Z" fill="#DDDDDD"/>
<path d="M30.6389 16.2499C30.5325 16.2712 30.6389 16.5277 30.6389 16.5277C30.6389 16.5277 38.9909 13.6024 42.4232 16.952C43.6396 18.1392 44.399 18.89 44.9435 20.5005C45.929 23.4153 44.3157 25.3165 43.2193 28.1946C41.977 31.4557 39.8526 32.6181 38.7267 35.921C37.837 38.5313 36.6343 40.2666 37.5167 42.8766C38.195 44.8829 38.872 46.2673 40.7527 47.2411C43.2644 48.5416 45.3909 47.9673 47.99 46.843C49.9372 46.0007 51.2035 44.9703 52.7411 43.5081C60.6563 35.981 53.1939 23.7933 61.7907 17.055C65.2375 14.3534 67.3584 11.8262 71.9137 12.2326C75.7507 12.5749 77.6894 13.9094 80.0583 16.9434C82.6149 20.2179 81.852 23.2023 82.4189 27.3197C83.1351 32.5213 81.4753 35.6776 82.7822 40.7621C83.5352 43.6917 83.7349 45.6188 85.6569 47.9532C86.9852 49.5665 88.0432 50.2272 89.8495 51.2787C93.8085 53.5832 102.049 54.0178 102.049 54.0178L101.738 52.7979C101.738 52.7979 94.3217 52.811 90.405 50.5793C88.7053 49.6107 87.6873 49.026 86.4384 47.5208C84.5344 45.2258 84.5114 43.2493 83.8104 40.3499C82.5866 35.2883 84.0808 32.172 83.3134 27.0208C82.6806 22.773 83.3736 19.7039 80.7097 16.3377C78.2772 13.264 75.8561 11.7968 71.9501 11.433C67.3864 11.0079 64.6622 13.6465 60.9582 16.614C52.4338 23.4435 60.0589 35.795 51.9087 43.0671C50.3739 44.4365 49.5862 45.4449 47.6717 46.1958C45.3538 47.105 43.5005 47.7155 41.3082 46.5417C39.7565 45.7108 39.083 44.7232 38.3966 43.1026C37.2612 40.4222 38.3268 38.459 39.2371 35.691C40.2318 32.6666 42.2153 31.6422 43.4416 28.7038C44.7049 25.6768 46.5081 23.6656 45.4745 20.5562C44.8911 18.801 44.0371 17.9932 42.6906 16.7257C39.1839 13.4247 31.3335 16.111 30.6389 16.2499Z" fill="#DDDDDD"/>
<path d="M106.063 74.3942C106.358 75.4425 106.658 76.4418 106.953 77.3913C107.248 78.3409 111.007 79.3358 113.778 79.3358C116.55 79.3358 120.309 78.3417 120.604 77.3913C120.899 76.441 121.198 75.4425 121.494 74.3942C121.494 74.3942 116.809 75.2275 113.778 75.2275C110.748 75.2275 106.063 74.3942 106.063 74.3942Z" fill="url(#paint0_linear_1_2660)"/>
<path d="M126.093 55.6945C128.634 42.426 129.451 27.4852 123.15 14.1743H104.407C98.1075 27.4844 98.9225 42.426 101.465 55.6945L104.621 69.1114C104.965 70.3954 105.302 71.6313 105.635 72.8387C105.635 72.8387 110.582 73.672 113.779 73.672C116.976 73.672 121.922 72.8387 121.922 72.8387C122.254 71.6313 122.594 70.3938 122.937 69.1114L126.093 55.6945ZM113.779 24.6365C115.953 24.6789 117.701 26.4133 117.701 28.5579C117.701 30.7001 115.953 32.4394 113.779 32.481C111.604 32.4394 109.857 30.7001 109.857 28.5579C109.857 26.4133 111.604 24.6789 113.779 24.6365Z" fill="url(#paint1_linear_1_2660)"/>
<path d="M125.979 70.4245L122.937 69.1119L126.093 55.695C127.441 57.5615 133.495 64.2443 133.495 64.2443L132.388 81.8551H128.773L125.979 70.4245Z" fill="url(#paint2_linear_1_2660)"/>
<path d="M94.0638 64.2443C94.0638 64.2443 100.115 57.5615 101.465 55.695L104.621 69.1119L101.579 70.4245L98.7846 81.8551H95.1707L94.0638 64.2443Z" fill="url(#paint3_linear_1_2660)"/>
<path d="M122.353 12.6163C120.185 8.54483 113.966 0.277832 113.758 0.277832C113.549 0.277832 107.374 8.54483 105.207 12.6163C105.207 12.6163 110.416 13.4497 113.78 13.4497C117.144 13.4497 122.353 12.6163 122.353 12.6163Z" fill="url(#paint4_linear_1_2660)"/>
<path d="M106.063 74.3942L105.636 72.8386C105.636 72.8386 110.582 73.672 113.779 73.672C116.976 73.672 121.922 72.8386 121.922 72.8386L121.494 74.3942C121.494 74.3942 116.809 75.2275 113.779 75.2275C110.748 75.2275 106.063 74.3942 106.063 74.3942Z" fill="url(#paint5_linear_1_2660)"/>
<path d="M104.407 14.1746L105.207 12.6164C105.207 12.6164 110.417 13.4497 113.781 13.4497C117.144 13.4497 122.354 12.6164 122.354 12.6164L123.15 14.1746C123.15 14.1746 117.453 15.008 113.779 15.008C110.104 15.008 104.407 14.1746 104.407 14.1746Z" fill="url(#paint6_linear_1_2660)"/>
<path d="M117.701 28.5579C117.701 26.4132 115.953 24.6789 113.779 24.6365C111.604 24.6789 109.857 26.4132 109.857 28.5579C109.857 30.7001 111.604 32.4393 113.779 32.4809C115.953 32.4393 117.701 30.7001 117.701 28.5579Z" fill="url(#paint7_linear_1_2660)"/>
<g filter="url(#filter0_f_1_2660)">
<ellipse cx="147.154" cy="83.1497" rx="53.0897" ry="1.29488" fill="black"/>
</g>
<defs>
<filter id="filter0_f_1_2660" x="90.0638" y="77.8549" width="114.179" height="10.5898" filterUnits="userSpaceOnUse" color-interpolation-filters="sRGB">
<feFlood flood-opacity="0" result="BackgroundImageFix"/>
<feBlend mode="normal" in="SourceGraphic" in2="BackgroundImageFix" result="shape"/>
<feGaussianBlur stdDeviation="2" result="effect1_foregroundBlur_1_2660"/>
</filter>
<linearGradient id="paint0_linear_1_2660" x1="99.2432" y1="37.8288" x2="130.32" y2="37.8288" gradientUnits="userSpaceOnUse">
<stop offset="0.213542" stop-color="#D2CECE"/>
<stop offset="1" stop-color="#393535"/>
</linearGradient>
<linearGradient id="paint1_linear_1_2660" x1="99.2432" y1="37.8288" x2="130.32" y2="37.8288" gradientUnits="userSpaceOnUse">
<stop offset="0.213542" stop-color="#D2CECE"/>
<stop offset="1" stop-color="#393535"/>
</linearGradient>
<linearGradient id="paint2_linear_1_2660" x1="120.609" y1="68.9061" x2="135.5" y2="68.9061" gradientUnits="userSpaceOnUse">
<stop stop-color="#404040"/>
<stop offset="1"/>
</linearGradient>
<linearGradient id="paint3_linear_1_2660" x1="107.012" y1="68.9061" x2="90.8266" y2="68.9061" gradientUnits="userSpaceOnUse">
<stop/>
<stop offset="1" stop-color="#7A7A7A"/>
</linearGradient>
<linearGradient id="paint4_linear_1_2660" x1="104.423" y1="10.6368" x2="124.493" y2="10.6368" gradientUnits="userSpaceOnUse">
<stop stop-color="#8C8B8B"/>
<stop offset="1"/>
</linearGradient>
<linearGradient id="paint5_linear_1_2660" x1="100.538" y1="72.7906" x2="127.731" y2="72.7906" gradientUnits="userSpaceOnUse">
<stop offset="0.1875" stop-color="white"/>
<stop offset="1" stop-color="#393535"/>
</linearGradient>
<linearGradient id="paint6_linear_1_2660" x1="101.186" y1="13.2265" x2="128.378" y2="13.2265" gradientUnits="userSpaceOnUse">
<stop offset="0.135417" stop-color="white"/>
<stop offset="1" stop-color="#393535"/>
</linearGradient>
<linearGradient id="paint7_linear_1_2660" x1="118.019" y1="28.7652" x2="109.602" y2="28.7652" gradientUnits="userSpaceOnUse">
<stop offset="0.0885417" stop-color="#212121"/>
<stop offset="1" stop-color="#606060"/>
</linearGradient>
</defs>
</svg>
