<svg width="95" height="137" viewBox="0 0 95 137" fill="none" xmlns="http://www.w3.org/2000/svg">
<path d="M6.70925 86.6578L9.28962 87.6612L17.6034 84.6509C17.6034 84.6509 19.3151 86.0812 20.3269 87.0878C21.0851 87.842 21.6756 88.1572 22.1904 89.0946C22.3956 89.4683 22.751 89.6922 22.6204 90.098C22.5106 90.4392 22.237 90.5397 21.9037 90.6714C21.4872 90.8359 21.201 90.7295 20.7569 90.6714C19.7141 90.5349 18.4634 89.5246 18.0334 89.8113C17.6034 90.098 17.5584 90.7802 17.3167 91.6748C17.075 92.5693 18.7946 95.032 18.0334 96.9785C17.8235 97.5152 17.8336 98.0137 17.3167 98.2686C16.915 98.4667 16.5998 98.3942 16.1699 98.2686C15.3712 98.0351 15.2313 97.3609 14.7365 96.6918C13.8134 95.4437 13.0164 93.1082 13.0164 93.1082C13.0164 93.1082 13.5702 94.921 13.7331 96.1184C13.8465 96.9523 14.0827 97.4527 13.8764 98.2686C13.7719 98.6819 13.8035 99.0391 13.4464 99.272C13.2073 99.4279 13.0151 99.4153 12.7297 99.4153C12.4442 99.4153 12.2723 99.3912 12.013 99.272C11.544 99.0565 11.4351 98.7007 11.1529 98.2686C10.7549 97.6593 10.7077 97.2236 10.4362 96.5485C9.83487 95.0531 9.00275 92.6782 9.00275 92.6782C9.00275 92.6782 9.28261 95.3226 9.00275 96.9785C8.91674 97.4874 9.15147 97.9915 8.71606 98.2686C8.52133 98.3925 8.37349 98.4119 8.14268 98.4119C7.91188 98.4119 7.7779 98.3674 7.56931 98.2686C7.02209 98.0094 6.98691 97.5166 6.70925 96.9785C6.27894 96.1446 6.16458 95.6075 5.99253 94.685C5.72567 93.2542 5.63653 92.4162 5.70594 90.9581C5.74886 90.0564 5.77961 89.5417 5.99253 88.6646C6.18883 87.8559 6.70925 86.6578 6.70925 86.6578Z" fill="#C0C0C0"/>
<path d="M9.00278 46.5216C9.00278 46.5216 18.1144 36.7027 25.6306 33.0473C33.6577 29.1435 47.9922 28.317 47.9922 28.317C47.9922 28.317 53.811 36.7455 56.5929 42.6514C60.7741 51.5281 63.7598 66.7331 63.7598 66.7331L32.3676 85.2244C32.3676 85.2244 23.8402 75.4641 19.4669 68.4532C14.4443 60.4016 9.00278 46.5216 9.00278 46.5216Z" fill="#CACACA"/>
<path d="M20.1836 31.3271C12.6673 34.9825 3.55569 44.8014 3.55569 44.8014C3.55569 44.8014 8.99715 58.6814 14.0198 66.733C18.3932 73.7439 26.9204 83.5042 26.9204 83.5042L32.3678 85.2244C32.3678 85.2244 23.8402 75.464 19.4668 68.4532C14.4442 60.4015 9.00275 46.5216 9.00275 46.5216C9.00275 46.5216 18.1143 36.7027 25.6306 33.0473C33.6576 29.1435 47.9922 28.3169 47.9922 28.3169C47.9922 28.3169 53.8111 36.7454 56.5928 42.6513C60.4553 50.8509 63.2975 64.4503 63.7085 66.4772L63.76 66.4463C63.76 66.4463 61.9005 52.5777 58.313 44.5148C55.2638 37.6618 47.9922 28.3169 47.9922 28.3169L42.5452 26.5968C42.5452 26.5968 28.2105 27.4233 20.1836 31.3271Z" fill="#ACAAAA"/>
<path d="M3.55569 44.8015C3.55569 44.8015 8.99715 58.6814 14.0198 66.7331C18.3932 73.744 26.9204 83.5043 26.9204 83.5043L32.3678 85.2244C32.3678 85.2244 23.8402 75.4641 19.4668 68.4532C14.4442 60.4016 9.00275 46.5216 9.00275 46.5216L3.55569 44.8015Z" fill="#BBB8B8"/>
<path d="M13.0163 93.1085C13.0163 93.1085 13.8134 95.444 14.7364 96.6921C15.2313 97.3612 15.3711 98.0354 16.1699 98.2689C16.5997 98.3946 16.915 98.467 17.3166 98.2689C17.7183 98.0708 17.4143 97.6496 17.1736 97.4088C16.9328 97.168 16.6138 97.4261 16.3135 97.2655C15.8053 96.9937 15.9002 96.4654 15.5968 95.9754C15.237 95.3945 14.9364 95.133 14.5934 94.5419C14.3421 94.1089 14.4193 93.6973 14.02 93.3952C13.6949 93.1493 13.0163 93.1085 13.0163 93.1085Z" fill="#D6D6D6"/>
<path d="M9.00247 92.6783C9.00247 92.6783 9.83459 95.0532 10.4359 96.5486C10.7074 97.2237 10.7547 97.6594 11.1526 98.2687C11.4349 98.7008 11.5437 99.0566 12.0127 99.2721C12.2721 99.3913 12.444 99.4154 12.7294 99.4154C13.0148 99.4154 12.8889 99.0723 12.873 98.842C12.8429 98.4059 12.9883 98.3345 12.7297 97.982C12.3436 97.4556 12.1332 97.554 11.8248 96.9786C11.4462 96.2721 11.0712 95.4069 10.7226 94.6851C10.4504 94.1216 10.7146 93.714 10.2928 93.2517C10.0512 92.9868 9.55076 92.7371 9.00247 92.6783Z" fill="#D6D6D6"/>
<path d="M5.99253 88.6649C5.77961 89.542 5.74886 90.0568 5.70594 90.9584C5.63653 92.4165 5.72567 93.2545 5.99253 94.6853C6.16458 95.6078 6.27894 96.1449 6.70925 96.9788C6.98691 97.5169 7.02209 98.0097 7.56931 98.2689C7.7779 98.3677 7.91188 98.4122 8.14268 98.4122C8.14268 98.4122 7.5107 96.5147 7.28281 95.2587C7.10181 94.2611 6.93197 93.6903 6.99612 92.6785C7.05798 91.7028 7.19737 91.1458 7.56931 90.2417C8.03007 89.1217 9.28962 87.6615 9.28962 87.6615L6.70925 86.6581C6.70925 86.6581 6.18883 87.8562 5.99253 88.6649Z" fill="#D6D6D6"/>
<path d="M17.8245 41.6853C17.7741 41.372 18.0433 41.1084 18.3596 41.1332C19.3486 41.2107 20.1679 41.1843 21.3305 41.0746C23.8723 40.8348 25.2593 40.2826 27.6376 39.3545C28.7814 38.9082 29.4103 38.6212 30.5045 38.0644C32.567 37.0147 33.6641 36.2911 35.5215 34.9108C37.2558 33.6221 38.3871 32.9843 39.7052 31.3688C39.8584 31.1811 40.1241 31.1189 40.3268 31.2515C41.9761 32.3301 42.0276 34.1208 42.8321 35.4842C42.8321 35.4842 39.4447 36.741 37.5284 38.4944C35.4531 40.3933 34.0191 41.0998 31.3646 42.2214C28.8654 43.2773 27.0323 43.7439 24.3407 44.0848C21.9977 44.3816 19.467 45.8049 19.467 45.8049C18.6116 44.1612 18.0622 43.1631 17.8245 41.6853Z" fill="url(#paint0_linear_1_2673)"/>
<path d="M63.3302 105.866C63.445 105.204 63.3302 104.146 63.3302 104.146L73.3643 106.726L72.6476 109.163C72.6476 109.163 76.4032 113.206 76.9479 116.474C77.2347 118.194 76.4172 122.064 73.9377 122.064C69.4941 122.064 67.7352 120.054 65.1937 117.047C62.9254 114.363 60.7971 112.114 61.7535 108.733C62.1012 107.503 63.1119 107.125 63.3302 105.866Z" fill="#C0C0C0"/>
<path d="M72.6476 109.163L73.3643 106.726H69.7807C69.7807 106.726 69.0944 108.014 69.2073 108.876C69.3528 109.986 70.0139 110.522 70.9274 111.169C71.8812 111.845 72.8341 111.363 73.7943 112.03C74.6777 112.643 74.893 113.302 75.5144 114.18C76.1248 115.042 76.9479 116.473 76.9479 116.473C76.4031 113.206 72.6476 109.163 72.6476 109.163Z" fill="#9C9C9C"/>
<path d="M63.3302 105.866C63.1119 107.125 62.1012 107.503 61.7535 108.733C60.7971 112.114 62.9254 114.363 65.1937 117.047C67.7352 120.054 69.4941 122.064 73.9376 122.064C73.9376 122.064 70.85 121.316 69.2074 120.2C67.4037 118.976 66.636 117.892 65.4805 116.043C64.7241 114.833 64.1962 114.144 63.9037 112.747C63.6514 111.541 63.5089 110.76 63.9037 109.593C64.2024 108.711 64.8219 108.44 65.1937 107.586C65.5405 106.789 65.7672 105.436 65.7672 105.436L63.3302 104.146C63.3302 104.146 63.445 105.204 63.3302 105.866Z" fill="#D6D6D6"/>
<path d="M17.9477 42.3646C18.8072 42.6513 20.6832 42.7828 22.0765 42.6513C24.6183 42.4115 26.1193 42.0026 28.4977 41.0745C29.6414 40.6282 30.2704 40.3413 31.3646 39.7844C33.427 38.7348 34.8108 37.8678 36.6683 36.4875C38.5154 35.1149 40.6529 33.6206 41.3701 32.1872C41.6568 32.4739 41.965 33.3165 42.288 34.4807C42.288 34.4807 40.1906 38.031 38.2743 39.7844C36.1991 41.6833 34.7651 42.3898 32.1106 43.5114C29.6114 44.5673 27.7783 45.0339 25.0867 45.3749C22.7437 45.6717 19.0663 44.8015 19.0663 44.8015C18.7791 44.8015 18.0904 43.2247 17.9477 42.3646Z" fill="url(#paint1_linear_1_2673)"/>
<path d="M74.7977 29.4638C74.7977 29.4638 75.7825 29.3802 76.3745 29.1771C77.038 28.9495 77.386 28.7324 77.9513 28.3171C78.5892 27.8483 78.8203 27.4387 79.3847 26.8836C81.0789 25.2174 83.8284 22.7267 83.8284 22.7267C83.8284 22.7267 84.3613 22.4889 84.6884 22.5833C84.9573 22.6609 85.0853 22.7961 85.2618 23.0134C85.4197 23.2076 85.499 23.3413 85.5485 23.5867C85.6157 23.9205 85.4857 24.1159 85.4051 24.4468C85.0414 25.9403 83.255 27.6793 83.5417 27.887L83.8284 28.0304C84.115 28.0304 85.4878 26.6637 86.6952 26.0236C87.2928 25.7067 87.6168 25.4749 88.272 25.3068C88.8709 25.1533 89.3284 24.8296 89.8488 25.1635C90.1886 25.3815 90.3159 25.6341 90.4222 26.0236C90.5105 26.3476 90.4608 26.55 90.4222 26.8836C90.208 28.7321 86.6808 29.6071 86.9819 30.1805C87.0758 30.3592 87.0881 30.5203 87.2686 30.6106C87.5553 30.7539 88.6793 30.6282 89.5621 30.4672C90.729 30.2544 91.2469 29.5621 92.429 29.4638C92.8195 29.4313 93.0614 29.3377 93.4324 29.4638C93.8463 29.6045 94.2032 29.7525 94.2924 30.1805C94.3647 30.5271 94.1714 30.7277 94.0058 31.0406C93.7094 31.6003 93.3589 31.7985 92.859 32.1873C92.0686 32.8021 91.4932 32.9571 90.5655 33.3341C89.2191 33.8811 88.2551 33.6366 86.9819 34.3375C86.3833 34.667 85.5485 34.6576 85.5485 35.3409C85.5485 36.3443 88.4105 36.7774 88.702 38.4944C88.7864 38.9911 88.9964 39.3757 88.702 39.7845C88.4226 40.1727 88.0272 40.1365 87.5553 40.2146C86.385 40.4082 85.8278 39.5411 84.6884 39.2112C83.4753 38.8599 82.7905 38.6302 81.5349 38.4944C80.3661 38.3681 78.5246 38.4944 78.5246 38.4944L78.0946 31.6139L74.7977 29.4638Z" fill="#C0C0C0"/>
<path d="M92.4286 29.4638C91.2465 29.5621 90.7287 30.2543 89.5618 30.4672C89.2751 30.6105 89.2744 30.6112 89.1317 30.7539L89.1317 30.7539C88.989 30.8966 88.8055 30.986 88.845 31.1839C88.8846 31.3818 89.085 31.4027 89.2751 31.4706C89.7098 31.6259 89.9907 31.349 90.4218 31.1839C90.7725 31.0497 90.9239 30.8674 91.2819 30.7539C91.6065 30.651 91.8051 30.6606 92.1419 30.6105C92.5884 30.5442 92.8468 30.5592 93.2887 30.4672C93.6877 30.3841 94.3813 30.6085 94.2921 30.1805C94.2029 29.7525 93.846 29.6044 93.432 29.4638C93.061 29.3377 92.8191 29.4313 92.4286 29.4638Z" fill="#D6D6D6"/>
<path d="M86.6955 26.0236C85.5482 26.7403 84.8315 27.3137 84.8315 27.3137C84.8315 27.3137 84.515 27.5783 84.6882 27.8871C84.914 28.2897 85.3945 28.3106 85.8354 28.1738C86.1787 28.0215 86.3551 27.9024 86.6955 27.7437C87.0819 27.5636 87.3323 27.5313 87.6989 27.3137C88.2106 27.0099 88.3422 26.6275 88.8456 26.3103C89.1634 26.1101 89.4981 26.1932 89.7057 25.8803C89.8635 25.6424 90.3695 25.4974 89.8491 25.1635C89.3286 24.8297 88.8712 25.1533 88.2723 25.3069C87.6171 25.4749 87.2691 25.6652 86.6955 26.0236Z" fill="#D6D6D6"/>
<path d="M76.3745 29.1771C75.7825 29.3802 75.3286 29.1324 74.7977 29.4638C73.4938 30.2778 76.5786 31.8677 78.0946 31.614C78.9374 31.4729 79.1806 30.8218 79.9581 30.4672C80.3932 30.2687 80.7182 30.3187 81.1048 30.0372C81.4583 29.7799 81.6761 29.5894 81.8215 29.1771C82.0519 28.5241 81.2856 28.1413 81.3915 27.457C81.5199 26.6272 82.183 26.4125 82.6816 25.7369C83.1337 25.1242 83.3002 24.7086 83.8283 24.1601C84.3256 23.6437 85.4383 23.2306 85.2618 23.0134C85.0853 22.7961 84.9573 22.6609 84.6884 22.5833C84.3613 22.4889 83.8283 22.7267 83.8283 22.7267C83.8283 22.7267 81.0789 25.2174 79.3847 26.8836C78.8203 27.4387 78.5892 27.8483 77.9513 28.3171C77.386 28.7324 77.038 28.9496 76.3745 29.1771Z" fill="#D6D6D6"/>
<path d="M46.5267 122.725C47.0196 122.031 47.8377 120.983 47.8377 120.983L53.0818 121.854L56.4495 120.63L58.7629 115.613C58.7629 115.613 59.3214 117.019 59.6369 117.936C59.9464 118.834 60.2204 119.319 60.3652 120.258C60.6537 122.128 60.2733 123.265 59.6369 125.047C58.6948 127.686 57.3802 128.853 55.4125 130.853C53.5087 132.788 49.8771 135.062 49.8771 135.062C49.8771 135.062 45.9114 136.967 44.0504 135.643C43.0489 134.93 42.6606 134.203 42.3023 133.03C41.6916 131.03 42.7065 129.753 43.4677 127.805C44.3102 125.649 45.1855 124.614 46.5267 122.725Z" fill="#C0C0C0"/>
<path d="M59.637 117.936C59.3214 117.019 58.7629 115.613 58.7629 115.613C58.7629 115.613 55.6863 118.612 56.4496 120.63C56.856 121.705 58.0639 121.701 58.4565 122.78C59.0558 124.428 57.9876 125.532 57.1664 127.081C56.511 128.317 55.9531 128.908 55.0163 129.948C53.955 131.125 53.4767 131.64 52.4361 132.671C51.4647 133.634 49.8772 135.062 49.8772 135.062C49.8772 135.062 53.5088 132.788 55.4126 130.853C57.3803 128.853 58.6949 127.686 59.637 125.047C60.2734 123.265 60.6538 122.128 60.3653 120.258C60.2204 119.319 59.9465 118.834 59.637 117.936Z" fill="#9C9C9C"/>
<path d="M46.527 122.725C45.1858 124.614 44.3105 125.649 43.468 127.805C42.7068 129.753 41.6927 131.03 42.3026 133.03C42.6607 134.204 43.262 135.252 44.0506 135.643C43.9796 135.194 43.8347 135.43 43.6922 134.535C43.5497 133.64 43.3547 132.785 43.468 131.668C43.6047 130.319 43.9819 129.601 44.5523 128.371C45.1638 127.053 45.4765 126.221 46.527 125.217C46.9931 124.772 47.3066 124.579 47.838 124.214C49.6889 122.942 53.438 123.639 53.0821 121.854C52.6761 119.819 47.838 120.984 47.838 120.984C47.838 120.984 47.0199 122.031 46.527 122.725Z" fill="#D6D6D6"/>
<path d="M18.3612 43.7497C21.9448 43.7497 22.8789 43.7833 25.6306 43.2247C28.4064 42.6613 29.9625 42.1668 32.5111 40.9312C34.8446 39.8 36.1272 39.0289 38.1015 37.3476C39.7903 35.9096 41.1118 34.4808 41.9718 33.1907C42.5452 33.9074 42.5167 34.2347 43.1186 34.6241C43.3288 34.7601 43.454 34.8329 43.6919 34.9108C44.7195 35.247 45.2227 34.1675 46.2721 33.9074C47.5807 33.5831 48.368 33.7218 49.7124 33.6207C52.6199 33.402 54.2583 33.4035 57.1662 33.1907C59.7441 33.002 61.2119 33.0509 63.7601 32.6173C67.862 31.9193 69.7817 29.6718 73.9375 29.4637C74.7761 29.4217 75.2679 29.2815 76.0876 29.4637C77.9074 29.8684 78.566 31.1161 79.6712 32.6173C80.458 33.686 81.0365 34.3174 81.248 35.6275C81.4947 37.156 81.4197 38.3434 80.3879 39.4978C79.2297 40.7937 77.6938 39.9804 76.0876 40.6445C74.2778 41.393 73.6624 42.6593 71.7873 43.2247C70.5442 43.5996 69.7476 43.3302 68.4904 43.6548C66.236 44.2368 65.3501 45.5176 63.1867 46.3783C61.6569 46.9869 60.7913 47.3653 59.1731 47.6684C58.0124 47.8857 57.3414 47.8817 56.1628 47.9551C53.928 48.0942 53.7259 47.3817 51.0024 47.9551C51.0024 48.6718 51.0179 48.9312 51.4325 49.5318C52.3364 50.8414 53.0343 51.4305 54.0127 52.6854C57.545 57.216 57.994 60.9345 62.0399 65.013C62.5383 65.5154 62.952 65.6806 63.3479 66.2672C63.8965 67.08 63.5729 67.8306 64.0826 68.6682C64.9176 70.0404 66.0435 70.2584 67.4601 71.0155C68.5107 71.577 69.2474 71.5956 70.2643 72.216C71.4792 72.9572 71.9924 73.6177 73.0057 74.617C73.8449 75.4446 74.2126 76.0077 75.0484 76.8388C76.2227 78.0066 77.2305 78.3193 78.2378 79.634C79.121 80.7868 79.5367 81.5411 79.9579 82.9309C80.3023 84.0674 80.4511 84.7553 80.3879 85.9411C80.3135 87.3386 79.771 88.0364 79.3845 89.3814C78.518 92.3967 78.3024 94.172 77.2344 97.122C76.1682 100.067 74.8338 101.432 73.9375 104.432C73.5099 105.864 74.1291 107.099 73.0774 108.159C72.1298 109.115 71.1261 109.138 69.7805 109.163C68.4501 109.187 67.6718 108.902 66.4836 108.303C65.6584 107.887 65.1779 107.618 64.5484 106.941C63.7892 106.125 62.7461 105.539 62.6133 104.432C62.1833 100.849 62.8334 99.6164 63.6167 96.6919C64.0041 95.2458 64.9129 94.604 64.9785 93.1083C65.0311 91.9072 64.8565 91.1806 64.3334 90.0981C61.6099 88.5213 60.0331 88.5213 54.8728 87.5179C54.586 87.5179 53.726 87.5179 53.1526 90.2414C52.8659 92.1049 53.3756 93.933 54.0127 96.4052C54.6022 98.6929 54.768 100.019 55.4461 102.282C56.3564 105.32 57.2487 106.892 58.313 109.88C58.8299 111.33 59.3881 112.081 59.6031 113.606C59.7594 114.715 59.7871 115.369 59.6031 116.473C59.2738 118.449 58.8033 119.68 57.5963 121.347C56.9691 122.213 56.6827 122.862 55.7328 123.354C54.684 123.897 53.9032 123.616 52.7226 123.641C51.6019 123.664 50.957 123.706 49.8557 123.497C48.9338 123.322 48.3368 123.31 47.5622 122.78C46.8405 122.287 46.6471 121.765 46.1288 121.06C44.5111 118.862 43.9048 117.317 42.8319 114.753C41.4575 111.469 41.0234 109.485 40.2517 106.009C39.9305 104.562 39.8556 103.729 39.535 102.282C38.9063 99.4445 39.1911 98.8221 37.8149 96.2619C37.0168 94.7774 35.6782 93.1547 35.0197 91.6032C34.3847 90.1076 34.6618 88.9759 33.9446 87.5179C33.0183 85.6351 33.0845 87.5179 30.9344 83.2176C29.006 79.361 26.6338 77.7702 25.4873 73.6136C25.2887 72.8936 25.2116 72.4809 25.0573 71.7501C24.869 70.8585 24.8042 70.3505 24.6272 69.4566C24.1367 66.9788 23.9105 64.1529 23.1938 63.1495C22.9155 63.1201 22.7566 63.1353 22.4771 63.1495C20.1836 63.266 22.0852 71.7334 19.8969 76.6238C19.4879 77.5379 19.0182 77.9525 18.7502 78.9173C18.3756 80.2657 19.0446 81.1327 18.7502 82.5009C18.4236 84.0185 18.0542 84.9179 17.03 86.0845C16.1284 87.1115 15.4624 87.6675 14.1632 88.0913C12.7794 88.5426 11.8849 88.2318 10.4362 88.0913C9.19034 87.9704 8.36439 88.1478 7.28266 87.5179C6.35843 86.9798 5.82851 86.4992 5.41919 85.5111C4.96928 84.4251 5.54571 83.6696 5.41919 82.5009C5.30222 81.4203 5.0184 80.8505 4.84582 79.7774C4.69367 78.8313 4.42942 78.2899 4.55913 77.3405C4.65498 76.639 4.96733 76.309 5.13251 75.6204C5.38199 74.5804 5.39595 73.9661 5.41919 72.8969C5.44849 71.549 5.06592 70.8031 5.13251 69.4566C5.17435 68.6105 5.30976 68.1465 5.41919 67.3065C5.71789 65.0137 5.48689 63.6486 6.13591 61.4294C6.36951 60.6306 6.49369 60.1734 6.85263 59.4226C7.22119 58.6516 7.52525 58.27 7.99938 57.5591C8.57715 56.6928 9.00607 56.2803 9.57616 55.4089C10.8097 53.5235 10.9649 52.1609 12.1563 50.2486C12.7311 49.3261 13.0261 48.7806 13.7331 47.9551C14.9502 46.5341 15.6438 45.3937 17.4601 44.9449C17.7906 44.8632 18.0691 45.0316 18.3201 44.8015C18.6119 44.534 18.2539 44.1307 18.3612 43.7497Z" fill="url(#paint2_linear_1_2673)"/>
<path d="M63.3489 66.2673C62.953 65.6807 62.5393 65.5154 62.0409 65.013C57.9949 60.9345 57.5459 57.2161 54.0136 52.6854C53.0352 51.4305 52.3373 50.8415 51.4334 49.5319C51.0188 48.9312 51.0034 47.9551 51.0034 47.9551C51.0034 47.9551 49.5683 47.6485 48.8528 47.095C47.2526 45.8573 47.8491 42.078 47.5627 42.078C44.5145 42.0783 48.0121 46.8212 48.5665 49.8186C48.9001 51.6217 49.035 52.6516 49.5699 54.4056C50.527 57.5433 51.365 59.2529 53.1535 62.0028C55.2066 65.1595 56.3113 67.343 59.604 69.17C62.3601 70.6991 68.8777 71.7726 67.4611 71.0155C66.0444 70.2584 64.9185 70.0404 64.0835 68.6683C63.5738 67.8306 63.8974 67.08 63.3489 66.2673Z" fill="url(#paint3_linear_1_2673)"/>
<path d="M51.0024 47.9551C53.7259 47.3817 53.928 48.0942 56.1628 47.9551C58.3976 47.816 53.7329 47.3873 52.4358 46.5217C51.4805 45.884 51.0487 45.3734 50.2857 44.5148C49.46 43.5858 47.5621 42.078 47.5621 42.078C47.5621 42.078 47.5034 43.6828 47.7057 44.5148C47.94 45.4787 47.8384 46.2236 48.5657 46.9517C49.2566 47.6433 51.0024 47.9551 51.0024 47.9551Z" fill="url(#paint4_linear_1_2673)"/>
<path d="M54.8731 87.518C60.0334 88.5214 61.6102 88.5214 64.3338 90.0982C64.8569 91.1807 65.0314 91.9073 64.9788 93.1084C64.9133 94.6041 64.0044 95.2459 63.6171 96.692C62.8337 99.6164 62.1836 100.849 62.6137 104.433C62.7465 105.539 63.7895 106.125 64.5488 106.941C65.3081 107.757 65.606 106.357 65.6239 105.723C65.6424 105.067 64.8734 105.002 64.5488 104.433C63.8768 103.253 63.954 102.347 64.0471 100.992C64.1698 99.2078 65.0559 98.3881 65.6239 96.692C66.3101 94.643 67.562 93.5187 67.2007 91.3883C66.9069 89.6562 66.2337 88.67 64.9072 87.518C63.2631 86.0903 61.7795 85.7214 59.6034 85.7979C57.639 85.867 55.3029 86.5146 54.8731 87.518Z" fill="#B26F34"/>
<path d="M33.2195 54.119L33.7929 53.689C33.7929 53.689 33.9916 55.9604 33.9362 57.4159C33.8806 58.8799 33.9215 59.7378 33.5062 61.1428C32.9591 62.9939 31.8294 63.6688 31.0694 65.4431C30.6023 66.5335 30.066 68.31 30.066 68.31C30.066 68.31 29.1689 64.5267 29.6359 63.4363C30.396 61.662 31.5256 60.9871 32.0728 59.136C32.4881 57.731 32.4472 56.8731 32.5028 55.4091C33.2195 54.119 33.2195 54.119 33.2195 54.119Z" fill="#D18643"/>
<path d="M18.3201 44.8015C18.0691 45.0316 17.7906 44.8632 17.4601 44.9449C15.6438 45.3937 14.9502 46.5341 13.7331 47.9551C13.0261 48.7806 12.7311 49.3261 12.1563 50.2486C10.9649 52.1609 10.8097 53.5235 9.57616 55.4089C9.00607 56.2803 8.57715 56.6928 7.99938 57.5591C7.52525 58.27 7.22119 58.6517 6.85263 59.4226C6.49369 60.1734 6.36951 60.6306 6.13591 61.4294C5.48689 63.6486 5.71789 65.0137 5.41919 67.3065C5.30976 68.1465 5.17435 68.6105 5.13251 69.4566C5.06592 70.8031 5.44849 71.549 5.41919 72.8969C5.39595 73.9661 5.38199 74.5804 5.13251 75.6204C4.96733 76.309 4.65498 76.639 4.55913 77.3405C4.42942 78.2899 4.69367 78.8313 4.84582 79.7774C5.0184 80.8505 5.30222 81.4203 5.41919 82.5009C5.54571 83.6696 4.96928 84.4251 5.41919 85.5111C5.82851 86.4992 6.35843 86.9798 7.28266 87.5179C8.36439 88.1478 9.19034 87.9704 10.4362 88.0913C11.6821 88.2122 10.6409 82.3873 11.1529 78.774C11.797 74.2291 12.4821 71.723 13.7331 67.3065C14.9586 62.9802 15.7304 60.5629 17.4601 56.4123C19.415 51.7213 28.0286 46.7554 23.3371 44.8015H18.3201Z" fill="#E5A064"/>
<path d="M49.8559 123.497C50.9572 123.706 52.7228 123.64 52.7228 123.64C55.5741 122.662 50.9079 119.298 49.8559 116.473C48.9045 113.918 48.3469 112.491 47.5624 109.879C46.9294 107.773 47.1365 106.388 46.1289 104.432C45.3238 102.87 44.2294 102.402 43.4054 100.849C41.9593 98.1238 42.1135 96.18 41.8286 93.1083C41.5857 90.4885 41.8286 89.0021 41.8286 86.3711C41.8286 84.2999 42.0076 83.1309 41.8286 81.0674C41.6768 79.3162 42.2728 77.9436 41.1119 76.6237C40.1847 75.5695 39.2168 66.2681 37.815 66.1903C36.2057 66.101 35.2423 66.6676 33.9447 67.6237C31.6659 69.303 28.7844 78.9172 30.9345 83.2175C33.0847 87.5179 33.0185 85.6351 33.9447 87.5179C34.662 88.9758 34.3849 90.1075 35.0198 91.6031C35.6784 93.1546 37.017 94.7773 37.815 96.2618C39.1912 98.822 38.9065 99.4445 39.5351 102.282C39.8557 103.729 39.9306 104.562 40.2519 106.009L40.2742 106.11C41.032 109.523 41.471 111.501 42.832 114.753C43.905 117.317 44.4605 118.837 46.1289 121.06C46.6539 121.76 46.8406 122.287 47.5624 122.78C48.3369 123.31 48.934 123.322 49.8559 123.497Z" fill="#E5A064"/>
<path d="M34.6277 44.2355L35.1155 43.9341C35.1155 43.9341 37.6868 47.203 39.1306 49.4376C41.8261 53.6094 42.4672 56.4402 44.865 60.7899C46.1629 63.1443 47.0114 64.3963 48.3056 66.7527C50.205 70.211 51.7658 71.9734 52.8928 75.7546C53.9051 79.1508 54.0397 84.7564 54.0397 84.7564L53.5519 85.0578C53.5519 85.0578 53.4172 79.4521 52.405 76.0559C51.278 72.2747 49.7172 70.5123 47.8178 67.054C46.5236 64.6976 45.6751 63.4456 44.3772 61.0912C41.9793 56.7415 41.3382 53.9107 38.6427 49.7389C37.199 47.5043 34.6277 44.2355 34.6277 44.2355Z" fill="url(#paint5_linear_1_2673)"/>
<path d="M42.8321 34.4808C42.8321 34.4808 43.2643 34.7539 43.5488 34.8535C44.1222 35.0542 44.0997 34.9676 44.4089 34.9108C44.9823 34.7675 45.2358 34.2922 45.8423 34.0507C46.221 33.9 46.4468 33.8475 46.8457 33.764C47.5602 33.6146 47.9808 33.6677 48.7092 33.6207C50.0511 33.5341 50.8061 33.5376 52.1495 33.4773C53.3252 33.4246 53.9847 33.4019 55.1597 33.334C56.7285 33.2433 57.6051 33.147 59.1733 33.0473C60.1247 32.9868 61.6101 32.904 61.6101 32.904C61.8708 33.1742 61.9273 33.4059 62.0402 33.764C62.4931 35.2016 61.6844 36.2938 60.6067 37.3476C59.3914 38.536 58.1384 38.4432 56.4498 38.6377C54.2632 38.8895 53.0489 38.1454 50.8594 37.921C46.8993 37.515 40.6819 37.3476 40.6819 37.3476L41.972 35.9142L42.8321 34.4808Z" fill="#E49046"/>
<path d="M18.4638 44.5149C18.4638 44.5149 27.2888 45.001 32.4393 42.9381C37.3969 40.9525 42.9177 34.4809 42.9177 34.4809C43.0459 34.5817 43.1211 34.6339 43.2618 34.7188C43.2618 34.7188 37.6738 41.2954 32.7981 43.3682C27.5128 45.615 18.3201 44.8016 18.3201 44.8016C18.4222 44.7065 18.4432 44.6418 18.4638 44.5149Z" fill="url(#paint6_linear_1_2673)"/>
<path d="M18.4638 44.5149C18.4638 44.5149 27.2888 45.001 32.4393 42.9381C37.3969 40.9525 42.9177 34.4809 42.9177 34.4809C43.0459 34.5817 43.1211 34.6339 43.2618 34.7188C43.2618 34.7188 37.6738 41.2954 32.7981 43.3682C27.5128 45.615 18.3201 44.8016 18.3201 44.8016C18.4222 44.7065 18.4432 44.6418 18.4638 44.5149Z" fill="url(#paint7_linear_1_2673)"/>
<path d="M22.0473 53.689H22.334C22.334 53.689 23.5856 56.7724 23.6241 58.8493C23.6556 60.545 22.9074 63.1325 22.9074 63.1325C22.6296 63.1418 22.7428 63.1411 22.6207 63.1411C22.6207 63.1411 23.3916 60.4596 23.3374 58.706C23.275 56.6839 22.0473 53.689 22.0473 53.689Z" fill="url(#paint8_linear_1_2673)"/>
<path d="M0.398789 17.3077C0.796947 15.4311 1.2593 14.4006 2.23844 12.7207C3.16105 11.1379 3.8602 10.3326 5.15123 8.99377C6.9735 7.10407 8.20407 6.17753 10.5169 4.83681C12.7488 3.54298 14.1491 3.00832 16.6491 2.25662C19.3765 1.43653 20.9917 1.0735 23.8544 0.966529C26.1347 0.881318 27.4416 0.980697 29.68 1.39656C31.019 1.64534 31.7941 1.76189 33.0527 2.25662C34.2643 2.73294 34.9166 3.09267 35.9655 3.8334C38.6425 5.724 39.3748 7.61973 40.8712 10.4272C41.6498 11.8879 41.9937 12.7529 42.5576 14.2975C43.1394 15.8912 43.4997 16.7915 43.784 18.4545C44.1904 20.8314 44.4546 22.2942 43.784 24.6182C43.2399 26.5037 42.5374 27.4677 41.3311 29.0619C40.2542 30.4852 39.534 31.2313 38.1117 32.3588C36.3496 33.7557 35.0848 34.1981 33.0527 35.2257C30.5553 36.4885 29.1632 37.2792 26.4606 38.0925C22.5515 39.269 20.0433 40.2212 16.0359 39.3826C13.9415 38.9444 12.7951 38.4418 10.9768 37.3758C9.53496 36.5306 8.82537 35.9038 7.60411 34.7956C5.01699 32.4481 3.69348 30.8559 2.23844 27.7718C0.450838 23.9828 -0.463091 21.3699 0.398789 17.3077Z" fill="url(#paint9_linear_1_2673)"/>
<path d="M2.95755 25.9082L9.98127 37.3757C9.98127 37.3757 7.86758 37.4804 6.68436 36.9457C5.34924 36.3423 4.82024 35.552 3.96083 34.3655C3.12366 33.2096 2.74011 32.4506 2.38405 31.0686C1.92318 29.2797 2.95755 25.9082 2.95755 25.9082Z" fill="#B7B6B2"/>
<path d="M39.5353 11.4026C39.5353 11.4026 42.453 12.4237 43.2373 13.0074C43.9049 13.5043 44.2096 13.8914 44.6707 14.5842C45.3968 15.6751 45.6263 16.4414 45.8175 17.7378C45.9563 18.6792 45.9563 19.2331 45.8175 20.1746C45.6263 21.471 43.2373 25.4502 43.2373 25.4502L39.5353 11.4026Z" fill="#B7B7C3"/>
<g filter="url(#filter0_f_1_2673)">
<path d="M42.3773 14.3179L43.0141 13.8674C43.0141 13.8674 43.6375 14.8544 43.9693 15.5193C44.4217 16.426 44.6288 16.9595 44.9245 17.922C45.0671 18.3865 45.3152 18.6446 45.2429 19.1234C45.1721 19.5914 44.6061 20.1746 44.6061 20.1746C44.6061 20.1746 44.2825 18.6928 43.9693 17.7718C43.4929 16.3714 42.3773 14.3179 42.3773 14.3179Z" fill="#62635E" fill-opacity="0.5"/>
</g>
<path d="M2.67081 19.6012C3.0431 17.7246 3.47541 16.694 4.39094 15.0142C5.2536 13.4313 5.90732 12.626 7.11447 11.2872C8.81833 9.39752 9.96895 8.47099 12.1315 7.13026C14.2184 5.83643 15.5277 5.30178 17.8652 4.55008C20.4154 3.72999 21.9257 3.36696 24.6024 3.25999C26.7345 3.17478 27.9565 3.27415 30.0494 3.69002C31.3015 3.9388 32.0263 4.05534 33.203 4.55008C34.3359 5.02639 34.9458 5.38613 35.9265 6.12686C38.4296 8.01746 39.1143 9.91319 40.5135 12.7207C41.2415 14.1814 41.5631 15.0464 42.0903 16.5909C42.6343 18.1847 42.9712 19.085 43.2371 20.7479C43.617 23.1248 43.8641 24.5877 43.2371 26.9117C42.7284 28.7971 42.0714 29.7611 40.9436 31.3553C39.9366 32.7786 39.2632 33.5248 37.9333 34.6522C36.2857 36.0491 35.1031 36.4916 33.203 37.5191C30.8679 38.7819 29.5663 39.5726 27.0392 40.386C23.3841 41.5624 21.0389 42.5147 17.2919 41.6761C15.3336 41.2378 14.2617 40.7352 12.5615 39.6693C11.2134 38.824 10.5499 38.1973 9.40796 37.0891C6.98894 34.7415 5.75143 33.1494 4.39094 30.0652C2.71948 26.2762 1.86493 23.6633 2.67081 19.6012Z" fill="url(#paint10_linear_1_2673)"/>
<path d="M8.11805 22.1814C9.40807 20.0312 9.91595 19.294 11.415 17.7377C13.1316 15.9555 14.3136 15.1463 16.432 13.8674C18.4905 12.6247 19.7627 12.109 22.0224 11.2872C25.1759 10.1405 26.7526 9.85381 29.3329 9.85382C31.1563 9.85383 32.3782 10.9887 33.4899 12.434C34.9232 14.2975 35.2478 14.7244 36.3568 16.8776C37.242 18.5966 38.2202 21.4646 38.2202 21.4646C38.2202 21.4646 38.8935 23.9012 38.2202 25.1916C36.5001 28.4885 33.4476 31.127 29.3329 33.5055C25.0389 35.9877 23.7424 36.9458 17.1487 36.6591C13.9951 35.9424 9.17447 31.2967 8.11809 25.765C7.89658 24.6051 7.51052 23.194 8.11805 22.1814Z" fill="url(#paint11_linear_1_2673)"/>
<path d="M14.2817 15.1577C16.3581 13.6101 17.7788 12.8819 20.1588 11.8608C22.4697 10.8693 23.8268 10.3059 26.3225 9.99729C27.2132 9.88717 28.616 9.85397 28.616 9.85397C28.616 9.85397 23.2837 15.4358 21.4488 19.888C19.4247 24.7994 19.5854 33.3623 19.5854 33.3623L13.5649 33.9357C13.5649 33.9357 8.23209 24.7819 9.12135 21.0348C9.40797 19.8271 10.2204 18.902 11.2714 17.7378C12.305 16.593 13.045 16.0793 14.2817 15.1577Z" fill="url(#paint12_linear_1_2673)"/>
<path fill-rule="evenodd" clip-rule="evenodd" d="M10.9766 17.5009C9.42161 19.1237 8.89471 19.8924 7.55675 22.1343C6.99625 23.0733 7.25102 24.3408 7.47584 25.4605C7.50383 25.5999 7.53127 25.7371 7.55675 25.8709C8.65254 31.6389 13.653 36.483 16.9245 37.2302C23.4388 37.515 24.9685 36.6223 28.9477 34.3007L29.5634 33.942C33.8315 31.462 36.9979 28.7108 38.7821 25.2731C39.4807 23.9276 38.7821 21.387 38.7821 21.387C38.7821 21.387 37.7675 18.3965 36.8492 16.6041C35.6989 14.3589 35.3623 13.9137 33.8754 11.9707C32.7222 10.4637 31.4548 9.28033 29.5634 9.28033C26.8866 9.28033 25.251 9.57927 21.9799 10.7749C19.636 11.6318 18.3162 12.1696 16.1809 13.4653C13.9834 14.7988 12.7574 15.6425 10.9766 17.5009ZM11.4147 17.7376C9.91576 19.2939 9.40789 20.0311 8.1178 22.1812C7.57774 23.0816 7.823 24.2969 8.03969 25.3705C8.06657 25.5045 8.09316 25.6362 8.1178 25.7649C9.1744 31.2966 13.9949 35.9423 17.1485 36.659C23.4284 36.932 24.9036 36.0759 28.7394 33.8494C28.9309 33.7382 29.1283 33.6235 29.3327 33.5054C33.4474 31.1269 36.4998 28.4884 38.22 25.1915C38.8933 23.9011 38.22 21.4645 38.22 21.4645C38.22 21.4645 37.2418 18.5965 36.3565 16.8775C35.2475 14.7243 34.9231 14.2974 33.4896 12.4339C32.3779 10.9886 31.1561 9.85371 29.3327 9.85371C26.7525 9.85371 25.1757 10.1404 22.0221 11.2871C19.7625 12.1089 18.4903 12.6246 16.4317 13.8673C14.3135 15.1462 13.1315 15.9554 11.4147 17.7376Z" fill="url(#paint13_linear_1_2673)"/>
<path d="M72.9163 90.3944C74.1222 89.2579 75.4696 86.9446 75.4696 86.9446C75.4696 86.9446 75.1858 87.8418 74.9589 88.3972C74.4351 89.6792 73.9621 90.2773 72.9163 91.1207C71.8745 91.9609 70.0225 92.3917 70.0225 92.3917C70.0225 92.3917 71.9076 91.3451 72.9163 90.3944Z" fill="#AC7341"/>
<ellipse cx="2.85132" cy="2.84917" rx="2.85132" ry="2.84917" transform="matrix(0.777144 -0.629323 0.629318 0.777148 37.6508 44.2819)" fill="#59C7EA"/>
<path d="M39.9147 46.9486L40.1349 45.9536L40.5864 45.9529L40.8275 45.3059L41.3755 45.2096L40.7716 44.743L42.8856 44.7339L41.6912 44.3111L41.1675 43.0845L42.5149 43.3313L42.7195 42.9397L44.088 43.1695L44.5223 43.8776L44.6892 44.6634L44.1373 46.3439L43.0666 47.2979L41.7395 47.6775L40.2376 47.3473L39.9147 46.9486Z" fill="#DBDBDB"/>
<path fill-rule="evenodd" clip-rule="evenodd" d="M42.9308 44.732L41.3344 44.7462L40.8595 44.759L41.4307 45.2029L41.0216 45.3948L40.7108 46.0827L40.2006 46.1526L39.8939 47.0517L39.9644 45.65L40.5087 45.8333L40.5697 44.5202L41.2339 44.622L41.2103 44.0014L40.9723 42.8081L41.5726 42.9035L42.3649 43.2118L42.4386 42.7354C43.5029 42.9907 44.0527 43.1354 44.0878 43.1693C44.1229 43.2033 43.6784 43.1674 42.7543 43.0619L43.2782 43.825L42.2515 43.6317L41.3134 43.2292L41.5655 43.8592L42.5159 44.0684L41.7601 44.3318L42.9308 44.732Z" fill="white"/>
<path fill-rule="evenodd" clip-rule="evenodd" d="M40.4768 44.4618C40.4768 44.4618 40.0857 44.5374 39.9183 44.7031C39.7509 44.8688 39.6598 44.9425 39.6598 44.9425C39.6598 44.9425 39.8766 45.0985 40.0743 45.1191C40.2715 45.1133 40.2538 45.1545 40.2538 45.1545C39.7576 47.4848 41.4258 48.5571 43.4422 46.9243C43.4422 46.9243 42.6562 46.7267 42.3033 46.5254C41.8603 46.2592 42.0255 45.7495 42.0255 45.7495C42.0255 45.7495 42.3097 45.5027 42.8893 45.5549C43.1663 45.5798 43.3928 45.4272 43.4091 45.4017C43.449 45.3393 43.3675 45.1642 43.3675 45.1642C43.3675 45.1642 43.4698 45.1416 43.5054 44.9621C43.541 44.7826 43.437 44.5053 43.437 44.5053C43.437 44.5053 42.955 44.4437 42.7755 44.4083C42.5961 44.3728 42.3235 44.3115 42.1545 44.1773C41.9855 44.043 41.4298 43.8801 41.4298 43.8801C40.0629 43.2667 39.3368 43.9589 39.1069 44.6603C39.0068 45.006 39.0347 45.5193 39.7023 45.7459C39.3213 45.3373 39.3047 45.0811 39.3358 44.9221C39.4408 44.3866 40.0264 44.0438 40.4768 44.4618Z" fill="#BC0624"/>
<g filter="url(#filter1_i_1_2673)">
<path d="M39.1067 44.66C39.3097 43.9585 40.0238 43.4373 40.9367 43.7057C40.9367 43.7057 40.5999 43.8785 40.5148 44.0823C40.4574 44.2196 40.4766 44.4615 40.4766 44.4615C40.0262 44.0435 39.4407 44.3863 39.3357 44.9219C39.3046 45.0808 39.3211 45.337 39.7021 45.7457C39.0345 45.5191 39.0066 45.0058 39.1067 44.66Z" fill="#7B5C46"/>
<path d="M39.1067 44.66C39.3097 43.9585 40.0238 43.4373 40.9367 43.7057C40.9367 43.7057 40.5999 43.8785 40.5148 44.0823C40.4574 44.2196 40.4766 44.4615 40.4766 44.4615C40.0262 44.0435 39.4407 44.3863 39.3357 44.9219C39.3046 45.0808 39.3211 45.337 39.7021 45.7457C39.0345 45.5191 39.0066 45.0058 39.1067 44.66Z" fill="url(#paint14_linear_1_2673)"/>
</g>
<path d="M43.2802 44.6626C43.2683 44.6479 43.2658 44.6279 43.2735 44.6107L43.3029 44.5463C43.3081 44.5347 43.316 44.5245 43.3259 44.5165V44.5165C43.3431 44.5025 43.3653 44.4962 43.3874 44.4989L43.4371 44.505L43.4555 44.5333C43.4604 44.5408 43.4642 44.5489 43.4668 44.5574V44.5574C43.4861 44.6197 43.439 44.6826 43.3738 44.6818L43.3181 44.681C43.3033 44.6808 43.2894 44.6741 43.2802 44.6626V44.6626Z" fill="#1C1C21"/>
<mask id="mask0_1_2673" style="mask-type:alpha" maskUnits="userSpaceOnUse" x="39" y="43" width="2" height="3">
<path d="M39.1067 44.66C39.3097 43.9585 40.0239 43.4374 40.9368 43.7058L40.4766 44.4615C40.0262 44.0435 39.4407 44.3863 39.3357 44.9218C39.3046 45.0808 39.3211 45.337 39.7021 45.7457C39.0345 45.5191 39.0066 45.0057 39.1067 44.66Z" fill="#7B5C46"/>
<path d="M39.1067 44.66C39.3097 43.9585 40.0239 43.4374 40.9368 43.7058L40.4766 44.4615C40.0262 44.0435 39.4407 44.3863 39.3357 44.9218C39.3046 45.0808 39.3211 45.337 39.7021 45.7457C39.0345 45.5191 39.0066 45.0057 39.1067 44.66Z" fill="url(#paint15_linear_1_2673)"/>
</mask>
<g mask="url(#mask0_1_2673)">
<path d="M40.5629 43.6261C40.3414 43.9689 40.2639 44.137 40.3236 44.3494" stroke="#372620" stroke-width="0.1" stroke-miterlimit="2.6131"/>
<path d="M40.5629 43.6261C40.3414 43.9689 40.2639 44.137 40.3236 44.3494" stroke="url(#paint16_linear_1_2673)" stroke-width="0.1" stroke-miterlimit="2.6131"/>
<path d="M40.1368 43.6586C40.0871 43.8923 40.0233 44.0534 40.1146 44.2839" stroke="#372620" stroke-width="0.1" stroke-miterlimit="2.6131"/>
<path d="M40.1368 43.6586C40.0871 43.8923 40.0233 44.0534 40.1146 44.2839" stroke="url(#paint17_linear_1_2673)" stroke-width="0.1" stroke-miterlimit="2.6131"/>
<path d="M39.6908 43.8545C39.72 44.051 39.7626 44.1456 39.8937 44.3019" stroke="#372620" stroke-width="0.1" stroke-miterlimit="2.6131"/>
<path d="M39.6908 43.8545C39.72 44.051 39.7626 44.1456 39.8937 44.3019" stroke="url(#paint18_linear_1_2673)" stroke-width="0.1" stroke-miterlimit="2.6131"/>
<path d="M39.4182 44.0739C39.5114 44.2369 39.5586 44.2886 39.7018 44.3971" stroke="#372620" stroke-width="0.1" stroke-miterlimit="2.6131"/>
<path d="M39.4182 44.0739C39.5114 44.2369 39.5586 44.2886 39.7018 44.3971" stroke="url(#paint19_linear_1_2673)" stroke-width="0.1" stroke-miterlimit="2.6131"/>
<path d="M39.2617 44.275C39.3352 44.4165 39.399 44.4747 39.5396 44.546" stroke="#372620" stroke-width="0.1" stroke-miterlimit="2.6131"/>
<path d="M39.2617 44.275C39.3352 44.4165 39.399 44.4747 39.5396 44.546" stroke="url(#paint20_linear_1_2673)" stroke-width="0.1" stroke-miterlimit="2.6131"/>
<path d="M39.1208 44.542C39.0961 44.5918 39.4335 44.8087 39.406 44.7356" stroke="#372620" stroke-width="0.1" stroke-miterlimit="2.6131"/>
<path d="M39.1208 44.542C39.0961 44.5918 39.4335 44.8087 39.406 44.7356" stroke="url(#paint21_linear_1_2673)" stroke-width="0.1" stroke-miterlimit="2.6131"/>
<path d="M39.045 44.8483C39.1534 44.921 39.2199 44.9467 39.3465 44.9589" stroke="#372620" stroke-width="0.1" stroke-miterlimit="2.6131"/>
<path d="M39.045 44.8483C39.1534 44.921 39.2199 44.9467 39.3465 44.9589" stroke="url(#paint22_linear_1_2673)" stroke-width="0.1" stroke-miterlimit="2.6131"/>
</g>
<path d="M43.4421 46.9245C41.3852 47.3392 41.0447 45.7963 41.1315 44.973C41.0955 45.315 41.3517 45.6172 41.4944 45.7217C41.6199 45.8425 41.8915 45.8151 42.0165 45.7833C41.9438 46.1049 42.1182 46.3633 42.2242 46.4512C42.37 46.5722 43.4421 46.9245 43.4421 46.9245Z" fill="#8F0018"/>
<g filter="url(#filter2_i_1_2673)">
<path fill-rule="evenodd" clip-rule="evenodd" d="M42.0214 44.551C42.0214 44.551 41.8803 44.4873 41.8182 44.5265C41.7562 44.5657 41.7576 44.6094 41.7126 44.6466C41.6675 44.6836 41.6335 44.6879 41.6335 44.6879C41.6335 44.6879 41.7451 44.7429 41.839 44.7059C41.9328 44.669 42.0037 44.6035 42.0037 44.6035L42.0214 44.551Z" fill="#A4001B"/>
</g>
<g filter="url(#filter3_i_1_2673)">
<path fill-rule="evenodd" clip-rule="evenodd" d="M42.8534 45.2602C42.8534 45.2602 42.8695 45.2163 43.0491 45.1863C43.2286 45.1563 43.3667 45.1644 43.3667 45.1644" fill="#AD0420"/>
</g>
<path d="M40.2537 45.155C40.3684 45.1906 40.451 45.1789 40.5427 45.1478C40.4332 45.2231 40.3328 45.2542 40.2391 45.2267C40.2432 45.2067 40.2492 45.1752 40.2537 45.155Z" fill="url(#paint23_linear_1_2673)" fill-opacity="0.3"/>
<g filter="url(#filter4_i_1_2673)">
<path d="M39.8037 45.0288C39.8037 45.0288 39.837 45.0442 39.9458 44.9235C40.0546 44.8027 40.15 44.7144 40.3193 44.7045C40.3378 44.7034 40.6235 44.7752 40.6323 44.5344C40.6567 44.5585 40.5696 44.8375 40.6846 45.0224C40.5045 45.2724 40.2537 45.1551 40.2537 45.1551C40.2537 45.1551 40.2236 45.1232 40.0746 45.1195C39.9255 45.1158 39.8037 45.0288 39.8037 45.0288Z" fill="#AD0420"/>
</g>
<g filter="url(#filter5_i_1_2673)">
<path d="M41.7914 44.6029C41.8473 44.5186 41.944 44.5589 41.944 44.5589C41.9168 44.545 41.8282 44.593 41.8451 44.6331C41.8572 44.6615 41.9352 44.6027 41.94 44.5969C41.937 44.602 41.859 44.6805 41.8181 44.6881C41.7772 44.6958 41.6999 44.6869 41.6999 44.6869C41.7371 44.6836 41.782 44.6173 41.7914 44.6029Z" fill="#810016"/>
</g>
<path fill-rule="evenodd" clip-rule="evenodd" d="M43.6227 47.1258C44.9625 46.0408 45.1697 44.076 44.0856 42.7372C43.0015 41.3984 41.0365 41.1927 39.6967 42.2776C38.3569 43.3626 38.1496 45.3274 39.2338 46.6662C40.3179 48.005 42.2829 48.2107 43.6227 47.1258ZM43.4527 46.9159C44.6765 45.9249 44.8658 44.1302 43.8756 42.9073C42.8853 41.6844 41.0905 41.4965 39.8667 42.4875C38.6429 43.4785 38.4535 45.2732 39.4438 46.4961C40.4341 47.719 42.2289 47.9069 43.4527 46.9159Z" fill="#BC0624"/>
<path fill-rule="evenodd" clip-rule="evenodd" d="M43.6227 47.1258C44.9625 46.0408 45.1697 44.076 44.0856 42.7372C43.0015 41.3984 41.0365 41.1927 39.6967 42.2776C38.3569 43.3626 38.1496 45.3274 39.2338 46.6662C40.3179 48.005 42.2829 48.2107 43.6227 47.1258ZM43.4527 46.9159C44.6765 45.9249 44.8658 44.1302 43.8756 42.9073C42.8853 41.6844 41.0905 41.4965 39.8667 42.4875C38.6429 43.4785 38.4535 45.2732 39.4438 46.4961C40.4341 47.719 42.2289 47.9069 43.4527 46.9159Z" fill="url(#paint24_linear_1_2673)"/>
<defs>
<filter id="filter0_f_1_2673" x="38.3773" y="9.86743" width="10.8785" height="14.3071" filterUnits="userSpaceOnUse" color-interpolation-filters="sRGB">
<feFlood flood-opacity="0" result="BackgroundImageFix"/>
<feBlend mode="normal" in="SourceGraphic" in2="BackgroundImageFix" result="shape"/>
<feGaussianBlur stdDeviation="2" result="effect1_foregroundBlur_1_2673"/>
</filter>
<filter id="filter1_i_1_2673" x="39.0636" y="43.6339" width="1.87311" height="6.11177" filterUnits="userSpaceOnUse" color-interpolation-filters="sRGB">
<feFlood flood-opacity="0" result="BackgroundImageFix"/>
<feBlend mode="normal" in="SourceGraphic" in2="BackgroundImageFix" result="shape"/>
<feColorMatrix in="SourceAlpha" type="matrix" values="0 0 0 0 0 0 0 0 0 0 0 0 0 0 0 0 0 0 127 0" result="hardAlpha"/>
<feOffset dy="4"/>
<feGaussianBlur stdDeviation="2"/>
<feComposite in2="hardAlpha" operator="arithmetic" k2="-1" k3="1"/>
<feColorMatrix type="matrix" values="0 0 0 0 0 0 0 0 0 0 0 0 0 0 0 0 0 0 0.35 0"/>
<feBlend mode="normal" in2="shape" result="effect1_innerShadow_1_2673"/>
</filter>
<filter id="filter2_i_1_2673" x="41.6335" y="44.5137" width="0.387909" height="0.704987" filterUnits="userSpaceOnUse" color-interpolation-filters="sRGB">
<feFlood flood-opacity="0" result="BackgroundImageFix"/>
<feBlend mode="normal" in="SourceGraphic" in2="BackgroundImageFix" result="shape"/>
<feColorMatrix in="SourceAlpha" type="matrix" values="0 0 0 0 0 0 0 0 0 0 0 0 0 0 0 0 0 0 127 0" result="hardAlpha"/>
<feOffset dy="0.5"/>
<feGaussianBlur stdDeviation="0.25"/>
<feComposite in2="hardAlpha" operator="arithmetic" k2="-1" k3="1"/>
<feColorMatrix type="matrix" values="0 0 0 0 0 0 0 0 0 0 0 0 0 0 0 0 0 0 0.05 0"/>
<feBlend mode="normal" in2="shape" result="effect1_innerShadow_1_2673"/>
</filter>
<filter id="filter3_i_1_2673" x="42.8534" y="45.1634" width="0.513336" height="0.196848" filterUnits="userSpaceOnUse" color-interpolation-filters="sRGB">
<feFlood flood-opacity="0" result="BackgroundImageFix"/>
<feBlend mode="normal" in="SourceGraphic" in2="BackgroundImageFix" result="shape"/>
<feColorMatrix in="SourceAlpha" type="matrix" values="0 0 0 0 0 0 0 0 0 0 0 0 0 0 0 0 0 0 127 0" result="hardAlpha"/>
<feOffset dy="0.1"/>
<feGaussianBlur stdDeviation="0.05"/>
<feComposite in2="hardAlpha" operator="arithmetic" k2="-1" k3="1"/>
<feColorMatrix type="matrix" values="0 0 0 0 0 0 0 0 0 0 0 0 0 0 0 0 0 0 0.25 0"/>
<feBlend mode="normal" in2="shape" result="effect1_innerShadow_1_2673"/>
</filter>
<filter id="filter4_i_1_2673" x="39.8037" y="44.5344" width="0.880859" height="1.14821" filterUnits="userSpaceOnUse" color-interpolation-filters="sRGB">
<feFlood flood-opacity="0" result="BackgroundImageFix"/>
<feBlend mode="normal" in="SourceGraphic" in2="BackgroundImageFix" result="shape"/>
<feColorMatrix in="SourceAlpha" type="matrix" values="0 0 0 0 0 0 0 0 0 0 0 0 0 0 0 0 0 0 127 0" result="hardAlpha"/>
<feOffset dy="0.5"/>
<feGaussianBlur stdDeviation="0.75"/>
<feComposite in2="hardAlpha" operator="arithmetic" k2="-1" k3="1"/>
<feColorMatrix type="matrix" values="0 0 0 0 0 0 0 0 0 0 0 0 0 0 0 0 0 0 0.04 0"/>
<feBlend mode="normal" in2="shape" result="effect1_innerShadow_1_2673"/>
</filter>
<filter id="filter5_i_1_2673" x="41.7" y="44.5493" width="0.244019" height="0.241983" filterUnits="userSpaceOnUse" color-interpolation-filters="sRGB">
<feFlood flood-opacity="0" result="BackgroundImageFix"/>
<feBlend mode="normal" in="SourceGraphic" in2="BackgroundImageFix" result="shape"/>
<feColorMatrix in="SourceAlpha" type="matrix" values="0 0 0 0 0 0 0 0 0 0 0 0 0 0 0 0 0 0 127 0" result="hardAlpha"/>
<feOffset dy="0.1"/>
<feGaussianBlur stdDeviation="0.05"/>
<feComposite in2="hardAlpha" operator="arithmetic" k2="-1" k3="1"/>
<feColorMatrix type="matrix" values="0 0 0 0 0 0 0 0 0 0 0 0 0 0 0 0 0 0 0.25 0"/>
<feBlend mode="normal" in2="shape" result="effect1_innerShadow_1_2673"/>
</filter>
<linearGradient id="paint0_linear_1_2673" x1="37.0983" y1="32.7607" x2="17.7469" y2="43.3681" gradientUnits="userSpaceOnUse">
<stop stop-color="#778186"/>
<stop offset="1" stop-color="#474B4C"/>
</linearGradient>
<linearGradient id="paint1_linear_1_2673" x1="37.385" y1="33.6206" x2="18.7503" y2="43.6547" gradientUnits="userSpaceOnUse">
<stop stop-color="#C1C1C1"/>
<stop offset="1" stop-color="#929292"/>
</linearGradient>
<linearGradient id="paint2_linear_1_2673" x1="56.7362" y1="32.904" x2="39.2483" y2="126.507" gradientUnits="userSpaceOnUse">
<stop stop-color="#D4853F"/>
<stop offset="1" stop-color="#D79962"/>
</linearGradient>
<linearGradient id="paint3_linear_1_2673" x1="56.7364" y1="32.904" x2="39.2486" y2="126.507" gradientUnits="userSpaceOnUse">
<stop stop-color="#A25D21"/>
<stop offset="1" stop-color="#D79962"/>
</linearGradient>
<linearGradient id="paint4_linear_1_2673" x1="56.7363" y1="32.904" x2="39.2484" y2="126.507" gradientUnits="userSpaceOnUse">
<stop stop-color="#995316"/>
<stop offset="1" stop-color="#D79962"/>
</linearGradient>
<linearGradient id="paint5_linear_1_2673" x1="42.6886" y1="60.9995" x2="45.2688" y2="59.7094" gradientUnits="userSpaceOnUse">
<stop stop-color="#6A4222"/>
<stop offset="1" stop-color="#D58947"/>
</linearGradient>
<linearGradient id="paint6_linear_1_2673" x1="28.3545" y1="41.9347" x2="29.2145" y2="44.6583" gradientUnits="userSpaceOnUse">
<stop stop-color="#D48845"/>
<stop offset="1" stop-color="#4E3219"/>
</linearGradient>
<linearGradient id="paint7_linear_1_2673" x1="41.1121" y1="35.771" x2="42.9755" y2="35.6276" gradientUnits="userSpaceOnUse">
<stop stop-color="#D48641" stop-opacity="0"/>
<stop offset="1" stop-color="#4E3219"/>
</linearGradient>
<linearGradient id="paint8_linear_1_2673" x1="22.1907" y1="54.119" x2="23.1483" y2="63.1697" gradientUnits="userSpaceOnUse">
<stop stop-color="#D58A49"/>
<stop offset="1" stop-color="#281709"/>
</linearGradient>
<linearGradient id="paint9_linear_1_2673" x1="1.79093" y1="14.9862" x2="35.7634" y2="20.4332" gradientUnits="userSpaceOnUse">
<stop stop-color="#9F9F9F"/>
<stop offset="1" stop-color="#787877"/>
</linearGradient>
<linearGradient id="paint10_linear_1_2673" x1="2.36414" y1="20.1465" x2="28.596" y2="20.8632" gradientUnits="userSpaceOnUse">
<stop stop-color="#CBCBCB"/>
<stop offset="1" stop-color="#828380"/>
</linearGradient>
<linearGradient id="paint11_linear_1_2673" x1="8.69135" y1="23.6148" x2="37.9335" y2="24.3315" gradientUnits="userSpaceOnUse">
<stop stop-color="#1B0A5D"/>
<stop offset="0.390625" stop-color="#1B0A5D"/>
<stop offset="0.970597" stop-color="#010005"/>
</linearGradient>
<linearGradient id="paint12_linear_1_2673" x1="28.7594" y1="11.4307" x2="13.2782" y2="22.6115" gradientUnits="userSpaceOnUse">
<stop stop-color="#FFF9FF" stop-opacity="0.36"/>
<stop offset="1" stop-color="#1B0A5D" stop-opacity="0"/>
</linearGradient>
<linearGradient id="paint13_linear_1_2673" x1="7.23792" y1="23.3" x2="39.0602" y2="23.3" gradientUnits="userSpaceOnUse">
<stop stop-color="#5B5C59"/>
<stop offset="1" stop-color="#3F403E"/>
</linearGradient>
<linearGradient id="paint14_linear_1_2673" x1="39.5752" y1="43.9441" x2="40.1637" y2="44.6794" gradientUnits="userSpaceOnUse">
<stop stop-color="#A58C7A"/>
<stop offset="1" stop-color="#7B5C46" stop-opacity="0"/>
</linearGradient>
<linearGradient id="paint15_linear_1_2673" x1="39.5752" y1="43.9441" x2="40.1637" y2="44.6793" gradientUnits="userSpaceOnUse">
<stop stop-color="#A58C7A"/>
<stop offset="1" stop-color="#7B5C46" stop-opacity="0"/>
</linearGradient>
<linearGradient id="paint16_linear_1_2673" x1="40.2952" y1="43.8282" x2="40.5614" y2="44.1568" gradientUnits="userSpaceOnUse">
<stop stop-color="#95614F"/>
<stop offset="1" stop-color="#372620" stop-opacity="0"/>
</linearGradient>
<linearGradient id="paint17_linear_1_2673" x1="39.9276" y1="43.7916" x2="40.2424" y2="44.1804" gradientUnits="userSpaceOnUse">
<stop stop-color="#95614F"/>
<stop offset="1" stop-color="#372620" stop-opacity="0"/>
</linearGradient>
<linearGradient id="paint18_linear_1_2673" x1="39.6427" y1="43.8935" x2="39.9418" y2="44.2629" gradientUnits="userSpaceOnUse">
<stop stop-color="#95614F"/>
<stop offset="1" stop-color="#372620" stop-opacity="0"/>
</linearGradient>
<linearGradient id="paint19_linear_1_2673" x1="39.4248" y1="44.0685" x2="39.6953" y2="44.4024" gradientUnits="userSpaceOnUse">
<stop stop-color="#95614F"/>
<stop offset="1" stop-color="#372620" stop-opacity="0"/>
</linearGradient>
<linearGradient id="paint20_linear_1_2673" x1="39.2793" y1="44.2607" x2="39.522" y2="44.5603" gradientUnits="userSpaceOnUse">
<stop stop-color="#95614F"/>
<stop offset="1" stop-color="#372620" stop-opacity="0"/>
</linearGradient>
<linearGradient id="paint21_linear_1_2673" x1="39.1606" y1="44.5098" x2="39.3715" y2="44.7703" gradientUnits="userSpaceOnUse">
<stop stop-color="#95614F"/>
<stop offset="1" stop-color="#372620" stop-opacity="0"/>
</linearGradient>
<linearGradient id="paint22_linear_1_2673" x1="39.109" y1="44.7964" x2="39.2825" y2="45.0107" gradientUnits="userSpaceOnUse">
<stop stop-color="#95614F"/>
<stop offset="1" stop-color="#372620" stop-opacity="0"/>
</linearGradient>
<linearGradient id="paint23_linear_1_2673" x1="40.3581" y1="45.113" x2="40.3801" y2="45.269" gradientUnits="userSpaceOnUse">
<stop/>
<stop offset="1" stop-color="#BC0624"/>
</linearGradient>
<linearGradient id="paint24_linear_1_2673" x1="41.6303" y1="41.4918" x2="42.2077" y2="47.0189" gradientUnits="userSpaceOnUse">
<stop offset="0.0001" stop-color="#F44336"/>
<stop offset="1" stop-color="#BC0624" stop-opacity="0"/>
</linearGradient>
</defs>
</svg>
